<svg width="208" height="128" viewBox="0 0 208 128" fill="none" xmlns="http://www.w3.org/2000/svg">
<g clip-path="url(#clip0_738_5466)">
<path opacity="0.1" d="M208 82.1724C208.003 85.6387 207.584 89.0926 206.751 92.4574C206.471 93.5912 206.145 94.7014 205.775 95.788C205.321 97.1293 204.795 98.4451 204.199 99.7297C203.899 100.38 203.582 101.017 203.247 101.64C203.253 105.195 202.521 108.712 201.098 111.97C198.526 117.814 193.94 122.54 188.175 125.285C184.57 127.005 180.631 127.909 176.638 127.934H39.485C33.3829 127.947 27.386 126.344 22.1043 123.288L22.0231 123.242C21.2708 122.802 20.5373 122.335 19.8227 121.843C18.2148 120.732 16.7042 119.487 15.3071 118.121C13.4162 116.273 11.7499 114.208 10.3429 111.97C7.03843 106.723 5.28788 100.647 5.29402 94.4459C1.9475 88.574 -0.00390625 81.5402 -0.00390625 73.9818C-0.00390625 64.4455 3.09714 55.7463 8.19198 49.161C9.25416 47.7852 10.4176 46.4907 11.6727 45.2882C12.9111 44.0984 14.2421 43.0089 15.6532 42.03C16.7822 41.246 17.9621 40.5381 19.1852 39.9109C19.6955 39.6513 20.2077 39.4058 20.7286 39.178C21.186 38.9749 21.6487 38.7859 22.1167 38.6076C22.6783 38.3945 23.2469 38.1984 23.8226 38.0195C24.3983 37.8405 24.9664 37.684 25.5268 37.5497C26.3509 37.3484 27.1892 37.1848 28.0415 37.0588C28.7479 36.9546 29.4543 36.8822 30.1607 36.8275C30.7223 36.7851 31.2892 36.7621 31.8596 36.7551H32.1686C32.7973 36.7551 33.4225 36.7798 34.0423 36.8222C34.1077 36.6915 34.1783 36.559 34.2436 36.4301C34.4909 35.9586 34.7469 35.4888 35.0048 35.0297C35.0042 35.0256 35.0042 35.0214 35.0048 35.0173C35.0489 34.9361 35.0931 34.8566 35.139 34.7789C35.3474 34.4028 35.5646 34.0302 35.7871 33.6611C35.8895 33.4845 35.9902 33.3185 36.0944 33.1525C36.1164 33.1112 36.1406 33.0711 36.1668 33.0324C36.2727 32.8558 36.3805 32.6792 36.49 32.5026C37.0351 31.6314 37.6019 30.7755 38.1906 29.9349L38.3407 29.7194C38.4325 29.5887 38.5173 29.4616 38.6197 29.3309C38.8634 28.9901 39.1142 28.6475 39.3667 28.3119C39.5433 28.0718 39.7199 27.8334 39.9106 27.6055C40.3698 27.0169 40.8407 26.4282 41.3234 25.8396C41.8061 25.2509 42.3077 24.6699 42.828 24.0965C42.8987 24.0171 42.9693 23.9394 43.0435 23.8617L43.7976 23.0387C43.8346 22.9999 43.8664 22.9646 43.9017 22.9292C43.9918 22.8321 44.0783 22.735 44.1755 22.6414C44.5799 22.2123 44.9949 21.792 45.4117 21.3734C47.5327 19.2609 49.7923 17.2921 52.1753 15.4804C52.2689 15.4062 52.3643 15.3355 52.4579 15.2649C52.9065 14.9276 53.3621 14.5938 53.8177 14.2654C56.3238 12.4675 58.9435 10.8335 61.6604 9.37362C61.8476 9.26589 62.0383 9.16524 62.2308 9.06634C64.6665 7.77773 67.1716 6.62456 69.7344 5.61209C71.1313 5.05934 72.56 4.54015 73.9975 4.0651C74.9546 3.75076 75.9153 3.45231 76.8884 3.17152C78.4095 2.73356 79.9412 2.34092 81.4835 1.99361C86.0272 0.97409 90.6496 0.344293 95.3004 0.111084C96.7132 0.0392674 98.1419 0.00218246 99.5865 -0.000172176C106.557 -0.00940009 113.5 0.868875 120.248 2.61347C120.318 2.71891 120.414 2.80488 120.526 2.86326C120.638 2.92165 120.763 2.95055 120.889 2.94724H121.483C121.741 3.01788 121.997 3.08852 122.255 3.16269C123.694 3.5771 125.114 4.02978 126.512 4.52072L126.865 4.64787C130.318 5.87539 133.676 7.35088 136.916 9.06281C139.836 10.6023 142.647 12.3394 145.33 14.2618C145.744 14.5585 146.151 14.8576 146.553 15.159C147.04 14.847 147.536 14.5479 148.04 14.2618C149.985 13.1536 152.052 12.2725 154.199 11.6358C158.688 10.3075 163.437 10.1217 168.016 11.0954C173.888 12.3405 179.204 15.4309 183.497 19.8264C185.245 21.6249 186.801 23.6005 188.139 25.7212C188.237 25.8731 188.334 26.0268 188.427 26.1822C189.578 28.0592 190.567 30.0307 191.384 32.0752C191.414 32.1512 191.444 32.2218 191.47 32.296C192.224 34.2105 192.832 36.1793 193.289 38.1855C193.31 38.2879 193.335 38.3886 193.356 38.491C193.784 40.4326 194.074 42.4018 194.225 44.3841C194.225 44.4547 194.225 44.5271 194.239 44.6013C194.313 45.6267 194.351 46.6628 194.352 47.7094C194.352 48.6454 194.32 49.5743 194.262 50.4961C194.262 50.5968 194.248 50.701 194.239 50.8052C194.223 51.0718 194.2 51.3349 194.177 51.6034C195.526 52.6913 196.788 53.8822 197.953 55.1653C198.467 55.7269 198.965 56.3097 199.447 56.9137C200.914 58.7519 202.203 60.7251 203.297 62.8067C206.283 68.4437 208 75.0749 208 82.1724Z" fill="#76ACFF"/>
<path opacity="0.1" d="M188.045 124.632C188.045 125.838 183.89 126.968 176.639 127.94H39.4859C33.3837 127.953 27.3869 126.35 22.1052 123.293L22.0239 123.247C24.1078 122.488 27.8693 121.78 32.9889 121.141L33.2184 121.112C35.5142 120.832 38.0802 120.565 40.8845 120.312C40.9552 120.312 41.0276 120.302 41.0982 120.293C43.3233 120.095 45.6903 119.91 48.1992 119.737C48.2787 119.737 48.3564 119.723 48.4358 119.719C49.4036 119.65 50.3914 119.584 51.3991 119.521L51.7877 119.496C59.1253 119.041 67.466 118.677 76.5113 118.437H76.5219C77.7887 118.402 79.069 118.37 80.3629 118.343C81.8016 118.309 83.2579 118.279 84.7319 118.253C85.8568 118.229 86.9959 118.211 88.1385 118.193H88.165C93.3198 118.116 98.646 118.077 104.092 118.077C117.56 118.077 130.289 118.322 141.568 118.764H141.6C143.334 118.831 145.036 118.905 146.696 118.981L148.109 119.048C149.982 119.137 151.807 119.233 153.584 119.336C174.475 120.524 188.045 122.455 188.045 124.632Z" fill="#76ACFF"/>
<g opacity="0.2">
<path d="M120.137 117.266C120.131 117.456 120.109 117.646 120.071 117.833C118.842 117.637 117.606 117.461 116.363 117.303C116.363 117.254 116.363 117.202 116.363 117.151C116.374 116.622 116.527 116.105 116.804 115.654C117.168 115.078 117.721 114.718 118.33 114.737C118.939 114.757 119.467 115.15 119.794 115.745C120.041 116.213 120.159 116.738 120.137 117.266Z" fill="#3F3D56"/>
<path d="M120.238 114.248C120.281 112.883 119.471 111.749 118.428 111.716C117.385 111.683 116.504 112.763 116.461 114.129C116.418 115.495 117.228 116.629 118.271 116.661C119.315 116.694 120.195 115.614 120.238 114.248Z" fill="#3F3D56"/>
<path d="M120.335 111.225C120.378 109.859 119.568 108.725 118.524 108.692C117.481 108.659 116.601 109.74 116.558 111.105C116.514 112.471 117.325 113.605 118.368 113.638C119.411 113.671 120.292 112.591 120.335 111.225Z" fill="#3F3D56"/>
<path d="M120.429 108.201C120.472 106.836 119.661 105.702 118.618 105.669C117.575 105.636 116.695 106.716 116.651 108.082C116.608 109.448 117.419 110.582 118.462 110.615C119.505 110.648 120.386 109.567 120.429 108.201Z" fill="#3F3D56"/>
<path d="M120.523 105.178C120.567 103.812 119.756 102.678 118.713 102.645C117.67 102.612 116.789 103.693 116.746 105.059C116.703 106.424 117.514 107.558 118.557 107.591C119.6 107.624 120.48 106.544 120.523 105.178Z" fill="#3F3D56"/>
<path d="M112.208 84.1998C111.959 83.8631 111.735 83.509 111.536 83.1402L116.527 82.4815L111.155 82.3526C110.676 81.2155 110.433 79.9925 110.443 78.7585C110.452 77.5245 110.713 76.3054 111.21 75.1757L118.295 79.1403L111.805 74.0472C112.46 72.9883 113.326 72.0758 114.349 71.3666C115.372 70.6574 116.53 70.1668 117.752 69.9255C118.973 69.6841 120.231 69.6972 121.447 69.9638C122.663 70.2305 123.811 70.7451 124.82 71.4753C125.828 72.2056 126.675 73.1359 127.307 74.2082C127.94 75.2805 128.345 76.4717 128.496 77.7074C128.648 78.9431 128.543 80.1967 128.188 81.3901C127.833 82.5834 127.236 83.6908 126.434 84.6431C126.821 85.1668 127.15 85.7311 127.414 86.326L120.864 89.4695L127.81 87.3803C128.247 88.8236 128.318 90.3531 128.015 91.8305C127.712 93.3078 127.046 94.6863 126.076 95.8411C127.084 97.2093 127.687 98.8336 127.816 100.528C127.945 102.223 127.594 103.92 126.803 105.425C126.013 106.929 124.815 108.181 123.347 109.037C121.879 109.893 120.199 110.319 118.501 110.265C116.802 110.212 115.152 109.681 113.741 108.734C112.329 107.788 111.213 106.463 110.519 104.911C109.825 103.36 109.582 101.644 109.817 99.9609C110.052 98.2776 110.756 96.6945 111.849 95.3926C110.644 93.7575 110.024 91.765 110.088 89.735C110.152 87.7051 110.897 85.7556 112.202 84.1998H112.208Z" fill="#76ACFF"/>
<path opacity="0.1" d="M128.195 90.3066C128.133 92.3377 127.386 94.2882 126.076 95.8412C127.084 97.2093 127.687 98.8336 127.816 100.528C127.945 102.223 127.594 103.92 126.803 105.425C126.013 106.929 124.815 108.181 123.347 109.037C121.879 109.893 120.199 110.319 118.501 110.265C116.802 110.212 115.152 109.681 113.741 108.735C112.329 107.788 111.213 106.463 110.519 104.911C109.825 103.36 109.582 101.644 109.817 99.9609C110.052 98.2776 110.756 96.6945 111.849 95.3926C110.689 93.8156 128.227 89.2912 128.195 90.3066Z" fill="black"/>
</g>
<g opacity="0.2">
<path d="M93.292 117.266C93.2863 117.457 93.2645 117.646 93.2266 117.833C91.9975 117.638 90.7613 117.461 89.5181 117.303C89.5181 117.254 89.5181 117.203 89.5181 117.151C89.5296 116.622 89.682 116.105 89.9596 115.654C90.3234 115.078 90.8761 114.718 91.4854 114.737C92.0946 114.757 92.6226 115.151 92.9494 115.746C93.1965 116.213 93.3147 116.738 93.292 117.266Z" fill="#3F3D56"/>
<path d="M93.3911 114.249C93.4343 112.883 92.6237 111.749 91.5806 111.716C90.5375 111.683 89.6569 112.764 89.6138 114.13C89.5706 115.495 90.3812 116.629 91.4243 116.662C92.4674 116.695 93.3479 115.615 93.3911 114.249Z" fill="#3F3D56"/>
<path d="M93.4883 111.226C93.5314 109.86 92.7208 108.726 91.6778 108.693C90.6347 108.66 89.7541 109.74 89.711 111.106C89.6678 112.472 90.4784 113.606 91.5215 113.639C92.5645 113.672 93.4451 112.591 93.4883 111.226Z" fill="#3F3D56"/>
<path d="M93.583 108.202C93.6261 106.837 92.8156 105.703 91.7725 105.67C90.7294 105.637 89.8488 106.717 89.8057 108.083C89.7625 109.449 90.5731 110.583 91.6162 110.616C92.6593 110.649 93.5398 109.568 93.583 108.202Z" fill="#3F3D56"/>
<path d="M93.6777 105.179C93.7209 103.813 92.9103 102.679 91.8672 102.646C90.8241 102.613 89.9436 103.694 89.9004 105.059C89.8573 106.425 90.6678 107.559 91.7109 107.592C92.754 107.625 93.6345 106.544 93.6777 105.179Z" fill="#3F3D56"/>
<path d="M85.3628 84.2001C85.1141 83.8633 84.8898 83.5092 84.6917 83.1405L89.6824 82.4818L84.3103 82.3528C83.8309 81.2157 83.5885 79.9928 83.5979 78.7587C83.6073 77.5247 83.8683 76.3056 84.365 75.1759L91.4501 79.1405L84.9602 74.0475C85.6149 72.9886 86.4809 72.076 87.5041 71.3668C88.5273 70.6577 89.6858 70.1671 90.9071 69.9257C92.1284 69.6844 93.3864 69.6974 94.6025 69.9641C95.8185 70.2308 96.9666 70.7453 97.9748 71.4756C98.9831 72.2059 99.83 73.1362 100.463 74.2085C101.095 75.2807 101.5 76.4719 101.651 77.7076C101.803 78.9433 101.698 80.197 101.343 81.3903C100.988 82.5837 100.391 83.6911 99.5895 84.6433C99.9763 85.1671 100.305 85.7314 100.57 86.3263L94.0196 89.4697L100.965 87.3806C101.403 88.8238 101.473 90.3534 101.17 91.8307C100.867 93.3081 100.201 94.6866 99.231 95.8414C100.239 97.2095 100.842 98.8338 100.971 100.529C101.1 102.223 100.749 103.92 99.9587 105.425C99.1685 106.93 97.9707 108.182 96.5024 109.038C95.0341 109.894 93.3546 110.319 91.6558 110.266C89.957 110.212 88.3076 109.682 86.8961 108.735C85.4847 107.788 84.3682 106.463 83.6743 104.911C82.9804 103.36 82.7372 101.644 82.9724 99.9611C83.2076 98.2778 83.9117 96.6947 85.0043 95.3928C83.7996 93.7578 83.1794 91.7652 83.2435 89.7353C83.3075 87.7054 84.0521 85.7559 85.3575 84.2001H85.3628Z" fill="#76ACFF"/>
<path opacity="0.1" d="M101.35 90.3068C101.288 92.3379 100.542 94.2884 99.231 95.8414C100.239 97.2096 100.842 98.8339 100.971 100.529C101.1 102.223 100.749 103.92 99.9587 105.425C99.1685 106.93 97.9707 108.182 96.5024 109.038C95.0341 109.894 93.3546 110.319 91.6558 110.266C89.957 110.212 88.3076 109.682 86.8961 108.735C85.4847 107.788 84.3682 106.463 83.6743 104.911C82.9804 103.36 82.7372 101.644 82.9724 99.9612C83.2076 98.2779 83.9117 96.6948 85.0043 95.3928C83.8441 93.8158 101.382 89.2914 101.35 90.3068Z" fill="black"/>
</g>
<g opacity="0.2">
<path d="M166.615 119.198C166.602 119.559 166.559 119.918 166.486 120.272C164.12 119.894 161.736 119.556 159.336 119.258C159.336 119.163 159.336 119.066 159.336 118.967C159.358 117.947 159.652 116.952 160.187 116.083C160.894 114.976 161.953 114.282 163.124 114.317C164.295 114.353 165.314 115.114 165.95 116.26C166.429 117.163 166.659 118.177 166.615 119.198Z" fill="#3F3D56"/>
<path d="M166.809 113.384C166.892 110.754 165.33 108.57 163.321 108.507C161.312 108.443 159.616 110.524 159.533 113.154C159.45 115.784 161.011 117.968 163.02 118.031C165.029 118.095 166.725 116.014 166.809 113.384Z" fill="#3F3D56"/>
<path d="M166.992 107.563C167.075 104.933 165.513 102.749 163.504 102.686C161.495 102.622 159.799 104.703 159.716 107.333C159.633 109.963 161.194 112.147 163.203 112.21C165.212 112.274 166.909 110.193 166.992 107.563Z" fill="#3F3D56"/>
<path d="M167.177 101.742C167.26 99.1122 165.698 96.9287 163.689 96.8652C161.68 96.8017 159.984 98.8823 159.901 101.512C159.818 104.143 161.379 106.326 163.388 106.39C165.397 106.453 167.094 104.372 167.177 101.742Z" fill="#3F3D56"/>
<path d="M167.153 95.6569C167.232 93.0255 165.666 90.8434 163.656 90.7831C161.646 90.7228 159.952 92.8071 159.873 95.4385C159.794 98.0699 161.36 100.252 163.37 100.312C165.38 100.373 167.074 98.2883 167.153 95.6569Z" fill="#3F3D56"/>
<path d="M151.349 55.5419C150.873 54.8936 150.441 54.2132 150.058 53.5057L159.665 52.2377L149.325 51.9887C148.402 49.7998 147.934 47.4454 147.952 45.0697C147.97 42.6939 148.472 40.3468 149.428 38.1717L163.07 45.8025L150.577 35.9978C151.841 33.9641 153.509 32.2124 155.479 30.8518C157.449 29.4911 159.678 28.5508 162.027 28.0894C164.376 27.6279 166.795 27.6552 169.133 28.1697C171.471 28.6841 173.678 29.6745 175.617 31.0793C177.555 32.4841 179.184 34.2731 180.401 36.3348C181.618 38.3965 182.397 40.6868 182.69 43.0628C182.983 45.4389 182.783 47.8498 182.103 50.1453C181.424 52.4409 180.279 54.5718 178.739 56.4054C179.483 57.4146 180.116 58.5011 180.627 59.646L168.016 65.7015L181.387 61.6751C182.229 64.4502 182.366 67.3917 181.786 70.2332C181.205 73.0746 179.925 75.7265 178.061 77.9486C180.002 80.5825 181.163 83.7095 181.41 86.9719C181.658 90.2344 180.982 93.5006 179.461 96.3972C177.939 99.2938 175.634 101.704 172.807 103.352C169.981 105 166.747 105.819 163.477 105.716C160.207 105.613 157.032 104.591 154.315 102.769C151.597 100.946 149.448 98.3955 148.112 95.4088C146.776 92.4222 146.308 89.1199 146.76 85.8795C147.213 82.6391 148.568 79.5914 150.671 77.085C148.353 73.9374 147.16 70.1023 147.283 66.1952C147.406 62.2881 148.838 58.5357 151.349 55.5401V55.5419Z" fill="#76ACFF"/>
<path opacity="0.1" d="M182.13 67.2961C182.014 71.204 180.583 74.9585 178.069 77.952C180.01 80.586 181.17 83.7129 181.418 86.9754C181.665 90.2378 180.989 93.5041 179.468 96.4007C177.947 99.2972 175.641 101.707 172.814 103.355C169.988 105.003 166.755 105.822 163.484 105.719C160.214 105.616 157.039 104.595 154.322 102.772C151.605 100.949 149.455 98.399 148.12 95.4123C146.784 92.4256 146.315 89.1233 146.768 85.8829C147.22 82.6426 148.575 79.5949 150.678 77.0885C148.429 74.0492 182.192 65.3412 182.13 67.2961Z" fill="black"/>
</g>
<path d="M27.8701 119.509L29.7226 119.504H32.3345L35.6369 65.857L68.341 11.2831L66.9193 9.75726V5.89331L31.5504 64.5925L27.8701 119.509Z" fill="#F1C0C0"/>
<path opacity="0.1" d="M29.9204 119.504H32.3345L35.6369 65.8568L68.341 11.2829L66.9193 9.75708L33.1857 65.0391L29.9204 119.504Z" fill="black"/>
<path d="M22.4121 119.956L107.152 126.44L107.225 126.445L189.235 121.402L189.297 121.398V117.935L98.9318 116.277L23.5406 116.205H22.9896L22.9295 116.593L22.4121 119.956Z" fill="#F1C0C0"/>
<path opacity="0.1" d="M22.4121 119.956L107.152 126.44L107.225 126.445L189.235 121.402L189.297 121.335V118.008H189.224L107.152 120.748L23.5406 116.205H23.5282L23.3799 116.302L22.9295 116.593L22.4121 119.956Z" fill="black"/>
<path opacity="0.1" d="M22.4121 119.956L107.152 126.44V120.749L23.3799 116.302L22.9295 116.593L22.4121 119.956Z" fill="black"/>
<path d="M66.9092 9.68477L104.268 49.783L103.113 120.316L106.287 120.699L106.34 120.706H109.513L109.893 52.8116L179.849 76.179L181.028 117.785L183.582 118.071L184.447 118.169L182.445 73.2934L109.316 47.6197L69.2173 5.93384H66.9092V9.68477Z" fill="#F1C0C0"/>
<path opacity="0.1" d="M109.605 51.5134L109.893 52.8114L179.849 76.1788L181.029 117.785L183.582 118.071L181.58 75.3135L109.605 51.5134Z" fill="black"/>
<path opacity="0.1" d="M66.9092 9.68477L104.268 49.783L103.113 120.316L106.287 120.699L107.152 47.4749L66.9092 5.93384V9.68477Z" fill="black"/>
<path d="M109.741 79.8204L135.399 84.8729L135.408 84.8747L180.347 93.7275L182.404 92.9028L182.397 92.758L182.263 89.8883L109.768 75.2395L109.741 79.8204Z" fill="#F1C0C0"/>
<path opacity="0.1" d="M135.408 84.8745L180.346 93.7273L182.404 92.9026L182.397 92.7578L135.408 84.8745Z" fill="black"/>
<path d="M137.126 61.9082L137.82 100.113L138.179 119.714L141.338 119.608L143.326 119.541L142.708 62.461L141.338 62.0053L141.038 61.9082H137.126Z" fill="#F1C0C0"/>
<path opacity="0.1" d="M137.155 61.8992V61.908L137.821 100.113L138.179 119.714L141.338 119.608V61.8992H137.155Z" fill="black"/>
<path d="M87.6385 71.6651C87.8238 71.7658 88.001 71.881 88.1683 72.0095C88.3661 72.1826 88.5438 72.3775 88.6981 72.5905C89.4557 73.5706 90.155 74.7096 90.0808 75.9458C90.0824 76.1257 90.0484 76.3041 89.9809 76.4708C89.9133 76.6374 89.8134 76.7891 89.687 76.9171C89.3744 77.1838 88.9259 77.1961 88.5162 77.1961C88.0711 77.1961 87.6032 77.1961 87.2182 76.9666C86.8332 76.737 86.5118 76.2902 86.0562 76.3008C85.9919 76.3114 85.9262 76.3114 85.8619 76.3008C85.7047 76.2496 85.673 76.0429 85.5705 75.9123C85.3939 75.6774 85.0213 75.7357 84.7441 75.8381C84.4668 75.9405 84.1595 76.0942 83.8858 75.9758C83.7269 75.892 83.597 75.7621 83.5132 75.6032C82.858 74.5436 82.7185 73.2704 82.5949 72.0395C82.5189 71.2907 81.9397 68.7371 83.5379 69.3181C84.2443 69.5724 84.9048 70.081 85.5476 70.4536L87.6385 71.6651Z" fill="#3F3D56"/>
<path d="M86.0594 71.9177C86.2021 72.0203 86.3752 72.0723 86.5509 72.0653C86.7266 72.0582 86.8948 71.9926 87.0289 71.8788C87.2919 71.6412 87.4595 71.3161 87.5004 70.964C87.677 70.9093 87.7671 71.1406 87.8801 71.2819C88.0779 71.5221 88.4806 71.5185 88.6607 71.7746C88.7861 71.9512 88.7578 72.1967 88.8461 72.3962C88.9609 72.6541 89.2452 72.7883 89.4395 72.9967C89.6229 73.2243 89.7554 73.4887 89.828 73.7719L90.1176 74.6408C90.2562 75.0021 90.3453 75.3805 90.3825 75.7657C90.4008 75.9583 90.3805 76.1525 90.3229 76.3372C90.2653 76.5218 90.1715 76.6932 90.047 76.8412C89.6585 77.2597 89.0209 77.3039 88.4576 77.2915C88.2695 77.2955 88.0817 77.2735 87.8995 77.2262C87.3998 77.0708 87.0801 76.5675 86.9477 76.0606C86.8152 75.5538 86.8294 75.0222 86.7517 74.503C86.6677 73.9931 86.5194 73.4958 86.3102 73.0232C86.1548 72.6558 85.7274 72.1084 85.7345 71.7181C85.8616 71.7181 85.9534 71.8347 86.0594 71.9177Z" fill="#3F3D56"/>
<path d="M86.6931 70.1284C86.6106 69.8776 86.5625 69.6168 86.5501 69.3531C86.5501 68.8233 86.792 68.3253 87.0357 67.8521L85.0172 68.1258C84.7735 68.1593 84.5016 68.2088 84.3638 68.4119C84.3115 68.5125 84.2842 68.6243 84.2842 68.7377C84.2842 68.8511 84.3115 68.9629 84.3638 69.0635C84.465 69.265 84.5455 69.4762 84.604 69.694C84.6086 69.8845 84.6304 70.0742 84.6693 70.2608C84.7321 70.3979 84.8202 70.5219 84.9289 70.6264C85.5064 71.2657 85.9391 72.0197 86.37 72.7668C86.3576 72.7456 87.5867 71.7937 87.5373 71.4829C87.509 71.3063 87.1541 71.0944 87.041 70.9248C86.8849 70.6788 86.7676 70.4101 86.6931 70.1284Z" fill="#BE6F72"/>
<path d="M104 63.229V64.9685L74.2131 70.7785L72.6679 71.7145H67.3364V70.7344L96.6022 63.6634L104 63.229Z" fill="#F1C0C0"/>
<path opacity="0.1" d="M104 64.9685L74.2131 70.7786L72.6679 71.7145H67.3364L96.8194 65.4047L104 64.9685Z" fill="black"/>
<path d="M80.0854 112.609C79.7535 112.207 79.2953 111.929 78.7855 111.821C78.2756 111.713 77.7441 111.78 77.2775 112.012C77.1776 112.059 77.0895 112.128 77.0196 112.213C76.843 112.461 76.956 112.802 76.9719 113.107C77.0126 113.852 76.4192 114.458 75.8859 114.979C75.5998 115.258 75.3084 115.556 75.1795 115.936C75.0506 116.316 75.1459 116.798 75.4921 116.996C75.6431 117.071 75.8075 117.117 75.9759 117.13C76.5404 117.24 77.1192 117.256 77.6889 117.178C78.2523 117.07 78.805 116.75 79.0487 116.231C79.0957 116.09 79.1736 115.962 79.2765 115.855C79.5873 115.609 80.0642 115.897 80.4174 115.722C80.7087 115.578 80.7211 115.35 80.7246 115.05C80.7352 114.22 80.6116 113.28 80.0854 112.609Z" fill="#76ACFF"/>
<path d="M84.3236 112.577C84.5408 113.149 84.5708 113.773 84.5991 114.384C84.615 114.737 84.6256 115.115 84.4348 115.413C84.2441 115.712 83.8715 115.869 83.5148 115.943C82.7784 116.095 81.9254 115.952 81.4504 115.367C81.0866 114.921 81.0106 114.308 81.0777 113.729C81.1342 113.254 81.2543 112.697 80.9135 112.36C80.8252 112.27 80.7104 112.206 80.6292 112.109C80.4526 111.894 80.4808 111.569 80.5762 111.304C80.7004 111.051 80.7935 110.783 80.8535 110.507C80.8676 110.377 83.2446 110.599 83.4636 110.707C83.762 110.854 83.7161 111.099 83.8062 111.396C83.9315 111.809 84.1717 112.182 84.3236 112.577Z" fill="#76ACFF"/>
<path d="M84.76 87.2073C85.2262 87.5092 85.4063 88.1026 85.4787 88.6536C85.6783 90.1635 85.3286 91.6893 85.3021 93.2133C85.2774 95.3484 85.8955 97.5223 85.3675 99.5903C85.0514 100.826 85.3198 102.239 85.0231 103.488C84.9348 103.859 84.7724 104.208 84.6876 104.579C84.511 105.383 84.6964 106.223 84.9454 107.009C85.0249 107.221 85.0754 107.443 85.0955 107.668C85.0836 108.015 84.9955 108.355 84.8377 108.664L83.7781 111.17C83.6598 111.451 83.1936 111.496 82.8951 111.534C82.3335 111.601 81.7066 111.648 81.2598 111.3C80.813 110.953 80.7053 110.37 80.6364 109.826C80.5043 108.782 80.4453 107.73 80.4598 106.677C80.4793 106.402 80.4548 106.126 80.3874 105.859C80.2903 105.558 80.0766 105.296 80.0183 104.976C79.9442 104.563 80.1543 104.157 80.232 103.74C80.2853 103.36 80.2794 102.973 80.2144 102.594C80.1455 102.029 80.066 101.464 79.976 100.902C79.8488 100.117 80.0307 99.3413 80.1526 98.5536C80.2673 97.8137 80.1208 97.0596 79.976 96.325C79.9885 96.9212 79.9141 97.5161 79.7552 98.091C79.6616 98.3718 79.5274 98.6402 79.4462 98.9263C79.0841 100.21 79.8559 101.558 79.7464 102.887C79.6952 103.509 79.4515 104.124 79.5203 104.736C79.568 105.185 79.7764 105.596 79.9195 106.024C80.0625 106.451 80.1367 106.94 79.9195 107.339C79.3455 108.424 79.7746 109.898 80.2885 111.011C80.3929 111.208 80.4837 111.412 80.5605 111.622C80.7124 112.123 80.5852 112.662 80.6258 113.185C80.4779 113.209 80.3265 113.199 80.1829 113.156C80.0394 113.113 79.9076 113.037 79.7976 112.936C79.7199 112.855 79.6563 112.759 79.5804 112.674C79.3682 112.472 79.117 112.315 78.8422 112.213C78.6808 112.123 78.497 112.081 78.3124 112.092C78.1183 112.146 77.9437 112.254 77.8091 112.404C77.6345 112.558 77.4491 112.699 77.2546 112.826C77.1717 112.89 77.0749 112.933 76.972 112.952C76.9203 112.96 76.8674 112.951 76.8208 112.927C76.7742 112.904 76.7363 112.866 76.7124 112.819C76.7014 112.79 76.6949 112.759 76.693 112.727C76.6274 112.194 76.5926 111.658 76.5888 111.12C76.5888 110.197 75.4833 109.561 75.3438 108.648C75.2326 107.912 75.4392 107.161 75.3703 106.419C75.3367 106.038 75.2308 105.663 75.2379 105.282C75.2379 105.035 75.2944 104.793 75.3138 104.547C75.33 104.275 75.3258 104.002 75.3014 103.73L75.2467 102.877C75.1937 102.034 75.1354 101.174 74.8034 100.404C74.4097 99.5053 74.1766 98.5442 74.1147 97.5647C74.0794 96.9466 74.1023 96.3285 74.0317 95.7087C73.9681 95.1488 73.8268 94.5926 73.8675 94.031C73.901 93.5965 74.0441 93.1762 74.0776 92.7418C74.1465 91.9065 73.8286 91.0942 73.5796 90.2942C73.3306 89.4942 73.1469 88.6077 73.4736 87.8359C73.5203 87.7093 73.5981 87.5963 73.6997 87.5075C73.825 87.4246 73.9675 87.3714 74.1165 87.3521C77.1464 86.7156 80.2521 86.5175 83.3384 86.764C83.8415 86.7925 84.3298 86.9448 84.76 87.2073Z" fill="#3F3D56"/>
<path d="M74.7344 68.4509C76.2968 68.4509 77.5635 67.1843 77.5635 65.6218C77.5635 64.0593 76.2968 62.7927 74.7344 62.7927C73.1719 62.7927 71.9053 64.0593 71.9053 65.6218C71.9053 67.1843 73.1719 68.4509 74.7344 68.4509Z" fill="#BE6F72"/>
<path d="M74.1871 69.1554C74.2277 69.3171 74.2277 69.4864 74.1871 69.6481C74.1426 69.7611 74.08 69.8661 74.0016 69.9589C73.7278 70.3122 73.4247 70.6418 73.0957 70.9443C73.2633 71.3187 73.5651 71.6167 73.9416 71.7796C74.3154 71.9387 74.7075 72.0508 75.1089 72.1134C75.3093 72.1661 75.5178 72.1805 75.7235 72.1558C75.913 72.1081 76.0925 72.0268 76.2533 71.9156L77.825 70.9743C78.0621 70.8459 78.2817 70.6874 78.4784 70.5028C78.7667 70.2065 78.9298 69.8107 78.934 69.3973C78.9413 69.3233 78.9212 69.2491 78.8775 69.1889C78.8173 69.1365 78.7417 69.1049 78.6621 69.0989C78.1093 68.977 77.6731 68.5285 77.4259 68.0199C77.2024 67.4985 77.0577 66.9468 76.9967 66.3828L75.3208 67.2658C75.0718 67.3982 74.8246 67.5307 74.5668 67.6455C74.4025 67.7197 74.0705 67.7815 73.954 67.9316C73.7315 68.2088 74.1288 68.8216 74.1871 69.1554Z" fill="#BE6F72"/>
<path d="M73.1054 70.4306C72.8667 70.6263 72.6804 70.8781 72.5632 71.1635C72.4537 71.5167 72.5632 71.8893 72.6621 72.239C73.1256 73.7294 73.4797 75.2515 73.7217 76.7934C73.87 77.853 73.9248 78.9285 73.9972 80.0005C74.1455 82.1867 74.361 85.6728 74.6488 87.8449C75.7084 87.8926 76.7415 87.5835 77.7923 87.4705C79.756 87.2621 81.7781 87.7389 83.7012 87.2939C83.235 85.452 82.7688 82.3068 82.3026 80.4667C82.0962 79.7416 81.9533 79.0001 81.8752 78.2504C81.8346 77.7117 81.8593 77.1714 81.8664 76.6292C81.8823 75.5696 81.824 74.51 81.7657 73.4504C81.6986 72.2143 81.6315 70.9781 81.3383 69.7684C81.3179 69.6142 81.2457 69.4716 81.1335 69.364C80.9569 69.2351 80.7273 69.281 80.5172 69.3092C79.8737 69.391 79.2224 69.2366 78.6841 68.8748C78.451 68.7159 78.1384 68.5216 77.9212 68.6982C77.8285 68.8047 77.7673 68.935 77.7446 69.0744C77.6485 69.3242 77.5001 69.5506 77.3095 69.7385C77.1188 69.9264 76.8903 70.0715 76.6391 70.164C76.1358 70.3462 75.6088 70.4545 75.0744 70.4854C74.9109 70.5205 74.7404 70.5013 74.5888 70.4306C74.338 70.277 74.3203 69.7242 74.0042 69.6872C73.727 69.6554 73.2925 70.2523 73.1054 70.4306Z" fill="#3F3D56"/>
<path d="M77.285 74.743C76.6333 74.1196 76.3472 73.2154 75.8722 72.4472C75.5487 71.9307 75.1354 71.4761 74.6519 71.1051C74.4088 70.9445 74.1859 70.7554 73.9879 70.5417C73.8201 70.3351 73.693 70.0596 73.4387 69.9802C73.3336 69.9573 73.2245 69.9603 73.1209 69.9889C73.0172 70.0175 72.922 70.0709 72.8435 70.1444C72.6879 70.2927 72.5405 70.4496 72.4021 70.6141C71.6533 71.3894 70.3376 71.4971 69.7443 72.3942C69.5842 72.5844 69.4754 72.8124 69.4282 73.0565C69.2573 74.3622 69.5949 75.6836 70.3712 76.7474C70.5215 76.9939 70.7523 77.1811 71.0246 77.2772C70.9877 77.6064 71.0313 77.9398 71.1517 78.2484C71.4787 79.3661 71.8805 80.4606 72.3544 81.5243C72.2411 81.9404 72.1619 82.3651 72.1177 82.7941C71.9941 83.8731 72.1089 84.968 71.9923 86.0488C71.897 86.9317 71.6392 87.7918 71.6303 88.6765C71.6303 88.8178 71.6427 88.9856 71.7645 89.058C71.8294 89.0913 71.9019 89.1065 71.9747 89.1021L74.1468 89.1675C75.4077 89.2046 76.681 89.2416 77.9225 89.0085C78.0878 88.9841 78.2482 88.9334 78.3975 88.8584C78.8178 88.6235 78.9573 88.0938 79.0245 87.6222C79.1121 87.0106 79.147 86.3926 79.1286 85.775C79.3918 86.6068 79.7044 87.4668 80.499 87.8271C80.9193 88.0178 81.3997 88.0037 81.8606 87.9913C82.8541 87.9471 83.8441 87.8451 84.8257 87.6858C84.8862 87.6933 84.9476 87.6866 85.005 87.6661C85.0624 87.6456 85.1142 87.6119 85.1563 87.5678C85.1983 87.5237 85.2295 87.4703 85.2472 87.412C85.2649 87.3537 85.2687 87.292 85.2583 87.232L85.2689 86.2677C85.2901 84.3093 84.8045 82.4373 84.6155 80.4877C84.5555 79.8732 84.5608 79.2515 84.4107 78.6493C84.3489 78.3968 84.2588 78.1495 84.2041 77.8952C84.1569 77.6463 84.1274 77.3943 84.1158 77.1412L83.978 75.1986C83.9127 74.2997 83.8191 73.4326 83.7502 72.5355C83.7124 71.662 83.5857 70.7945 83.3723 69.9466C83.2186 69.4168 82.899 68.8164 82.3463 68.751C82.0513 68.7175 81.7652 68.8464 81.4845 68.9365C80.7943 69.1537 80.0536 69.1507 79.3653 68.9276C79.1526 68.8437 78.931 68.7844 78.7048 68.751C78.591 68.7355 78.475 68.7506 78.3689 68.7947C78.2628 68.8387 78.1703 68.9102 78.1009 69.0018C78.0323 69.1398 78.0001 69.2929 78.0073 69.4468C77.9243 71.211 77.7706 73.0282 77.285 74.743Z" fill="#76ACFF"/>
<path d="M74.4428 74.7963C73.6287 73.938 72.7934 73.0639 71.7444 72.5182C71.3312 72.3027 70.8614 72.1403 70.4041 72.2215C69.9467 72.3027 69.5211 72.7001 69.5423 73.1645C69.5564 73.4524 69.7312 73.7067 69.786 73.9892C69.8495 74.3071 69.7577 74.6462 69.8566 74.9534C69.937 75.1559 70.0571 75.3403 70.2098 75.4956L71.4601 76.9773C71.9899 77.5954 72.5197 78.2223 73.2014 78.6496C73.883 79.077 74.766 79.2766 75.5148 78.9728C76.0475 78.7252 76.4905 78.3186 76.7828 77.809C77.0936 77.3146 77.3125 76.7742 77.6039 76.2638C78.0574 75.4483 78.6559 74.7224 79.3699 74.1217C79.0026 74.0263 78.5417 73.8921 78.3103 73.5919C78.2445 73.4964 78.1883 73.3947 78.1426 73.2881L77.8565 72.67C77.7592 72.665 77.6619 72.6801 77.5707 72.7144C77.4795 72.7488 77.3964 72.8016 77.3267 72.8696C77.204 73.0114 77.0725 73.1453 76.9329 73.2705C76.6839 73.4577 76.3466 73.5089 76.1205 73.7226C76.0331 73.8143 75.9539 73.9136 75.8839 74.0192C75.7129 74.244 75.4959 74.4295 75.2474 74.5636C74.9988 74.6976 74.7245 74.7769 74.4428 74.7963Z" fill="#3F3D56"/>
<path d="M79.4353 71.1035C80.0481 69.9857 80.0198 68.6453 80.1947 67.3826C80.2136 67.0482 80.3309 66.7269 80.532 66.459C80.8852 66.0599 81.5085 66.0546 82.0419 66.1058C82.199 66.1235 82.3951 66.1976 82.3862 66.3548C82.3738 66.4111 82.3464 66.463 82.3068 66.5049C81.7898 67.1721 81.4858 67.9795 81.4344 68.8219C81.7116 69.0144 82.1408 68.6188 82.4074 68.8219C82.584 68.9702 82.5028 69.2634 82.3968 69.4753C82.1508 69.9662 81.8971 70.4536 81.6357 70.9375C81.4271 71.364 81.155 71.7564 80.8286 72.1013C80.6044 72.3167 80.3412 72.4863 80.1134 72.6982C79.5836 73.1944 79.264 73.8955 78.7165 74.3794C78.6703 74.4295 78.6077 74.4615 78.5399 74.4695C78.4703 74.4645 78.4046 74.4351 78.3545 74.3865C78.081 74.164 77.8542 73.8898 77.687 73.5794C77.4786 73.1944 77.5104 73.0814 77.8388 72.8095C78.4534 72.3238 79.0521 71.8029 79.4353 71.1035Z" fill="#BE6F72"/>
<path d="M73.4183 74.0367C73.5243 74.1021 73.6549 74.1763 73.7715 74.1215C73.8191 74.0927 73.8596 74.0535 73.8898 74.0067C74.0917 73.7373 74.2601 73.4444 74.3913 73.1343C74.4139 73.0905 74.4266 73.0423 74.4284 72.9931C74.4284 72.88 74.3278 72.797 74.2342 72.7317C73.7327 72.412 73.1935 72.1558 72.6289 71.9688C72.1627 71.7922 71.6753 71.6386 71.1808 71.6827C70.995 71.6952 70.8137 71.7451 70.6477 71.8295C70.4816 71.9138 70.3344 72.0309 70.2148 72.1736C69.8616 72.6275 70.4532 72.7652 70.8241 72.9295C71.6823 73.3198 72.6112 73.5458 73.4183 74.0367Z" fill="#76ACFF"/>
<path opacity="0.1" d="M72.8627 77.039C72.8567 77.0793 72.8603 77.1205 72.8732 77.1591C72.8861 77.1978 72.9079 77.2329 72.9368 77.2615C72.988 77.0108 72.9209 76.7458 72.9739 76.4933C73.0516 76.1136 73.4207 75.8275 73.4525 75.4461C72.7761 75.3136 72.868 76.6293 72.8627 77.039Z" fill="black"/>
<path opacity="0.2" d="M104 63.229V64.9685L96.8193 65.4047L96.6021 63.6634L104 63.229Z" fill="black"/>
<path d="M72.1871 66.0423C72.6356 65.6767 72.3761 64.9103 72.6798 64.4193C72.8564 64.1509 73.1548 64.0096 73.448 63.8895C73.8018 63.724 74.1809 63.6189 74.5694 63.5787C74.764 63.56 74.9603 63.5854 75.1437 63.653C75.3271 63.7206 75.493 63.8286 75.629 63.969C75.7438 64.0997 75.8215 64.2586 75.9292 64.3946C76.0626 64.5533 76.2365 64.6728 76.4324 64.7406C76.6282 64.8084 76.8388 64.8219 77.0418 64.7796C77.2766 64.7266 77.5203 64.5483 77.5044 64.3081C77.4779 64.162 77.4033 64.029 77.2925 63.9302L76.7875 63.3704C76.2135 62.7346 75.576 62.06 74.7336 61.9011C74.1473 61.7898 73.5469 61.947 72.9818 62.1359C72.754 62.2119 72.4979 62.3249 72.4343 62.5562C72.3919 62.7152 72.4555 62.8882 72.4184 63.0489C72.346 63.3686 71.9363 63.4763 71.7456 63.7447C71.5549 64.0132 71.6131 64.331 71.5584 64.6277C71.5037 64.9244 71.3447 65.214 71.3253 65.5213C71.3129 65.7067 71.4065 66.0511 71.6149 66.1182C71.8233 66.1853 72.0582 65.8215 72.1871 66.0423Z" fill="#3F3D56"/>
<path d="M77.334 64.0537C77.1851 63.2768 76.8641 62.543 76.3945 61.9063C75.977 61.3115 75.3961 60.8502 74.7221 60.5783C74.3852 60.4467 74.0228 60.393 73.6622 60.4215C73.3016 60.4499 72.9521 60.5597 72.64 60.7425C72.1767 61.0733 71.8162 61.5281 71.5999 62.0547C71.1425 63.0401 70.973 64.2445 71.5045 65.191C71.7164 64.9332 72.0802 65.0498 72.4016 64.9562C72.8043 64.8414 73.1451 64.5729 73.5283 64.4052C74.685 63.8948 76.0978 64.308 77.334 64.0537Z" fill="#FED253"/>
<path opacity="0.1" d="M71.7745 63.9989C71.7339 63.6811 71.7074 63.312 71.9335 63.0859C71.9447 63.0721 71.959 63.061 71.9753 63.0537C71.9915 63.0463 72.0093 63.0429 72.0271 63.0435C72.0428 63.0487 72.0574 63.0569 72.0698 63.0679C72.0823 63.0788 72.0924 63.0922 72.0995 63.1071C72.23 63.313 72.3411 63.5306 72.4315 63.757C72.2999 63.7267 72.1622 63.7365 72.0362 63.7853C71.9103 63.8341 71.8019 63.9196 71.7251 64.0307" fill="black"/>
<path opacity="0.1" d="M75.9014 63.1019L75.8378 62.4715C75.8275 62.4195 75.8318 62.3658 75.8501 62.3161C75.8768 62.2745 75.9179 62.2443 75.9655 62.2312C76.0131 62.2182 76.0639 62.2232 76.108 62.2455C76.1949 62.2936 76.2665 62.3652 76.3146 62.4521C76.4616 62.6777 76.5836 62.9187 76.6784 63.1708C76.394 63.116 76.1014 63.1196 75.8184 63.1814" fill="black"/>
<path opacity="0.1" d="M77.4824 88.689V90.13L76.2656 90.2112H69.8657V88.689H77.4824Z" fill="black"/>
<path d="M77.482 88.6891V90.2114H69.8654L49.6309 64.8643V63.667H53.8727L77.482 88.6891Z" fill="#F1C0C0"/>
<path opacity="0.1" d="M77.482 88.6891V90.2114H69.8654L49.6309 64.8643V63.667H53.8727L77.482 88.6891Z" fill="black"/>
<path opacity="0.1" d="M77.482 88.6891V90.2114H69.8654L49.6309 64.8643V63.667L69.9749 88.6891H77.482Z" fill="black"/>
<path d="M52.2836 114.094C52.297 114.166 52.2954 114.24 52.2789 114.311C52.2625 114.382 52.2316 114.448 52.1882 114.507C52.1448 114.565 52.0897 114.614 52.0266 114.651C51.9634 114.687 51.8934 114.71 51.821 114.718C51.33 114.884 50.8091 115.048 50.4612 115.424C50.1133 115.8 50.0444 116.498 50.4612 116.803C50.6742 116.932 50.9188 116.999 51.1675 116.996C51.9675 117.051 52.8011 117.04 53.5269 116.701C54.0461 116.461 54.5353 116.051 55.1057 116.088C55.4006 116.106 55.7149 116.244 55.9781 116.109C56.2412 115.975 56.3154 115.601 56.3171 115.288C56.3238 114.636 56.2254 113.986 56.0257 113.365C55.9993 113.28 54.8761 113.215 54.7419 113.188L53.3803 113.012C53.1225 112.978 52.5662 112.784 52.3631 113C52.16 113.215 52.2836 113.838 52.2836 114.094Z" fill="#76ACFF"/>
<path d="M60.409 109.686C60.4667 110.004 60.5603 110.315 60.6881 110.612C60.877 111.092 61.119 111.603 61.5816 111.836C62.0019 112.046 62.5176 111.97 62.945 111.77C63.1233 111.696 63.2797 111.578 63.3988 111.426C63.5367 111.186 63.5983 110.909 63.5754 110.633C63.5754 109.95 63.5348 109.243 63.2222 108.636C62.9538 108.106 62.4858 107.65 62.4788 107.064L60.87 107.375C60.7838 107.383 60.7018 107.415 60.6333 107.468C60.5823 107.522 60.5469 107.589 60.5309 107.661C60.3591 108.322 60.3177 109.01 60.409 109.686Z" fill="#76ACFF"/>
<path d="M41.1971 92.91C41.13 93.4786 41.1583 94.0879 41.455 94.5788C41.7517 95.0698 42.3768 95.3947 42.9172 95.1987C42.9449 95.1916 42.9709 95.179 42.9936 95.1618C43.0164 95.1445 43.0354 95.1228 43.0496 95.098C43.064 95.0383 43.0558 94.9754 43.0267 94.9214C42.7881 94.2847 42.8078 93.58 43.0814 92.9577C43.1167 92.8764 43.1927 92.7811 43.2757 92.8128C43.3104 92.8304 43.3383 92.859 43.3552 92.8941C43.4406 93.042 43.4834 93.2107 43.4788 93.3815C43.4538 93.5362 43.4491 93.6935 43.4646 93.8495C43.4982 94.0013 43.6607 94.1444 43.8019 94.079C43.8428 94.054 43.8781 94.0208 43.9057 93.9817C43.9334 93.9425 43.9527 93.8981 43.9627 93.8512C44.3565 92.7122 44.1781 91.4672 43.998 90.2751C43.9995 90.2478 43.9949 90.2204 43.9847 90.195C43.9745 90.1695 43.9588 90.1467 43.9387 90.128C43.9187 90.1093 43.8948 90.0952 43.8687 90.0868C43.8426 90.0783 43.815 90.0757 43.7878 90.0791C42.9543 89.9961 42.4987 89.7966 42.0218 90.5718C41.6121 91.2252 41.1971 92.1241 41.1971 92.91Z" fill="#76ACFF"/>
<path d="M50.9408 90.0118C50.6936 91.0396 50.4446 92.0797 50.4287 93.1358C50.4331 93.7936 50.4826 94.4503 50.5771 95.1013L50.7625 96.6306C50.8261 97.1463 50.8879 97.6602 50.9779 98.1706C51.0354 98.4335 51.0667 98.7015 51.0715 98.9705C51.0542 99.2358 51.0122 99.4989 50.9461 99.7564C50.8351 100.297 50.773 100.847 50.7607 101.399C50.7413 102.282 50.8508 103.165 50.9197 104.048C51.0571 105.807 51.0365 107.576 50.8578 109.332C50.7865 109.805 50.8894 110.289 51.1475 110.693C51.2522 110.82 51.3384 110.962 51.4035 111.113C51.536 111.518 51.2269 111.922 51.1475 112.337C51.0966 112.661 51.1763 112.991 51.369 113.256C51.5617 113.521 51.8517 113.699 52.1753 113.75C53.588 113.918 55.0397 113.842 56.3129 114.488C56.4472 114.096 56.154 113.651 56.2882 113.252C56.373 113.005 56.6061 112.844 56.765 112.636C56.9786 112.318 57.085 111.941 57.0688 111.558C57.075 111.059 56.9863 110.564 56.8074 110.098C56.6573 109.709 56.4419 109.326 56.4542 108.909C56.4542 108.705 56.5266 108.489 56.4436 108.3C56.3867 108.192 56.3093 108.095 56.2158 108.016C55.688 107.438 55.3637 106.703 55.2922 105.923C55.2233 105.15 55.2482 104.37 55.3664 103.603C55.4529 102.872 55.5695 102.1 56.0339 101.529C55.8185 99.7998 55.9451 98.0448 56.4065 96.364C56.4525 96.2086 56.5249 96.0284 56.6838 95.9913C56.7469 95.9849 56.8107 95.9937 56.8697 96.0171C56.9287 96.0404 56.9813 96.0776 57.0229 96.1256C57.3001 96.3852 57.4326 96.7613 57.5527 97.1216C57.6851 97.5118 57.8193 97.9286 57.7187 98.3277C57.6763 98.5043 57.5915 98.6597 57.5421 98.8293C57.4346 99.17 57.4534 99.5379 57.595 99.8659C57.6641 99.9857 57.7074 100.119 57.7222 100.256C57.7058 100.374 57.67 100.489 57.6162 100.595C57.5507 100.804 57.5299 101.025 57.5552 101.242C57.5804 101.46 57.6512 101.669 57.7628 101.858C57.9879 102.233 58.2656 102.574 58.5875 102.87C58.4337 103.548 58.4735 104.255 58.7023 104.911C58.7188 104.941 58.7293 104.973 58.7333 105.007C58.7372 105.041 58.7345 105.075 58.7253 105.107C58.6935 105.174 58.6122 105.199 58.5487 105.247C58.3721 105.392 58.4816 105.665 58.5999 105.854C58.9242 106.373 59.2822 106.87 59.6718 107.341C60.025 107.763 59.9932 108.577 60.5195 108.729C60.7406 108.777 60.9694 108.777 61.1906 108.729C61.7098 108.65 62.289 108.5 62.5433 108.041C62.6475 107.852 62.6899 107.622 62.8523 107.481C63.0148 107.339 63.225 107.315 63.315 107.145C63.4051 106.976 63.3044 106.753 63.3345 106.557C63.3645 106.361 63.5358 106.204 63.5905 105.997C63.7212 105.521 63.1649 105.128 63.089 104.641C62.9795 103.935 63.8695 103.405 63.8325 102.699C63.7548 101.164 63.7053 99.6222 63.6258 98.0876C63.5261 96.7129 63.512 95.3334 63.5835 93.9569C63.6453 93.1004 63.7601 92.2033 63.4457 91.4069C62.9936 90.2837 61.7468 89.6533 60.5407 89.5332C59.3345 89.4131 58.1319 89.6992 56.9363 89.8864C54.9521 90.1922 52.9361 90.2343 50.9408 90.0118Z" fill="#3F3D56"/>
<path d="M54.5259 73.1325C56.0883 73.1325 57.355 71.8659 57.355 70.3035C57.355 68.741 56.0883 67.4744 54.5259 67.4744C52.9634 67.4744 51.6968 68.741 51.6968 70.3035C51.6968 71.8659 52.9634 73.1325 54.5259 73.1325Z" fill="#FBBEBE"/>
<path d="M53.3747 73.6605C53.2786 73.8843 53.117 74.0737 52.9111 74.2039C52.7053 74.3341 52.4649 74.3989 52.2215 74.3898C52.1191 74.8137 52.3645 75.241 52.6453 75.5748C53.2284 76.2533 53.9819 76.764 54.8281 77.0542C55.6743 77.3445 56.5826 77.4038 57.4594 77.226C57.8005 77.1649 58.1242 77.0299 58.4077 76.8304C58.7898 76.5113 59.0464 76.067 59.1317 75.5765C59.213 75.0895 59.2361 74.5945 59.2006 74.102C59.2105 74.0047 59.1827 73.9073 59.1229 73.83C59.0523 73.7753 58.965 73.7466 58.8757 73.7488C58.2788 73.6958 57.6554 73.6728 57.1309 73.3797C56.6064 73.0865 56.2338 72.4243 56.4863 71.8804C56.4457 71.9651 55.4144 72.0058 55.2784 72.0234C54.8528 72.0835 54.4272 72.1506 54.0034 72.2283C53.7997 72.2394 53.5984 72.2774 53.4047 72.3413C53.1486 72.4737 53.244 72.4084 53.304 72.6486C53.3941 73.0159 53.5265 73.279 53.3747 73.6605Z" fill="#FBBEBE"/>
<path d="M55.5277 75.3807C55.1467 75.385 54.7665 75.343 54.3957 75.2553C54.0213 75.1678 53.6913 74.9476 53.4668 74.6354C53.3361 74.4376 53.2514 74.1886 53.043 74.0774C52.7021 73.9008 52.3136 74.1992 52.0417 74.4729C51.794 74.7429 51.5071 74.9739 51.1905 75.1581C50.8125 75.3577 50.3711 75.4283 50.0143 75.6632C49.7356 75.8738 49.4965 76.1321 49.3079 76.4261L46.8056 79.8344C45.8007 81.2048 44.9266 82.6759 44.0312 84.1222C43.2559 85.3743 42.8498 86.8153 42.2652 88.1663C42.2189 88.249 42.1998 88.3441 42.2105 88.4383C42.2317 88.5301 42.3429 88.6043 42.4206 88.5513C42.1575 88.8127 42.3889 89.2577 42.327 89.625C42.2568 89.882 42.1102 90.1117 41.9067 90.2837C42.2954 90.233 42.69 90.2515 43.0723 90.3385C43.4673 90.4504 43.8401 90.6296 44.1743 90.8683C44.3879 90.8347 44.3685 90.455 44.5274 90.3137C44.6228 90.2307 44.7641 90.2413 44.8895 90.2166C45.361 90.1248 45.5482 89.5579 45.9102 89.2383C46.2122 88.9716 46.6396 88.8851 46.9592 88.6343C47.4784 88.2264 47.5896 87.5005 47.8616 86.8983C48.0929 86.388 48.4567 85.943 48.6598 85.4202C48.7923 85.0812 48.8558 84.7138 49.0448 84.4013C49.3468 83.8962 49.9154 83.6278 50.4576 83.3858C50.8002 83.2322 51.164 83.0732 51.5331 83.098C51.5136 83.9191 51.4094 84.728 51.5878 85.5297C51.6496 85.8123 51.7362 86.0878 51.8103 86.3686C52.1476 87.633 52.2271 88.9504 52.243 90.2537C53.0544 90.068 53.8831 89.9686 54.7154 89.957C55.3705 89.9376 56.0239 90.0224 56.6791 90.01C57.4561 89.9959 58.2243 89.8458 59.0014 89.7928C59.7784 89.7398 60.5907 89.7928 61.2777 90.146C61.2219 89.0268 61.2532 87.905 61.3713 86.7906L61.5585 85.0352C61.6007 84.5252 61.6792 84.0189 61.7934 83.52C61.8958 83.1174 62.0441 82.7289 62.1572 82.328C62.5545 80.9152 62.4821 79.4071 62.4062 77.936C62.3673 77.1802 62.0759 76.4367 61.7333 75.7639C61.6093 75.514 61.4677 75.2732 61.3095 75.0434C60.8955 74.473 60.3438 74.0167 59.7058 73.7172C59.0678 73.4176 58.3643 73.2845 57.661 73.3304C57.5712 73.3331 57.4826 73.3523 57.3996 73.3869C57.2506 73.4823 57.1341 73.6209 57.0659 73.7842C56.7005 74.4409 56.1704 74.9911 55.5277 75.3807Z" fill="#3F3D56"/>
<path d="M52.0379 71.2412C52.1173 71.0646 52.331 70.9993 52.4617 70.858C52.7125 70.5896 52.5994 70.1604 52.6383 69.7984C52.7019 69.2686 53.1416 68.8254 53.6449 68.6364C54.1582 68.4717 54.7043 68.4371 55.2343 68.5357C55.4894 68.5544 55.7358 68.6363 55.9513 68.7741C56.0431 68.8413 56.1279 68.9278 56.2144 68.9896C56.3721 69.0849 56.5609 69.1148 56.7404 69.0729C56.9199 69.031 57.0759 68.9206 57.1751 68.7653C56.5499 68.013 55.8577 67.2183 54.9076 66.987C54.5816 66.9204 54.2495 66.8891 53.9169 66.8934C53.4771 66.8845 53.0233 66.8775 52.6171 67.0453C52.0644 67.2731 51.6758 67.7976 51.4763 68.3627C51.3018 68.9355 51.2084 69.5299 51.199 70.1286C51.1628 70.5281 51.1628 70.93 51.199 71.3295C51.2673 71.875 51.47 72.3951 51.7889 72.8429C51.832 72.9125 51.893 72.9692 51.9655 73.0072C52.7707 73.3604 51.9725 71.3878 52.0379 71.2412Z" fill="#3F3D56"/>
<path d="M57.0833 68.3291C56.9862 67.4974 56.3928 66.8104 55.7624 66.2577C55.2542 65.7784 54.6489 65.414 53.9876 65.1892C53.3218 64.9932 52.5554 65.0356 51.985 65.4329C51.5258 65.7526 51.2344 66.2612 51.0101 66.7733C50.7155 67.3777 50.5696 68.0437 50.5845 68.7159C50.6287 69.3834 50.9536 70.0598 51.5329 70.3971C51.7413 70.0898 52.1033 69.9309 52.4512 69.8055C53.9675 69.2302 55.5138 68.7374 57.0833 68.3291Z" fill="#FED253"/>
<path opacity="0.1" d="M51.7267 67.983C51.7832 67.983 51.8203 68.0413 51.8486 68.089C51.9924 68.313 52.1159 68.5494 52.2177 68.7953C52.0111 68.8395 51.6561 68.8889 51.5537 68.7071C51.4989 68.6152 51.5643 67.9742 51.7267 67.983Z" fill="black"/>
<path opacity="0.1" d="M55.7527 67.5839C55.7103 67.6246 55.6608 67.5416 55.6608 67.4815V66.7963C55.6597 66.7773 55.664 66.7583 55.6732 66.7416C55.6805 66.7332 55.6894 66.7264 55.6995 66.7215C55.7095 66.7167 55.7204 66.7139 55.7315 66.7133C55.8745 66.6974 55.9928 66.8193 56.0847 66.9358C56.224 67.1247 56.3452 67.3264 56.4467 67.538L55.6997 67.5151" fill="black"/>
<path d="M65.0739 78.9303C65.2365 78.7761 65.41 78.6338 65.5931 78.5047C66.0823 78.178 66.6739 78.0491 67.2231 77.8407C67.7724 77.6323 68.3304 77.295 68.5441 76.7476C68.6511 76.4053 68.6859 76.0445 68.6465 75.688C68.6516 75.5388 68.6252 75.3901 68.5688 75.2518C68.5016 75.1296 68.4059 75.0254 68.2898 74.9481C67.5445 74.3971 66.545 74.3529 65.6196 74.4094C63.5795 74.536 61.5798 75.0351 59.7195 75.8823C59.6211 75.9148 59.5349 75.9764 59.4723 76.0589C59.436 76.1354 59.4197 76.2198 59.4246 76.3043C59.3917 76.8251 59.4594 77.3474 59.6241 77.8425C59.8678 78.4712 60.3694 78.978 60.5795 79.6191C60.6749 79.9069 60.7067 80.2124 60.7897 80.5021C60.8578 80.8012 61.0347 81.0643 61.2859 81.2402C61.9835 81.657 62.6422 81.0972 63.1261 80.6628L65.0739 78.9303Z" fill="#3F3D56"/>
<path d="M55.9392 81.3761L55.0438 79.4229C54.9125 79.1523 54.7993 78.8732 54.7047 78.5876C54.6023 78.2468 54.5529 77.8936 54.4575 77.551C54.1432 76.4102 53.3502 75.4601 52.9635 74.3422C52.939 74.2413 52.8892 74.1483 52.8187 74.072C52.7622 74.0321 52.6977 74.0051 52.6296 73.9929C52.5616 73.9807 52.4917 73.9836 52.4249 74.0014C51.8845 74.095 51.4624 74.5065 50.9679 74.7396C50.7384 74.8455 50.4911 74.9162 50.2615 75.038C50.1468 75.0924 50.0451 75.1708 49.9634 75.2681C49.8818 75.3653 49.822 75.479 49.7883 75.6014C49.7335 75.8716 49.8677 76.1312 49.9808 76.3943C50.4611 77.4786 50.5706 78.6901 50.5918 79.8768C50.6077 80.675 50.5671 81.5315 50.0955 82.1726C49.1896 83.4088 49.7688 85.2242 50.1079 86.72C50.1485 86.8966 50.1962 87.0873 50.2245 87.2745C50.2543 87.5087 50.2679 87.7447 50.2651 87.9809C50.2651 88.7738 50.2209 89.5914 49.8889 90.3102C50.2167 90.4846 50.578 90.5869 50.9485 90.6104C51.974 90.7411 53.0035 90.8329 54.0372 90.8859C54.3611 90.9163 54.6876 90.8997 55.0067 90.8364C55.3857 90.734 55.7197 90.5083 55.956 90.1949C56.1923 89.8815 56.3175 89.4983 56.3118 89.1058C56.3683 89.595 56.4725 90.1265 56.8274 90.4656C57.1824 90.8047 57.6998 90.8559 58.1819 90.8824C59.5426 90.9545 60.9069 90.9161 62.2613 90.7676C62.3478 90.7637 62.4328 90.7439 62.5121 90.7093C62.7735 90.5786 62.7876 90.2183 62.7664 89.9287C62.7276 89.3866 62.6869 88.8444 62.6216 88.3058C62.5662 87.9624 62.5379 87.6152 62.5368 87.2674C62.5638 86.9096 62.6229 86.555 62.7134 86.2078C62.9501 85.1058 63.1373 83.9809 63.0578 82.8525C63.0264 82.5776 63.0152 82.3008 63.0242 82.0242C63.0702 81.4008 63.3986 80.8075 63.3368 80.1876C63.1602 78.3651 63.0172 76.495 62.5086 74.736C62.4167 74.4217 62.3002 74.0844 62.0265 73.9043C61.6733 73.6676 61.177 73.7913 60.7726 73.6411C60.5829 73.5528 60.4024 73.4458 60.234 73.3215C59.8681 73.0926 59.4486 72.9636 59.0172 72.9471C58.6923 72.9348 58.3303 73.0072 58.1343 73.2685C58.0435 73.4157 57.9834 73.5797 57.9577 73.7506C57.7016 74.8279 57.4014 75.8928 57.1012 76.9576L56.8133 77.9784L56.0416 80.7192C55.9656 81.0106 56.0169 81.1006 55.9392 81.3761Z" fill="#76ACFF"/>
<path d="M60.4547 70.6831L77.537 88.6342V90.1565H69.9204L57.0835 73.4027" fill="#F1C0C0"/>
<path opacity="0.1" d="M60.4547 70.6831L77.537 88.6342V90.1565H69.9204L57.0835 73.4027" fill="black"/>
<path opacity="0.1" d="M57.3555 73.166L57.4102 73.1854L70.0299 88.6342H77.537V90.1565H69.9204L57.0835 73.4027L57.3555 73.166Z" fill="black"/>
<path d="M59.3202 73.5442C58.7021 73.8144 58.0152 74.1605 57.8297 74.8104C57.7931 74.9244 57.7852 75.0457 57.8068 75.1636C57.852 75.3021 57.9381 75.4237 58.0538 75.5123C58.1695 75.6009 58.3094 75.6523 58.4549 75.6598C58.7457 75.6668 59.0349 75.6139 59.3043 75.5044L62.9511 74.3C63.05 74.2682 63.163 74.2205 63.1877 74.1234C63.1941 74.0623 63.1817 74.0007 63.1524 73.9468C63.0394 73.6713 62.9281 73.108 62.6915 72.9155C62.4972 72.7601 62.1122 72.8148 61.8774 72.8183C60.9732 72.8254 60.1237 73.191 59.3202 73.5442Z" fill="#76ACFF"/>
<path d="M62.5718 74.4429C63.1861 74.4412 63.7969 74.5359 64.3819 74.7237C64.9695 74.9145 65.4899 75.27 65.8812 75.748C65.9952 75.8816 66.0762 76.0401 66.1178 76.2107C66.1532 76.3873 66.7289 76.4933 66.6017 76.6133C66.9885 76.5515 66.8966 76.7334 67.2887 76.7299C67.6807 76.7264 68.1046 76.6257 68.3394 76.3131C68.5026 76.0563 68.5753 75.7524 68.5461 75.4496C68.5512 75.2399 68.5115 75.0316 68.4295 74.8385C68.2529 74.4677 67.8467 74.2681 67.4723 74.0968L64.3183 72.654C64.1353 72.5567 63.939 72.4871 63.7355 72.4474C63.5644 72.4312 63.3919 72.4354 63.2216 72.4598L61.793 72.624C62.1054 72.8262 62.3598 73.1063 62.531 73.4367C62.7023 73.7671 62.7845 74.1364 62.7696 74.5083" fill="#3F3D56"/>
</g>
<defs>
<clipPath id="clip0_738_5466">
<rect width="208" height="127.94" fill="white"/>
</clipPath>
</defs>
</svg>
