<svg width="19" height="18" viewBox="0 0 19 18" fill="none" xmlns="http://www.w3.org/2000/svg">
<path d="M16.25 2H14.25V0H4.25V2H2.25C1.15 2 0.25 2.9 0.25 4V5C0.25 7.55 2.17 9.63 4.64 9.94C5.27 11.44 6.62 12.57 8.25 12.9V16H4.25V18H14.25V16H10.25V12.9C11.88 12.57 13.23 11.44 13.86 9.94C16.33 9.63 18.25 7.55 18.25 5V4C18.25 2.9 17.35 2 16.25 2ZM2.25 5V4H4.25V7.82C3.09 7.4 2.25 6.3 2.25 5ZM9.25 11C7.6 11 6.25 9.65 6.25 8V2H12.25V8C12.25 9.65 10.9 11 9.25 11ZM16.25 5C16.25 6.3 15.41 7.4 14.25 7.82V4H16.25V5Z" fill="#ABABAF"/>
</svg>
