<svg version="1.1" id="Layer_1" xmlns="http://www.w3.org/2000/svg" xmlns:xlink="http://www.w3.org/1999/xlink" x="0px" y="0px"
	 width="100%" viewBox="0 0 96 96" enable-background="new 0 0 96 96" xml:space="preserve">
<path fill="#000000" opacity="0.000000" stroke="none"
	d="
M63.000000,97.000000 
	C42.000000,97.000000 21.500000,97.000000 1.000000,97.000000 
	C1.000000,65.000000 1.000000,33.000000 1.000000,1.000000 
	C33.000000,1.000000 65.000000,1.000000 97.000000,1.000000 
	C97.000000,33.000000 97.000000,65.000000 97.000000,97.000000 
	C85.833336,97.000000 74.666664,97.000000 63.000000,97.000000 
M71.676041,84.716148 
	C75.363457,82.304893 80.083794,80.658852 82.543762,77.338272 
	C89.796234,67.548531 94.525024,56.167629 91.644135,43.983620 
	C89.623123,35.436199 86.427498,25.753458 80.490181,19.878815 
	C71.751846,11.232719 60.276463,4.766155 46.564346,8.079073 
	C38.120434,10.119165 28.730032,9.934772 22.440945,17.562860 
	C17.458366,23.606268 11.839718,29.272560 10.483947,37.956470 
	C10.404528,38.284950 10.325109,38.613430 10.070637,39.861332 
	C10.104335,43.906796 10.138033,47.952255 10.047327,52.784000 
	C10.214248,55.945621 9.875671,59.236832 10.646468,62.243649 
	C12.654096,70.075256 17.549908,76.009979 24.679581,81.047867 
	C25.988737,82.430565 27.041376,84.441429 28.647356,85.097260 
	C42.315998,90.679039 56.100742,94.872025 70.513870,85.740540 
	C70.796761,85.555893 70.974648,85.298615 71.676041,84.716148 
z"/>
<path fill="#4B6AAD" opacity="1.000000" stroke="none"
	d="
M10.171729,51.997719 
	C10.138033,47.952255 10.104335,43.906796 10.281813,39.191734 
	C10.649089,38.236046 10.784682,37.940544 10.899768,37.635628 
	C11.839718,29.272560 17.458366,23.606268 22.440945,17.562860 
	C28.730032,9.934772 38.120434,10.119165 46.564346,8.079073 
	C60.276463,4.766155 71.751846,11.232719 80.490181,19.878815 
	C86.427498,25.753458 89.623123,35.436199 91.644135,43.983620 
	C94.525024,56.167629 89.796234,67.548531 82.543762,77.338272 
	C80.083794,80.658852 75.363457,82.304893 71.186577,84.966980 
	C70.468285,85.387329 70.248268,85.567604 70.037064,85.758629 
	C56.100742,94.872025 42.315998,90.679039 28.647356,85.097260 
	C27.041376,84.441429 25.988737,82.430565 24.493515,80.516228 
	C24.290588,75.740662 24.273729,71.496742 24.573139,67.411484 
	C26.280321,68.834984 27.671234,70.099815 29.199003,71.484085 
	C29.524811,71.755615 29.724257,71.892418 29.961374,72.000725 
	C29.988554,71.987526 29.994553,72.047653 30.167507,72.211395 
	C30.577497,72.586998 30.825949,72.784500 31.396503,73.112671 
	C33.234291,74.719238 34.761387,76.180771 36.340607,77.691368 
	C36.392727,77.740425 36.615452,77.926361 36.744736,77.940521 
	C36.874020,77.954674 37.021652,78.168839 37.165211,78.312599 
	C37.507320,78.641876 37.715385,78.816032 38.255196,79.128571 
	C43.209850,79.541878 47.840462,79.977104 52.475147,80.025917 
	C58.380661,80.088135 64.517311,81.277664 68.702141,74.887650 
	C71.920433,69.973473 79.176743,68.415123 79.998337,61.215225 
	C80.648109,55.521118 81.968010,49.905811 82.852196,44.233978 
	C83.012154,43.207848 82.790367,41.903576 82.256798,41.023655 
	C78.935333,35.546246 75.482353,30.148371 72.052109,24.737364 
	C71.563095,23.965965 71.100327,22.829468 70.389030,22.602396 
	C64.535233,20.733643 58.629200,19.027464 52.730103,17.302427 
	C51.343903,16.897074 49.705193,15.974135 48.556282,16.370989 
	C42.739262,18.380283 37.040726,20.734341 31.314278,23.001951 
	C30.571037,23.296265 29.604609,23.613356 29.251661,24.217768 
	C24.874065,31.714283 20.591078,39.266048 16.001287,47.015785 
	C13.869802,48.817894 12.020765,50.407806 10.171729,51.997719 
z"/>
<path fill="#4B69AC" opacity="1.000000" stroke="none"
	d="
M10.109528,52.390862 
	C12.020765,50.407806 13.869802,48.817894 16.324404,46.950809 
	C17.620190,47.006855 18.816704,47.227058 18.920317,47.691223 
	C19.729511,51.316254 19.894938,55.142864 21.127026,58.597721 
	C22.153284,61.475414 19.857304,65.639565 24.256870,67.252815 
	C24.273729,71.496742 24.290588,75.740662 24.202766,80.308289 
	C17.549908,76.009979 12.654096,70.075256 10.646468,62.243649 
	C9.875671,59.236832 10.214248,55.945621 10.109528,52.390862 
z"/>
<path fill="#4B69AC" opacity="1.000000" stroke="none"
	d="
M10.691857,37.796051 
	C10.784682,37.940544 10.649089,38.236046 10.369339,38.732025 
	C10.325109,38.613430 10.404528,38.284950 10.691857,37.796051 
z"/>
<path fill="#4B69AC" opacity="1.000000" stroke="none"
	d="
M70.275467,85.749588 
	C70.248268,85.567604 70.468285,85.387329 70.872314,85.093246 
	C70.974648,85.298615 70.796761,85.555893 70.275467,85.749588 
z"/>
<path fill="#000000" opacity="0.000000" stroke="none"
	d="
M24.573139,67.411484 
	C19.857304,65.639565 22.153284,61.475414 21.127026,58.597721 
	C19.894938,55.142864 19.729511,51.316254 18.920317,47.691223 
	C18.816704,47.227058 17.620190,47.006855 16.606853,46.738613 
	C20.591078,39.266048 24.874065,31.714283 29.251661,24.217768 
	C29.604609,23.613356 30.571037,23.296265 31.314278,23.001951 
	C37.040726,20.734341 42.739262,18.380283 48.556282,16.370989 
	C49.705193,15.974135 51.343903,16.897074 52.730103,17.302427 
	C58.629200,19.027464 64.535233,20.733643 70.389030,22.602396 
	C71.100327,22.829468 71.563095,23.965965 72.052109,24.737364 
	C75.482353,30.148371 78.935333,35.546246 82.256798,41.023655 
	C82.790367,41.903576 83.012154,43.207848 82.852196,44.233978 
	C81.968010,49.905811 80.648109,55.521118 79.998337,61.215225 
	C79.176743,68.415123 71.920433,69.973473 68.702141,74.887650 
	C64.517311,81.277664 58.380661,80.088135 52.475147,80.025917 
	C47.840462,79.977104 43.209850,79.541878 38.185921,78.913391 
	C37.616001,78.260689 37.358414,78.134148 37.021652,78.168839 
	C37.021652,78.168839 36.874020,77.954674 36.745674,77.845490 
	C36.617325,77.736298 36.288483,77.642311 36.288483,77.642311 
	C34.761387,76.180771 33.234291,74.719238 31.290863,72.878799 
	C30.581205,72.349152 30.287878,72.198402 29.994553,72.047653 
	C29.994553,72.047653 29.988554,71.987526 29.870676,71.825882 
	C29.584908,71.420723 29.354691,71.320862 29.062147,71.364655 
	C27.671234,70.099815 26.280321,68.834984 24.573139,67.411484 
M40.441776,37.954559 
	C33.210232,43.341835 33.803082,54.117092 37.527935,59.838638 
	C41.370678,65.741280 50.547466,67.952538 57.449482,65.137840 
	C63.429100,62.699299 66.346642,58.228149 66.987381,51.981323 
	C67.705292,44.982197 64.871040,39.594463 59.009769,36.143784 
	C52.909962,32.552670 46.725922,33.048683 40.441776,37.954559 
z"/>
<path fill="#4B69AC" opacity="1.000000" stroke="none"
	d="
M29.199003,71.484085 
	C29.354691,71.320862 29.584908,71.420723 29.843496,71.839081 
	C29.724257,71.892418 29.524811,71.755615 29.199003,71.484085 
z"/>
<path fill="#4B69AC" opacity="1.000000" stroke="none"
	d="
M30.167505,72.211395 
	C30.287878,72.198402 30.581205,72.349152 30.980173,72.733772 
	C30.825949,72.784500 30.577497,72.586998 30.167505,72.211395 
z"/>
<path fill="#4B69AC" opacity="1.000000" stroke="none" 
	d="
M36.340607,77.691368 
	C36.288483,77.642311 36.617325,77.736298 36.616386,77.831329 
	C36.615452,77.926361 36.392727,77.740425 36.340607,77.691368 
z"/>
<path fill="#4B69AC" opacity="1.000000" stroke="none" 
	d="
M37.165211,78.312599 
	C37.358414,78.134148 37.616001,78.260689 37.863686,78.763641 
	C37.715385,78.816032 37.507320,78.641876 37.165211,78.312599 
z"/>
<path fill="#E75725" opacity="1.000000" stroke="none" 
	d="
M40.736992,37.723488 
	C46.725922,33.048683 52.909962,32.552670 59.009769,36.143784 
	C64.871040,39.594463 67.705292,44.982197 66.987381,51.981323 
	C66.346642,58.228149 63.429100,62.699299 57.449482,65.137840 
	C50.547466,67.952538 41.370678,65.741280 37.527935,59.838638 
	C33.803082,54.117092 33.210232,43.341835 40.736992,37.723488 
z"/>
</svg>