<svg version="1.1" id="Layer_1" xmlns="http://www.w3.org/2000/svg" xmlns:xlink="http://www.w3.org/1999/xlink" x="0px" y="0px"
	 width="100%" viewBox="0 0 96 96" enable-background="new 0 0 96 96" xml:space="preserve">
<path fill="#010000" opacity="0.000000" stroke="none"
	d="
M58.000000,97.000000 
	C38.666672,97.000000 19.833340,97.000000 1.000008,97.000000 
	C1.000005,65.000008 1.000005,33.000019 1.000003,1.000021 
	C32.999985,1.000014 64.999969,1.000014 96.999969,1.000007 
	C96.999977,32.999981 96.999977,64.999962 96.999985,96.999969 
	C84.166664,97.000000 71.333336,97.000000 58.000000,97.000000 
M62.657681,29.176813 
	C56.561287,23.786177 45.277779,22.010303 40.837761,24.783525 
	C45.330189,27.788710 50.915348,30.489252 55.156654,34.582321 
	C63.435482,42.571785 61.319496,56.946304 51.103447,61.134140 
	C48.838573,59.658615 45.639774,58.664116 44.564266,56.575993 
	C43.426220,54.366455 44.308819,51.116154 44.308819,47.804462 
	C42.252594,49.407391 40.430546,50.827763 37.933540,52.774300 
	C37.933540,49.771420 37.933540,47.645508 37.933540,45.154888 
	C35.714649,47.073349 33.952717,48.596725 32.048012,49.413250 
	C32.238377,47.709805 32.428741,46.006359 32.619102,44.302917 
	C32.382809,44.131824 32.146515,43.960735 31.910219,43.789642 
	C30.328707,45.906593 28.747194,48.023544 26.553579,50.959831 
	C27.062504,46.685669 27.457312,43.369904 27.854031,40.038094 
	C21.864449,43.276852 19.084063,49.341305 20.348328,56.297440 
	C22.772243,69.634102 32.783924,78.183517 46.168900,78.635803 
	C59.366592,79.081749 71.599403,69.985893 73.864487,56.166382 
	C74.012520,55.018551 74.199654,53.874203 74.302406,52.722336 
	C75.145790,43.268661 70.215179,33.285675 62.657681,29.176813 
M61.738274,13.009984 
	C57.614883,13.289909 55.842758,16.127075 57.042828,19.414604 
	C57.856468,21.643524 60.763680,24.233063 63.027725,24.546967 
	C66.520782,25.031271 68.802361,22.010351 68.742264,18.479973 
	C68.680092,14.827746 66.428986,12.774819 61.738274,13.009984 
M71.496490,25.790287 
	C68.939560,28.044315 68.724663,30.665091 71.288956,32.748886 
	C72.338097,33.601440 75.155281,33.789989 76.004211,33.011444 
	C77.182419,31.930922 78.244339,28.912838 77.596260,28.057295 
	C76.503235,26.614359 74.028702,26.217915 71.496490,25.790287 
M75.230949,43.184601 
	C76.754562,43.630768 78.348549,44.536366 79.770470,44.318573 
	C80.427010,44.218014 81.237442,41.848904 81.056152,40.647465 
	C80.924843,39.777206 78.604210,38.354336 78.413147,38.518677 
	C77.127846,39.624222 76.150986,41.088364 75.230949,43.184601 
z"/>
<path fill="#E01277" opacity="1.000000" stroke="none" 
	d="
M73.631981,56.937622 
	C71.599403,69.985893 59.366592,79.081749 46.168900,78.635803 
	C32.783924,78.183517 22.772243,69.634102 20.348328,56.297440 
	C19.084063,49.341305 21.864449,43.276852 27.854031,40.038094 
	C27.457312,43.369904 27.062504,46.685669 26.553579,50.959831 
	C28.747194,48.023544 30.328707,45.906593 31.910219,43.789642 
	C32.146515,43.960735 32.382809,44.131824 32.619102,44.302917 
	C32.428741,46.006359 32.238377,47.709805 32.074844,50.168995 
	C32.166992,60.359802 40.388844,68.984398 50.164322,70.054047 
	C61.145348,71.255615 68.463852,66.057983 73.631981,56.937622 
z"/>
<path fill="#F3CC0B" opacity="1.000000" stroke="none" 
	d="
M73.748230,56.552002 
	C68.463852,66.057983 61.145348,71.255615 50.164322,70.054047 
	C40.388844,68.984398 32.166992,60.359802 32.146233,50.522423 
	C33.952717,48.596725 35.714649,47.073349 37.933540,45.154888 
	C37.933540,47.645508 37.933540,49.771420 37.933540,52.774300 
	C40.430546,50.827763 42.252594,49.407391 44.308819,47.804462 
	C44.308819,51.116154 43.426220,54.366455 44.564266,56.575993 
	C45.639774,58.664116 48.838573,59.658615 51.785412,61.338310 
	C61.593365,62.689041 70.170212,51.411407 66.355270,39.210472 
	C65.357704,36.020054 64.110184,32.907784 62.977455,29.759624 
	C70.215179,33.285675 75.145790,43.268661 74.302406,52.722336 
	C74.199654,53.874203 74.012520,55.018551 73.748230,56.552002 
z"/>
<path fill="#6DB741" opacity="1.000000" stroke="none" 
	d="
M62.817566,29.468220 
	C64.110184,32.907784 65.357704,36.020054 66.355270,39.210472 
	C70.170212,51.411407 61.593365,62.689041 52.158447,61.372635 
	C61.319496,56.946304 63.435482,42.571785 55.156654,34.582321 
	C50.915348,30.489252 45.330189,27.788710 40.837761,24.783525 
	C45.277779,22.010303 56.561287,23.786177 62.817566,29.468220 
z"/>
<path fill="#6AB442" opacity="1.000000" stroke="none" 
	d="
M62.141289,13.006974 
	C66.428986,12.774819 68.680092,14.827746 68.742264,18.479973 
	C68.802361,22.010351 66.520782,25.031271 63.027725,24.546967 
	C60.763680,24.233063 57.856468,21.643524 57.042828,19.414604 
	C55.842758,16.127075 57.614883,13.289909 62.141289,13.006974 
z"/>
<path fill="#E2C00B" opacity="1.000000" stroke="none" 
	d="
M71.815834,25.585823 
	C74.028702,26.217915 76.503235,26.614359 77.596260,28.057295 
	C78.244339,28.912838 77.182419,31.930922 76.004211,33.011444 
	C75.155281,33.789989 72.338097,33.601440 71.288956,32.748886 
	C68.724663,30.665091 68.939560,28.044315 71.815834,25.585823 
z"/>
<path fill="#D11272" opacity="1.000000" stroke="none" 
	d="
M75.152573,42.810463 
	C76.150986,41.088364 77.127846,39.624222 78.413147,38.518677 
	C78.604210,38.354336 80.924843,39.777206 81.056152,40.647465 
	C81.237442,41.848904 80.427010,44.218014 79.770470,44.318573 
	C78.348549,44.536366 76.754562,43.630768 75.152573,42.810463 
z"/>
</svg>