<svg width="252" height="232" viewBox="0 0 252 232" fill="none" xmlns="http://www.w3.org/2000/svg">
<g clip-path="url(#clip0_749_9393)">
<path d="M109.166 12.3407C107.112 15.8796 110.98 21.8424 107.082 23.0807L107.403 22.7595C109.756 19.8649 104.838 13.7385 107.191 10.8439C107.557 10.4193 107.87 9.95278 108.126 9.4541" fill="#2F2E41"/>
<path d="M128.406 64.2592C128.473 63.905 128.462 63.5404 128.373 63.1911C128.284 62.8417 128.12 62.516 127.892 62.237C127.664 61.958 127.377 61.7324 127.052 61.5762C126.727 61.42 126.372 61.3369 126.012 61.3328L120.934 46.5801L118.123 50.1627L123.492 63.9474C123.525 64.5534 123.779 65.1262 124.207 65.5571C124.634 65.9881 125.205 66.2474 125.81 66.2859C126.416 66.3243 127.015 66.1392 127.493 65.7657C127.971 65.3921 128.296 64.8561 128.406 64.2592L128.406 64.2592Z" fill="#FFB8B8"/>
<path d="M106.085 28.6405C106.085 28.6405 105.927 23.3002 110.702 26.3595C115.478 29.4187 125.875 58.0763 125.875 58.0763L120.701 60.8757L108.955 34.6508L106.085 28.6405Z" fill="#76ACFF"/>
<path d="M120.174 120.169L117.789 121.188L112.724 112.476L116.243 110.971L120.174 120.169Z" fill="#FFB6B6"/>
<path d="M123.197 123.763L121.487 124.494L120.492 123.01L120.4 124.958L115.865 126.896C115.647 126.989 115.406 127.01 115.176 126.956C114.946 126.902 114.739 126.776 114.585 126.596C114.432 126.416 114.34 126.192 114.323 125.956C114.306 125.72 114.365 125.485 114.491 125.285L117.044 121.236L116.347 119.604L120.254 118.203L123.197 123.763Z" fill="#2F2E41"/>
<path d="M82.7925 123.125L80.2025 122.998L79.458 112.948L83.281 113.134L82.7925 123.125Z" fill="#FFB6B6"/>
<path d="M83.9402 127.679L82.0827 127.588L81.8369 125.819L80.902 127.531L75.9756 127.29C75.7394 127.278 75.5132 127.192 75.3298 127.043C75.1464 126.893 75.0155 126.689 74.9563 126.46C74.897 126.232 74.9125 125.99 75.0004 125.77C75.0883 125.551 75.2441 125.365 75.445 125.241L79.5119 122.716L79.5985 120.943L83.7244 121.392L83.9402 127.679Z" fill="#2F2E41"/>
<path d="M159.108 121.523C159.279 121.53 159.449 121.483 159.593 121.39C159.737 121.297 159.849 121.161 159.914 121.002C159.979 120.843 159.993 120.668 159.955 120.501C159.917 120.333 159.828 120.182 159.701 120.066C159.679 119.983 159.663 119.923 159.641 119.839C159.801 119.42 160.083 119.059 160.45 118.802C160.816 118.544 161.252 118.402 161.7 118.394C162.148 118.385 162.588 118.511 162.964 118.754C163.34 118.998 163.635 119.348 163.811 119.76C164.826 122.073 166.133 124.465 165.518 127.03C169.652 118.048 168.111 106.94 161.804 99.3535C160.072 98.4206 158.659 96.7472 158.276 94.7923C159.132 95.0732 160.189 94.3693 159.539 93.477C159.258 93.1363 158.974 92.7983 158.693 92.4576C161.9 88.9763 165.811 94.3624 162.29 99.0533C163.47 100.505 164.496 102.076 165.35 103.741C165.139 101.966 165.353 100.167 165.973 98.4916C166.604 96.9295 167.8 95.6075 168.852 94.2523C170.131 92.601 172.802 93.3318 172.996 95.41C171.805 95.814 171.666 97.541 173.035 97.7642C172.714 101.637 170.22 105.217 166.755 106.947C168.075 110.542 168.613 114.377 168.335 118.197C168.907 113.73 173.684 112.602 177.014 110.798C177.226 110.659 177.473 110.585 177.727 110.585C177.98 110.584 178.227 110.658 178.439 110.795C178.652 110.933 178.819 111.13 178.921 111.362C179.023 111.593 179.056 111.849 179.015 112.099C178.555 112.291 178.115 112.529 177.702 112.808C177.508 112.941 177.361 113.13 177.279 113.35C177.197 113.571 177.186 113.811 177.246 114.038C177.306 114.265 177.434 114.467 177.614 114.618C177.794 114.769 178.016 114.861 178.25 114.88C176.603 119.072 172.268 121.917 167.789 121.944C167.376 123.818 166.77 125.645 165.979 127.395L159.331 127.458C159.306 127.384 159.284 127.308 159.262 127.234C159.878 127.267 160.495 127.225 161.101 127.107C159.454 125.195 158.186 124.224 159.108 121.524L159.108 121.523Z" fill="#F2F2F2"/>
<path d="M89.3356 57.7919C89.3356 57.7919 84.0684 72.1461 83.9833 73.7525C83.8982 75.3588 82.3961 95.6718 81.1363 96.8521C79.8765 98.0323 76.0249 116.331 79.0218 117.762C82.0187 119.193 91.4737 116.822 91.4737 116.822L94.7628 95.2075L95.8802 78.648C95.8802 78.648 99.2819 117.643 105.452 117.528C111.621 117.413 119.139 115.064 119.139 115.064L110.504 91.4484C110.504 91.4484 110.626 63.4908 108.624 57.8519C106.623 52.213 89.3356 57.7919 89.3356 57.7919Z" fill="#2F2E41"/>
<path d="M104.964 20.8098L97.9103 21.4559L96.7739 24.9443C96.7739 24.9443 90.8707 28.1862 92.1779 29.6591C93.485 31.1319 91.8856 41.0575 91.8856 41.0575L92.2468 49.1143C92.2468 49.1143 91.8588 54.6963 90.6975 55.9823C89.5362 57.2684 86.498 60.4221 88.6447 58.9133C96.1719 53.623 109.329 58.0869 109.329 58.0869L107.449 46.5748C107.449 46.5748 111.718 27.7268 110.033 26.135C108.349 24.5432 106.759 24.342 106.759 24.342L104.964 20.8098Z" fill="#76ACFF"/>
<path d="M67.899 57.3261C68.2534 57.2601 68.589 57.1172 68.8822 56.9075C69.1754 56.6978 69.419 56.4263 69.5959 56.1122C69.7729 55.7982 69.8788 55.4491 69.9062 55.0897C69.9337 54.7302 69.882 54.3691 69.7548 54.0318L81.652 43.9382L77.2928 42.6223L66.403 52.6351C65.8506 52.8863 65.4094 53.3315 65.1633 53.8863C64.9171 54.441 64.883 55.0668 65.0674 55.645C65.2518 56.2233 65.6419 56.7138 66.1638 57.0236C66.6856 57.3334 67.303 57.4411 67.899 57.3261Z" fill="#FFB8B8"/>
<path d="M98.1142 30.9242C98.1142 30.9242 100.458 26.1233 94.8465 26.9434C89.2348 27.7635 67.9541 49.5923 67.9541 49.5923L71.5155 54.2748L93.0229 35.2183L98.1142 30.9242Z" fill="#76ACFF"/>
<path d="M88.9751 22.7807L66.7257 51.2851C66.3408 51.7798 66.1677 52.4069 66.2444 53.0291C66.321 53.6512 66.6412 54.2175 67.1347 54.604C72.3016 67.1496 87.7595 76.4526 105.944 84.8968C106.438 85.2821 107.065 85.4554 107.688 85.3787C108.31 85.302 108.876 84.9816 109.263 84.4878L131.512 55.9833C131.897 55.4888 132.071 54.8615 131.994 54.2393C131.917 53.6171 131.597 53.0507 131.103 52.6644C115.843 44.0478 102.727 34.0646 92.294 22.3717C91.7993 21.9868 91.1721 21.8137 90.55 21.8904C89.9279 21.967 89.3616 22.2872 88.9751 22.7807Z" fill="#E6E6E6"/>
<path d="M129.951 55.3349L123.178 64.0113C119.041 69.2795 112.988 72.6965 106.339 73.5158C99.6913 74.3351 92.9891 72.4902 87.6969 68.3841L68.7172 53.5693C68.4361 53.3497 68.2535 53.0276 68.2095 52.6736C68.1655 52.3196 68.2638 51.9626 68.4827 51.681L89.9824 24.1371C90.2025 23.8563 90.5249 23.6744 90.879 23.6311C91.2331 23.5878 91.5899 23.6867 91.8711 23.9061C101.472 36.3038 114.324 45.9515 129.718 53.4481C129.999 53.6678 130.181 53.9897 130.225 54.3434C130.268 54.6971 130.17 55.0537 129.951 55.3349Z" fill="white"/>
<path d="M88.531 38.3415L84.1203 43.9921C84.0033 44.1417 83.8316 44.2388 83.643 44.262C83.4545 44.2851 83.2644 44.2325 83.1146 44.1156C82.9648 43.9987 82.8676 43.8271 82.8443 43.6385C82.821 43.4499 82.8735 43.2598 82.9902 43.11L87.4009 37.4594C87.4588 37.3851 87.5307 37.3229 87.6126 37.2764C87.6946 37.23 87.7848 37.2001 87.8783 37.1885C87.9718 37.177 88.0666 37.1839 88.1574 37.209C88.2482 37.2342 88.3331 37.2769 88.4074 37.3349C88.4816 37.3928 88.5437 37.4648 88.5901 37.5468C88.6365 37.6288 88.6663 37.7191 88.6778 37.8126C88.6893 37.9061 88.6822 38.0009 88.657 38.0916C88.6318 38.1824 88.589 38.2673 88.531 38.3415H88.531Z" fill="#CCCCCC"/>
<path d="M96.8049 34.15L87.1188 46.5592C87.0609 46.6334 86.9889 46.6955 86.907 46.7418C86.8251 46.7882 86.7348 46.818 86.6414 46.8296C86.548 46.8411 86.4532 46.8341 86.3625 46.809C86.2718 46.7838 86.1869 46.7411 86.1127 46.6832C86.0385 46.6253 85.9764 46.5533 85.93 46.4714C85.8836 46.3895 85.8538 46.2992 85.8423 46.2058C85.8308 46.1124 85.8378 46.0176 85.8629 45.9269C85.888 45.8361 85.9308 45.7513 85.9887 45.6771L95.6748 33.2679C95.7326 33.1935 95.8046 33.1313 95.8865 33.0847C95.9685 33.0382 96.0588 33.0083 96.1523 32.9967C96.2458 32.9851 96.3407 32.992 96.4315 33.0171C96.5224 33.0422 96.6074 33.085 96.6816 33.143C96.7559 33.201 96.8181 33.273 96.8645 33.355C96.9109 33.4371 96.9406 33.5274 96.9521 33.621C96.9635 33.7145 96.9564 33.8094 96.9312 33.9002C96.9059 33.9909 96.863 34.0759 96.8049 34.15H96.8049Z" fill="#CCCCCC"/>
<path d="M80.2848 54.8482C82.8924 54.8482 85.0062 52.7344 85.0062 50.1269C85.0062 47.5193 82.8924 45.4055 80.2848 45.4055C77.6773 45.4055 75.5635 47.5193 75.5635 50.1269C75.5635 52.7344 77.6773 54.8482 80.2848 54.8482Z" fill="#76ACFF"/>
<path d="M97.3192 43.9572L85.4228 59.1981C85.2986 59.3246 85.1323 59.4009 84.9555 59.4125C84.7787 59.4242 84.6037 59.3704 84.4641 59.2614C84.3244 59.1523 84.2297 58.9957 84.1981 58.8214C84.1665 58.647 84.2001 58.4671 84.2926 58.316L96.1891 43.0751C96.3133 42.9487 96.4796 42.8724 96.6564 42.8607C96.8332 42.849 97.0081 42.9028 97.1478 43.0119C97.2875 43.1209 97.3821 43.2775 97.4138 43.4519C97.4454 43.6262 97.4117 43.8061 97.3192 43.9572Z" fill="#CCCCCC"/>
<path d="M105.036 40.4775L88.4315 61.7501C88.3074 61.8765 88.1411 61.9528 87.9643 61.9645C87.7874 61.9762 87.6125 61.9223 87.4729 61.8133C87.3332 61.7043 87.2385 61.5477 87.2069 61.3733C87.1753 61.199 87.2089 61.0191 87.3014 60.868L103.906 39.5954C104.03 39.4689 104.196 39.3926 104.373 39.381C104.55 39.3693 104.725 39.4231 104.865 39.5321C105.004 39.6412 105.099 39.7978 105.131 39.9721C105.162 40.1465 105.129 40.3264 105.036 40.4775Z" fill="#CCCCCC"/>
<path d="M104.978 49.9362L93.0819 65.1771C92.9578 65.3036 92.7915 65.3799 92.6146 65.3915C92.4378 65.4032 92.2629 65.3494 92.1232 65.2404C91.9836 65.1313 91.8889 64.9747 91.8573 64.8004C91.8257 64.626 91.8593 64.4461 91.9518 64.295L103.848 49.0541C103.972 48.9277 104.139 48.8514 104.316 48.8397C104.492 48.828 104.667 48.8818 104.807 48.9909C104.947 49.0999 105.041 49.2565 105.073 49.4309C105.105 49.6052 105.071 49.7851 104.978 49.9362Z" fill="#CCCCCC"/>
<path d="M120.72 51.8159L108.823 67.0568C108.699 67.1832 108.533 67.2595 108.356 67.2712C108.179 67.2828 108.004 67.229 107.864 67.12C107.725 67.011 107.63 66.8544 107.598 66.68C107.567 66.5057 107.601 66.3258 107.693 66.1747L119.589 50.9337C119.714 50.8073 119.88 50.731 120.057 50.7193C120.234 50.7077 120.409 50.7615 120.548 50.8705C120.688 50.9795 120.783 51.1362 120.814 51.3105C120.846 51.4849 120.812 51.6647 120.72 51.8159Z" fill="#76ACFF"/>
<path d="M112.696 46.4565L96.0917 67.7291C95.9675 67.8555 95.8012 67.9318 95.6244 67.9435C95.4476 67.9551 95.2727 67.9013 95.133 67.7923C94.9933 67.6833 94.8987 67.5267 94.867 67.3523C94.8354 67.178 94.8691 66.9981 94.9616 66.847L111.566 45.5744C111.69 45.4479 111.857 45.3716 112.033 45.36C112.21 45.3483 112.385 45.4021 112.525 45.5111C112.665 45.6202 112.759 45.7768 112.791 45.9511C112.822 46.1255 112.789 46.3054 112.696 46.4565Z" fill="#CCCCCC"/>
<path d="M93.1387 11.8042C93.1382 12.9511 93.4194 14.0806 93.9574 15.0935C94.4953 16.1064 95.2737 16.9717 96.2242 17.6135C97.1747 18.2554 98.2682 18.6541 99.4088 18.7746C100.549 18.8952 101.702 18.7339 102.766 18.305C103.829 17.876 104.771 17.1926 105.509 16.3145C106.247 15.4365 106.758 14.3907 106.998 13.2691C107.237 12.1475 107.197 10.9842 106.882 9.88146C106.567 8.77871 105.986 7.77018 105.19 6.94442L105.156 6.91082C105.1 6.85194 105.044 6.7931 104.985 6.73703C104.985 6.73703 104.985 6.73696 104.984 6.73682C104.984 6.73669 104.984 6.73648 104.983 6.73622C104.983 6.73596 104.983 6.73564 104.983 6.7353C104.983 6.73496 104.983 6.73459 104.983 6.73422C104.91 6.66696 104.837 6.5997 104.761 6.53524C103.749 5.64761 102.502 5.07058 101.17 4.87325C99.8381 4.67591 98.4775 4.86664 97.2512 5.42258C96.0249 5.97853 94.9848 6.87613 94.2554 8.00793C93.526 9.13974 93.1383 10.4578 93.1387 11.8042V11.8042Z" fill="#2F2E41"/>
<path d="M101.871 19.3007C105.116 19.3007 107.747 16.6702 107.747 13.4254C107.747 10.1805 105.116 7.55005 101.871 7.55005C98.6266 7.55005 95.9961 10.1805 95.9961 13.4254C95.9961 16.6702 98.6266 19.3007 101.871 19.3007Z" fill="#FFB8B8"/>
<path d="M95.6077 14.9911C95.0334 12.4031 95.8635 9.50361 97.6733 7.77585C98.5835 6.92404 99.7156 6.34632 100.939 6.10909C102.163 5.87187 103.429 5.98477 104.592 6.43481C104.74 6.49447 104.887 6.55974 105.032 6.62788L105.1 6.65966V6.66953C105.113 6.67859 105.126 6.68811 105.139 6.69775C105.166 6.72342 105.2 6.74183 105.236 6.75131C105.746 6.73797 106.253 6.83257 106.725 7.02892C107.196 7.22527 107.62 7.51894 107.969 7.89068C108.88 8.87874 109.309 10.4755 109.177 12.3868L109.173 12.4466L109.122 12.4783C108.433 12.9152 107.717 13.3097 106.98 13.6595C104.401 14.8723 102.046 15.097 99.7829 14.3456L99.7414 14.3318L98.7915 12.7399C98.5965 13.8379 98.7007 17.4797 97.5817 17.6771L95.632 15.1009L95.6077 14.9911Z" fill="#2F2E41"/>
<path d="M83.2396 20.1068C85.239 19.0748 82.6676 15.3294 83.1843 13.1395C83.701 10.9497 87.4219 10.2454 87.6589 8.00791C87.896 5.77045 88.4536 3.46275 89.93 1.76495C90.8735 0.68006 92.2637 -0.120847 93.695 0.0150429C94.1792 0.0610193 94.6479 0.210828 95.0691 0.454266C95.4902 0.697704 95.854 1.02906 96.1355 1.42575C96.4171 1.82243 96.6098 2.27514 96.7007 2.75304C96.7915 3.23094 96.7783 3.72281 96.6619 4.19513C97.0694 3.6177 98.124 3.74285 98.385 4.39965C98.6171 4.98354 98.1044 5.69081 97.5011 5.74247C96.7115 6.71747 95.8075 7.75221 94.5706 7.9489C94.3735 7.99415 94.1687 7.99404 93.9717 7.94856C93.7747 7.90309 93.5906 7.81344 93.4333 7.68639C93.1423 7.40695 93.1197 6.84827 93.4648 6.63944C91.9104 7.25689 90.9991 8.93752 90.7685 10.5941C90.5379 12.2507 90.8569 13.9268 91.0672 15.5861C91.2775 17.2453 91.3681 18.9908 90.7175 20.5317C89.9488 22.3522 88.179 23.657 86.2477 24.0754C84.3163 24.4939 82.2594 24.0849 80.5112 23.1635C78.763 22.2421 77.3052 20.8354 76.1143 19.2584C78.1657 20.7151 81.0039 21.2608 83.2396 20.1068Z" fill="#2F2E41"/>
<path d="M99.0649 13.0455C97.0106 16.5844 100.879 22.5473 96.9803 23.7855L97.3015 23.4643C99.6547 20.5698 94.7362 14.4433 97.0894 11.5487C97.455 11.1242 97.7689 10.6576 98.0244 10.1589" fill="#2F2E41"/>
<path d="M95.8818 14.9376C95.8818 14.9376 97.6223 8.44114 105.083 6.9417C105.091 6.93893 105.119 6.92771 105.156 6.91091C105.178 6.89688 105.206 6.88285 105.234 6.86885C105.15 6.82119 105.069 6.77918 104.985 6.7371C104.984 6.73711 104.984 6.73704 104.984 6.7369C104.983 6.73676 104.983 6.73655 104.983 6.73629C104.983 6.73603 104.982 6.73572 104.982 6.73538C104.982 6.73503 104.982 6.73467 104.982 6.7343C104.909 6.66703 104.836 6.59977 104.761 6.53532L104.548 6.54374C104.548 6.54374 97.0618 5.35823 95.8818 14.9376Z" fill="#FD6584"/>
<path d="M41.6953 127.66C41.6952 127.697 41.7024 127.734 41.7164 127.768C41.7304 127.802 41.751 127.832 41.777 127.858C41.8029 127.884 41.8338 127.905 41.8678 127.919C41.9018 127.933 41.9382 127.94 41.9749 127.94H210.026C210.1 127.94 210.171 127.911 210.223 127.858C210.276 127.806 210.305 127.735 210.305 127.66C210.305 127.586 210.276 127.515 210.223 127.463C210.171 127.41 210.1 127.381 210.026 127.381H41.9749C41.9381 127.381 41.9017 127.388 41.8678 127.402C41.8338 127.416 41.8029 127.437 41.777 127.463C41.751 127.488 41.7304 127.519 41.7164 127.553C41.7024 127.587 41.6952 127.624 41.6953 127.66Z" fill="#5E5E5E"/>
</g>
<path d="M65.328 179.94V168.74H67.472L74.08 176.804H73.04V168.74H75.6V179.94H73.472L66.848 171.876H67.888V179.94H65.328ZM82.3699 180.068C81.4525 180.068 80.6365 179.876 79.9219 179.492C79.2179 179.108 78.6579 178.585 78.2419 177.924C77.8365 177.252 77.6339 176.489 77.6339 175.636C77.6339 174.772 77.8365 174.009 78.2419 173.348C78.6579 172.676 79.2179 172.153 79.9219 171.78C80.6365 171.396 81.4525 171.204 82.3699 171.204C83.2765 171.204 84.0872 171.396 84.8019 171.78C85.5165 172.153 86.0765 172.671 86.4819 173.332C86.8872 173.993 87.0899 174.761 87.0899 175.636C87.0899 176.489 86.8872 177.252 86.4819 177.924C86.0765 178.585 85.5165 179.108 84.8019 179.492C84.0872 179.876 83.2765 180.068 82.3699 180.068ZM82.3699 178.02C82.7859 178.02 83.1592 177.924 83.4899 177.732C83.8205 177.54 84.0819 177.268 84.2739 176.916C84.4659 176.553 84.5619 176.127 84.5619 175.636C84.5619 175.135 84.4659 174.708 84.2739 174.356C84.0819 174.004 83.8205 173.732 83.4899 173.54C83.1592 173.348 82.7859 173.252 82.3699 173.252C81.9539 173.252 81.5805 173.348 81.2499 173.54C80.9192 173.732 80.6525 174.004 80.4499 174.356C80.2579 174.708 80.1619 175.135 80.1619 175.636C80.1619 176.127 80.2579 176.553 80.4499 176.916C80.6525 177.268 80.9192 177.54 81.2499 177.732C81.5805 177.924 81.9539 178.02 82.3699 178.02ZM93.6895 179.94V171.332H96.0735V173.764L95.7375 173.06C95.9935 172.452 96.4042 171.993 96.9695 171.684C97.5348 171.364 98.2228 171.204 99.0335 171.204V173.508C98.9268 173.497 98.8308 173.492 98.7455 173.492C98.6602 173.481 98.5695 173.476 98.4735 173.476C97.7908 173.476 97.2362 173.673 96.8095 174.068C96.3935 174.452 96.1855 175.055 96.1855 175.876V179.94H93.6895ZM104.927 180.068C103.946 180.068 103.082 179.876 102.335 179.492C101.599 179.108 101.028 178.585 100.623 177.924C100.218 177.252 100.015 176.489 100.015 175.636C100.015 174.772 100.212 174.009 100.607 173.348C101.012 172.676 101.562 172.153 102.255 171.78C102.948 171.396 103.732 171.204 104.607 171.204C105.45 171.204 106.207 171.385 106.879 171.748C107.562 172.1 108.1 172.612 108.495 173.284C108.89 173.945 109.087 174.74 109.087 175.668C109.087 175.764 109.082 175.876 109.071 176.004C109.06 176.121 109.05 176.233 109.039 176.34H102.047V174.884H107.727L106.767 175.316C106.767 174.868 106.676 174.479 106.495 174.148C106.314 173.817 106.063 173.561 105.743 173.38C105.423 173.188 105.05 173.092 104.623 173.092C104.196 173.092 103.818 173.188 103.487 173.38C103.167 173.561 102.916 173.823 102.735 174.164C102.554 174.495 102.463 174.889 102.463 175.348V175.732C102.463 176.201 102.564 176.617 102.767 176.98C102.98 177.332 103.274 177.604 103.647 177.796C104.031 177.977 104.479 178.068 104.991 178.068C105.45 178.068 105.85 177.999 106.191 177.86C106.543 177.721 106.863 177.513 107.151 177.236L108.479 178.676C108.084 179.124 107.588 179.471 106.991 179.716C106.394 179.951 105.706 180.068 104.927 180.068ZM113.845 180.068C113.109 180.068 112.4 179.983 111.717 179.812C111.045 179.631 110.512 179.407 110.117 179.14L110.949 177.348C111.344 177.593 111.808 177.796 112.341 177.956C112.885 178.105 113.418 178.18 113.941 178.18C114.517 178.18 114.922 178.111 115.157 177.972C115.402 177.833 115.525 177.641 115.525 177.396C115.525 177.193 115.429 177.044 115.237 176.948C115.056 176.841 114.81 176.761 114.501 176.708C114.192 176.655 113.85 176.601 113.477 176.548C113.114 176.495 112.746 176.425 112.373 176.34C112 176.244 111.658 176.105 111.349 175.924C111.04 175.743 110.789 175.497 110.597 175.188C110.416 174.879 110.325 174.479 110.325 173.988C110.325 173.444 110.48 172.964 110.789 172.548C111.109 172.132 111.568 171.807 112.165 171.572C112.762 171.327 113.477 171.204 114.309 171.204C114.896 171.204 115.493 171.268 116.101 171.396C116.709 171.524 117.216 171.711 117.621 171.956L116.789 173.732C116.373 173.487 115.952 173.321 115.525 173.236C115.109 173.14 114.704 173.092 114.309 173.092C113.754 173.092 113.349 173.167 113.093 173.316C112.837 173.465 112.709 173.657 112.709 173.892C112.709 174.105 112.8 174.265 112.981 174.372C113.173 174.479 113.424 174.564 113.733 174.628C114.042 174.692 114.378 174.751 114.741 174.804C115.114 174.847 115.488 174.916 115.861 175.012C116.234 175.108 116.57 175.247 116.869 175.428C117.178 175.599 117.429 175.839 117.621 176.148C117.813 176.447 117.909 176.841 117.909 177.332C117.909 177.865 117.749 178.34 117.429 178.756C117.109 179.161 116.645 179.481 116.037 179.716C115.44 179.951 114.709 180.068 113.845 180.068ZM123.281 180.068C122.566 180.068 121.926 179.929 121.361 179.652C120.806 179.375 120.374 178.953 120.065 178.388C119.756 177.812 119.601 177.081 119.601 176.196V171.332H122.097V175.828C122.097 176.543 122.246 177.071 122.545 177.412C122.854 177.743 123.286 177.908 123.841 177.908C124.225 177.908 124.566 177.828 124.865 177.668C125.164 177.497 125.398 177.241 125.569 176.9C125.74 176.548 125.825 176.111 125.825 175.588V171.332H128.321V179.94H125.953V177.572L126.385 178.26C126.097 178.857 125.67 179.311 125.105 179.62C124.55 179.919 123.942 180.068 123.281 180.068ZM130.833 179.94V168.068H133.329V179.94H130.833ZM140.006 180.068C138.993 180.068 138.204 179.812 137.638 179.3C137.073 178.777 136.79 178.004 136.79 176.98V169.428H139.286V176.948C139.286 177.311 139.382 177.593 139.574 177.796C139.766 177.988 140.028 178.084 140.358 178.084C140.753 178.084 141.089 177.977 141.366 177.764L142.038 179.524C141.782 179.705 141.473 179.844 141.11 179.94C140.758 180.025 140.39 180.068 140.006 180.068ZM135.462 173.444V171.524H141.43V173.444H135.462ZM146.536 180.068C145.8 180.068 145.09 179.983 144.408 179.812C143.736 179.631 143.202 179.407 142.808 179.14L143.64 177.348C144.034 177.593 144.498 177.796 145.032 177.956C145.576 178.105 146.109 178.18 146.632 178.18C147.208 178.18 147.613 178.111 147.848 177.972C148.093 177.833 148.216 177.641 148.216 177.396C148.216 177.193 148.12 177.044 147.928 176.948C147.746 176.841 147.501 176.761 147.192 176.708C146.882 176.655 146.541 176.601 146.168 176.548C145.805 176.495 145.437 176.425 145.064 176.34C144.69 176.244 144.349 176.105 144.04 175.924C143.73 175.743 143.48 175.497 143.288 175.188C143.106 174.879 143.016 174.479 143.016 173.988C143.016 173.444 143.17 172.964 143.48 172.548C143.8 172.132 144.258 171.807 144.856 171.572C145.453 171.327 146.168 171.204 147 171.204C147.586 171.204 148.184 171.268 148.792 171.396C149.4 171.524 149.906 171.711 150.312 171.956L149.48 173.732C149.064 173.487 148.642 173.321 148.216 173.236C147.8 173.14 147.394 173.092 147 173.092C146.445 173.092 146.04 173.167 145.784 173.316C145.528 173.465 145.4 173.657 145.4 173.892C145.4 174.105 145.49 174.265 145.672 174.372C145.864 174.479 146.114 174.564 146.424 174.628C146.733 174.692 147.069 174.751 147.432 174.804C147.805 174.847 148.178 174.916 148.552 175.012C148.925 175.108 149.261 175.247 149.56 175.428C149.869 175.599 150.12 175.839 150.312 176.148C150.504 176.447 150.6 176.841 150.6 177.332C150.6 177.865 150.44 178.34 150.12 178.756C149.8 179.161 149.336 179.481 148.728 179.716C148.13 179.951 147.4 180.068 146.536 180.068ZM158.159 183.172C157.711 183.172 157.268 183.103 156.831 182.964C156.393 182.825 156.036 182.633 155.759 182.388L156.671 180.612C156.863 180.783 157.081 180.916 157.327 181.012C157.583 181.108 157.833 181.156 158.079 181.156C158.431 181.156 158.708 181.071 158.911 180.9C159.124 180.74 159.316 180.468 159.487 180.084L159.935 179.028L160.127 178.756L163.215 171.332H165.615L161.727 180.468C161.449 181.161 161.129 181.705 160.767 182.1C160.415 182.495 160.02 182.772 159.583 182.932C159.156 183.092 158.681 183.172 158.159 183.172ZM159.631 180.276L155.791 171.332H158.367L161.343 178.532L159.631 180.276ZM170.871 180.068C169.89 180.068 169.026 179.876 168.279 179.492C167.543 179.108 166.972 178.585 166.567 177.924C166.162 177.252 165.959 176.489 165.959 175.636C165.959 174.772 166.156 174.009 166.551 173.348C166.956 172.676 167.506 172.153 168.199 171.78C168.892 171.396 169.676 171.204 170.551 171.204C171.394 171.204 172.151 171.385 172.823 171.748C173.506 172.1 174.044 172.612 174.439 173.284C174.834 173.945 175.031 174.74 175.031 175.668C175.031 175.764 175.026 175.876 175.015 176.004C175.004 176.121 174.994 176.233 174.983 176.34H167.991V174.884H173.671L172.711 175.316C172.711 174.868 172.62 174.479 172.439 174.148C172.258 173.817 172.007 173.561 171.687 173.38C171.367 173.188 170.994 173.092 170.567 173.092C170.14 173.092 169.762 173.188 169.431 173.38C169.111 173.561 168.86 173.823 168.679 174.164C168.498 174.495 168.407 174.889 168.407 175.348V175.732C168.407 176.201 168.508 176.617 168.711 176.98C168.924 177.332 169.218 177.604 169.591 177.796C169.975 177.977 170.423 178.068 170.935 178.068C171.394 178.068 171.794 177.999 172.135 177.86C172.487 177.721 172.807 177.513 173.095 177.236L174.423 178.676C174.028 179.124 173.532 179.471 172.935 179.716C172.338 179.951 171.65 180.068 170.871 180.068ZM180.413 180.068C179.399 180.068 178.61 179.812 178.045 179.3C177.479 178.777 177.197 178.004 177.197 176.98V169.428H179.693V176.948C179.693 177.311 179.789 177.593 179.981 177.796C180.173 177.988 180.434 178.084 180.765 178.084C181.159 178.084 181.495 177.977 181.773 177.764L182.445 179.524C182.189 179.705 181.879 179.844 181.517 179.94C181.165 180.025 180.797 180.068 180.413 180.068ZM175.869 173.444V171.524H181.837V173.444H175.869ZM184.222 176.052L183.726 168.74H186.702L186.206 176.052H184.222ZM185.214 180.068C184.766 180.068 184.398 179.924 184.11 179.636C183.822 179.348 183.678 179.007 183.678 178.612C183.678 178.207 183.822 177.871 184.11 177.604C184.398 177.327 184.766 177.188 185.214 177.188C185.672 177.188 186.04 177.327 186.318 177.604C186.606 177.871 186.75 178.207 186.75 178.612C186.75 179.007 186.606 179.348 186.318 179.636C186.04 179.924 185.672 180.068 185.214 180.068Z" fill="#F2F2F2"/>
<path d="M1.41586 208.94V200.54H4.69186C5.42786 200.54 6.05586 200.656 6.57586 200.888C7.09586 201.12 7.49586 201.456 7.77586 201.896C8.05586 202.336 8.19586 202.86 8.19586 203.468C8.19586 204.076 8.05586 204.6 7.77586 205.04C7.49586 205.472 7.09586 205.804 6.57586 206.036C6.05586 206.268 5.42786 206.384 4.69186 206.384H2.07586L2.61586 205.832V208.94H1.41586ZM7.03186 208.94L4.89586 205.892H6.17986L8.33986 208.94H7.03186ZM2.61586 205.952L2.07586 205.364H4.65586C5.42386 205.364 6.00386 205.2 6.39586 204.872C6.79586 204.536 6.99586 204.068 6.99586 203.468C6.99586 202.868 6.79586 202.404 6.39586 202.076C6.00386 201.748 5.42386 201.584 4.65586 201.584H2.07586L2.61586 200.984V205.952ZM12.8986 209.012C12.2186 209.012 11.6186 208.872 11.0986 208.592C10.5866 208.312 10.1866 207.928 9.89861 207.44C9.61861 206.952 9.47861 206.392 9.47861 205.76C9.47861 205.128 9.61461 204.568 9.88661 204.08C10.1666 203.592 10.5466 203.212 11.0266 202.94C11.5146 202.66 12.0626 202.52 12.6706 202.52C13.2866 202.52 13.8306 202.656 14.3026 202.928C14.7746 203.2 15.1426 203.584 15.4066 204.08C15.6786 204.568 15.8146 205.14 15.8146 205.796C15.8146 205.844 15.8106 205.9 15.8026 205.964C15.8026 206.028 15.7986 206.088 15.7906 206.144H10.3786V205.316H15.1906L14.7226 205.604C14.7306 205.196 14.6466 204.832 14.4706 204.512C14.2946 204.192 14.0506 203.944 13.7386 203.768C13.4346 203.584 13.0786 203.492 12.6706 203.492C12.2706 203.492 11.9146 203.584 11.6026 203.768C11.2906 203.944 11.0466 204.196 10.8706 204.524C10.6946 204.844 10.6066 205.212 10.6066 205.628V205.82C10.6066 206.244 10.7026 206.624 10.8946 206.96C11.0946 207.288 11.3706 207.544 11.7226 207.728C12.0746 207.912 12.4786 208.004 12.9346 208.004C13.3106 208.004 13.6506 207.94 13.9546 207.812C14.2666 207.684 14.5386 207.492 14.7706 207.236L15.4066 207.98C15.1186 208.316 14.7586 208.572 14.3266 208.748C13.9026 208.924 13.4266 209.012 12.8986 209.012ZM19.3383 209.012C18.8103 209.012 18.3063 208.94 17.8263 208.796C17.3543 208.652 16.9823 208.476 16.7103 208.268L17.1903 207.356C17.4623 207.54 17.7983 207.696 18.1983 207.824C18.5983 207.952 19.0063 208.016 19.4223 208.016C19.9583 208.016 20.3423 207.94 20.5743 207.788C20.8143 207.636 20.9343 207.424 20.9343 207.152C20.9343 206.952 20.8623 206.796 20.7183 206.684C20.5743 206.572 20.3823 206.488 20.1423 206.432C19.9103 206.376 19.6503 206.328 19.3623 206.288C19.0743 206.24 18.7863 206.184 18.4983 206.12C18.2103 206.048 17.9463 205.952 17.7063 205.832C17.4663 205.704 17.2743 205.532 17.1303 205.316C16.9863 205.092 16.9143 204.796 16.9143 204.428C16.9143 204.044 17.0223 203.708 17.2383 203.42C17.4543 203.132 17.7583 202.912 18.1503 202.76C18.5503 202.6 19.0223 202.52 19.5663 202.52C19.9823 202.52 20.4023 202.572 20.8263 202.676C21.2583 202.772 21.6103 202.912 21.8823 203.096L21.3903 204.008C21.1023 203.816 20.8023 203.684 20.4903 203.612C20.1783 203.54 19.8663 203.504 19.5543 203.504C19.0503 203.504 18.6743 203.588 18.4263 203.756C18.1783 203.916 18.0543 204.124 18.0543 204.38C18.0543 204.596 18.1263 204.764 18.2703 204.884C18.4223 204.996 18.6143 205.084 18.8463 205.148C19.0863 205.212 19.3503 205.268 19.6383 205.316C19.9263 205.356 20.2143 205.412 20.5023 205.484C20.7903 205.548 21.0503 205.64 21.2823 205.76C21.5223 205.88 21.7143 206.048 21.8583 206.264C22.0103 206.48 22.0863 206.768 22.0863 207.128C22.0863 207.512 21.9743 207.844 21.7503 208.124C21.5263 208.404 21.2103 208.624 20.8023 208.784C20.3943 208.936 19.9063 209.012 19.3383 209.012ZM26.302 209.012C25.758 209.012 25.278 208.912 24.862 208.712C24.454 208.512 24.134 208.208 23.902 207.8C23.678 207.384 23.566 206.864 23.566 206.24V202.58H24.718V206.108C24.718 206.732 24.866 207.2 25.162 207.512C25.466 207.824 25.89 207.98 26.434 207.98C26.834 207.98 27.182 207.9 27.478 207.74C27.774 207.572 28.002 207.332 28.162 207.02C28.322 206.7 28.402 206.316 28.402 205.868V202.58H29.554V208.94H28.462V207.224L28.642 207.68C28.434 208.104 28.122 208.432 27.706 208.664C27.29 208.896 26.822 209.012 26.302 209.012ZM31.8471 208.94V200.036H32.9991V208.94H31.8471ZM37.6467 209.012C37.0067 209.012 36.5107 208.84 36.1587 208.496C35.8067 208.152 35.6307 207.66 35.6307 207.02V201.188H36.7827V206.972C36.7827 207.316 36.8667 207.58 37.0347 207.764C37.2107 207.948 37.4587 208.04 37.7787 208.04C38.1387 208.04 38.4387 207.94 38.6787 207.74L39.0387 208.568C38.8627 208.72 38.6507 208.832 38.4027 208.904C38.1627 208.976 37.9107 209.012 37.6467 209.012ZM34.5507 203.528V202.58H38.6067V203.528H34.5507ZM42.3555 209.012C41.8275 209.012 41.3235 208.94 40.8435 208.796C40.3715 208.652 39.9995 208.476 39.7275 208.268L40.2075 207.356C40.4795 207.54 40.8155 207.696 41.2155 207.824C41.6155 207.952 42.0235 208.016 42.4395 208.016C42.9755 208.016 43.3595 207.94 43.5915 207.788C43.8315 207.636 43.9515 207.424 43.9515 207.152C43.9515 206.952 43.8795 206.796 43.7355 206.684C43.5915 206.572 43.3995 206.488 43.1595 206.432C42.9275 206.376 42.6675 206.328 42.3795 206.288C42.0915 206.24 41.8035 206.184 41.5155 206.12C41.2275 206.048 40.9635 205.952 40.7235 205.832C40.4835 205.704 40.2915 205.532 40.1475 205.316C40.0035 205.092 39.9315 204.796 39.9315 204.428C39.9315 204.044 40.0395 203.708 40.2555 203.42C40.4715 203.132 40.7755 202.912 41.1675 202.76C41.5675 202.6 42.0395 202.52 42.5835 202.52C42.9995 202.52 43.4195 202.572 43.8435 202.676C44.2755 202.772 44.6275 202.912 44.8995 203.096L44.4075 204.008C44.1195 203.816 43.8195 203.684 43.5075 203.612C43.1955 203.54 42.8835 203.504 42.5715 203.504C42.0675 203.504 41.6915 203.588 41.4435 203.756C41.1955 203.916 41.0715 204.124 41.0715 204.38C41.0715 204.596 41.1435 204.764 41.2875 204.884C41.4395 204.996 41.6315 205.084 41.8635 205.148C42.1035 205.212 42.3675 205.268 42.6555 205.316C42.9435 205.356 43.2315 205.412 43.5195 205.484C43.8075 205.548 44.0675 205.64 44.2995 205.76C44.5395 205.88 44.7315 206.048 44.8755 206.264C45.0275 206.48 45.1035 206.768 45.1035 207.128C45.1035 207.512 44.9915 207.844 44.7675 208.124C44.5435 208.404 44.2275 208.624 43.8195 208.784C43.4115 208.936 42.9235 209.012 42.3555 209.012ZM52.6898 209.012C52.0498 209.012 51.4818 208.872 50.9858 208.592C50.4898 208.312 50.0978 207.928 49.8098 207.44C49.5218 206.944 49.3778 206.384 49.3778 205.76C49.3778 205.128 49.5218 204.568 49.8098 204.08C50.0978 203.592 50.4898 203.212 50.9858 202.94C51.4818 202.66 52.0498 202.52 52.6898 202.52C53.3218 202.52 53.8858 202.66 54.3818 202.94C54.8858 203.212 55.2778 203.592 55.5578 204.08C55.8458 204.56 55.9898 205.12 55.9898 205.76C55.9898 206.392 55.8458 206.952 55.5578 207.44C55.2778 207.928 54.8858 208.312 54.3818 208.592C53.8858 208.872 53.3218 209.012 52.6898 209.012ZM52.6898 208.004C53.0978 208.004 53.4618 207.912 53.7818 207.728C54.1098 207.544 54.3658 207.284 54.5498 206.948C54.7338 206.604 54.8258 206.208 54.8258 205.76C54.8258 205.304 54.7338 204.912 54.5498 204.584C54.3658 204.248 54.1098 203.988 53.7818 203.804C53.4618 203.62 53.0978 203.528 52.6898 203.528C52.2818 203.528 51.9178 203.62 51.5978 203.804C51.2778 203.988 51.0218 204.248 50.8298 204.584C50.6378 204.912 50.5418 205.304 50.5418 205.76C50.5418 206.208 50.6378 206.604 50.8298 206.948C51.0218 207.284 51.2778 207.544 51.5978 207.728C51.9178 207.912 52.2818 208.004 52.6898 208.004ZM57.851 208.94V202.016C57.851 201.392 58.031 200.896 58.391 200.528C58.759 200.152 59.279 199.964 59.951 199.964C60.199 199.964 60.435 199.996 60.659 200.06C60.891 200.116 61.087 200.208 61.247 200.336L60.899 201.212C60.779 201.116 60.643 201.044 60.491 200.996C60.339 200.94 60.179 200.912 60.011 200.912C59.675 200.912 59.419 201.008 59.243 201.2C59.067 201.384 58.979 201.66 58.979 202.028V202.88L59.003 203.408V208.94H57.851ZM56.771 203.528V202.58H60.827V203.528H56.771ZM67.0041 208.94L64.2201 202.58H65.4201L67.8921 208.34H67.3161L69.8361 202.58H70.9641L68.1801 208.94H67.0041ZM75.888 208.94V207.596L75.828 207.344V205.052C75.828 204.564 75.684 204.188 75.396 203.924C75.116 203.652 74.692 203.516 74.124 203.516C73.748 203.516 73.38 203.58 73.02 203.708C72.66 203.828 72.356 203.992 72.108 204.2L71.628 203.336C71.956 203.072 72.348 202.872 72.804 202.736C73.268 202.592 73.752 202.52 74.256 202.52C75.128 202.52 75.8 202.732 76.272 203.156C76.744 203.58 76.98 204.228 76.98 205.1V208.94H75.888ZM73.8 209.012C73.328 209.012 72.912 208.932 72.552 208.772C72.2 208.612 71.928 208.392 71.736 208.112C71.544 207.824 71.448 207.5 71.448 207.14C71.448 206.796 71.528 206.484 71.688 206.204C71.856 205.924 72.124 205.7 72.492 205.532C72.868 205.364 73.372 205.28 74.004 205.28H76.02V206.108H74.052C73.476 206.108 73.088 206.204 72.888 206.396C72.688 206.588 72.588 206.82 72.588 207.092C72.588 207.404 72.712 207.656 72.96 207.848C73.208 208.032 73.552 208.124 73.992 208.124C74.424 208.124 74.8 208.028 75.12 207.836C75.448 207.644 75.684 207.364 75.828 206.996L76.056 207.788C75.904 208.164 75.636 208.464 75.252 208.688C74.868 208.904 74.384 209.012 73.8 209.012ZM79.2119 208.94V202.58H80.3159V204.308L80.2079 203.876C80.3839 203.436 80.6799 203.1 81.0959 202.868C81.5119 202.636 82.0239 202.52 82.6319 202.52V203.636C82.5839 203.628 82.5359 203.624 82.4879 203.624C82.4479 203.624 82.4079 203.624 82.3679 203.624C81.7519 203.624 81.2639 203.808 80.9039 204.176C80.5439 204.544 80.3639 205.076 80.3639 205.772V208.94H79.2119ZM84.1518 208.94V202.58H85.3038V208.94H84.1518ZM84.7278 201.356C84.5038 201.356 84.3158 201.284 84.1638 201.14C84.0198 200.996 83.9478 200.82 83.9478 200.612C83.9478 200.396 84.0198 200.216 84.1638 200.072C84.3158 199.928 84.5038 199.856 84.7278 199.856C84.9518 199.856 85.1358 199.928 85.2798 200.072C85.4318 200.208 85.5078 200.38 85.5078 200.588C85.5078 200.804 85.4358 200.988 85.2918 201.14C85.1478 201.284 84.9598 201.356 84.7278 201.356ZM90.3273 209.012C89.6873 209.012 89.1193 208.872 88.6233 208.592C88.1273 208.312 87.7353 207.928 87.4473 207.44C87.1593 206.944 87.0153 206.384 87.0153 205.76C87.0153 205.128 87.1593 204.568 87.4473 204.08C87.7353 203.592 88.1273 203.212 88.6233 202.94C89.1193 202.66 89.6873 202.52 90.3273 202.52C90.9593 202.52 91.5233 202.66 92.0193 202.94C92.5233 203.212 92.9153 203.592 93.1953 204.08C93.4833 204.56 93.6273 205.12 93.6273 205.76C93.6273 206.392 93.4833 206.952 93.1953 207.44C92.9153 207.928 92.5233 208.312 92.0193 208.592C91.5233 208.872 90.9593 209.012 90.3273 209.012ZM90.3273 208.004C90.7353 208.004 91.0993 207.912 91.4193 207.728C91.7473 207.544 92.0033 207.284 92.1873 206.948C92.3713 206.604 92.4633 206.208 92.4633 205.76C92.4633 205.304 92.3713 204.912 92.1873 204.584C92.0033 204.248 91.7473 203.988 91.4193 203.804C91.0993 203.62 90.7353 203.528 90.3273 203.528C89.9193 203.528 89.5553 203.62 89.2353 203.804C88.9153 203.988 88.6593 204.248 88.4673 204.584C88.2753 204.912 88.1793 205.304 88.1793 205.76C88.1793 206.208 88.2753 206.604 88.4673 206.948C88.6593 207.284 88.9153 207.544 89.2353 207.728C89.5553 207.912 89.9193 208.004 90.3273 208.004ZM97.9965 209.012C97.4525 209.012 96.9725 208.912 96.5565 208.712C96.1485 208.512 95.8285 208.208 95.5965 207.8C95.3725 207.384 95.2605 206.864 95.2605 206.24V202.58H96.4125V206.108C96.4125 206.732 96.5605 207.2 96.8565 207.512C97.1605 207.824 97.5845 207.98 98.1285 207.98C98.5285 207.98 98.8765 207.9 99.1725 207.74C99.4685 207.572 99.6965 207.332 99.8565 207.02C100.017 206.7 100.097 206.316 100.097 205.868V202.58H101.249V208.94H100.157V207.224L100.337 207.68C100.129 208.104 99.8165 208.432 99.4005 208.664C98.9845 208.896 98.5165 209.012 97.9965 209.012ZM105.366 209.012C104.838 209.012 104.334 208.94 103.854 208.796C103.382 208.652 103.01 208.476 102.738 208.268L103.218 207.356C103.49 207.54 103.826 207.696 104.226 207.824C104.626 207.952 105.034 208.016 105.45 208.016C105.986 208.016 106.37 207.94 106.602 207.788C106.842 207.636 106.962 207.424 106.962 207.152C106.962 206.952 106.89 206.796 106.746 206.684C106.602 206.572 106.41 206.488 106.17 206.432C105.938 206.376 105.678 206.328 105.39 206.288C105.102 206.24 104.814 206.184 104.526 206.12C104.238 206.048 103.974 205.952 103.734 205.832C103.494 205.704 103.302 205.532 103.158 205.316C103.014 205.092 102.942 204.796 102.942 204.428C102.942 204.044 103.05 203.708 103.266 203.42C103.482 203.132 103.786 202.912 104.178 202.76C104.578 202.6 105.05 202.52 105.594 202.52C106.01 202.52 106.43 202.572 106.854 202.676C107.286 202.772 107.638 202.912 107.91 203.096L107.418 204.008C107.13 203.816 106.83 203.684 106.518 203.612C106.206 203.54 105.894 203.504 105.582 203.504C105.078 203.504 104.702 203.588 104.454 203.756C104.206 203.916 104.082 204.124 104.082 204.38C104.082 204.596 104.154 204.764 104.298 204.884C104.45 204.996 104.642 205.084 104.874 205.148C105.114 205.212 105.378 205.268 105.666 205.316C105.954 205.356 106.242 205.412 106.53 205.484C106.818 205.548 107.078 205.64 107.31 205.76C107.55 205.88 107.742 206.048 107.886 206.264C108.038 206.48 108.114 206.768 108.114 207.128C108.114 207.512 108.002 207.844 107.778 208.124C107.554 208.404 107.238 208.624 106.83 208.784C106.422 208.936 105.934 209.012 105.366 209.012ZM115.808 209.012C115.128 209.012 114.528 208.872 114.008 208.592C113.496 208.312 113.096 207.928 112.808 207.44C112.528 206.952 112.388 206.392 112.388 205.76C112.388 205.128 112.524 204.568 112.796 204.08C113.076 203.592 113.456 203.212 113.936 202.94C114.424 202.66 114.972 202.52 115.58 202.52C116.196 202.52 116.74 202.656 117.212 202.928C117.684 203.2 118.052 203.584 118.316 204.08C118.588 204.568 118.724 205.14 118.724 205.796C118.724 205.844 118.72 205.9 118.712 205.964C118.712 206.028 118.708 206.088 118.7 206.144H113.288V205.316H118.1L117.632 205.604C117.64 205.196 117.556 204.832 117.38 204.512C117.204 204.192 116.96 203.944 116.648 203.768C116.344 203.584 115.988 203.492 115.58 203.492C115.18 203.492 114.824 203.584 114.512 203.768C114.2 203.944 113.956 204.196 113.78 204.524C113.604 204.844 113.516 205.212 113.516 205.628V205.82C113.516 206.244 113.612 206.624 113.804 206.96C114.004 207.288 114.28 207.544 114.632 207.728C114.984 207.912 115.388 208.004 115.844 208.004C116.22 208.004 116.56 207.94 116.864 207.812C117.176 207.684 117.448 207.492 117.68 207.236L118.316 207.98C118.028 208.316 117.668 208.572 117.236 208.748C116.812 208.924 116.336 209.012 115.808 209.012ZM121.974 208.94L119.19 202.58H120.39L122.862 208.34H122.286L124.806 202.58H125.934L123.15 208.94H121.974ZM129.766 209.012C129.086 209.012 128.486 208.872 127.966 208.592C127.454 208.312 127.054 207.928 126.766 207.44C126.486 206.952 126.346 206.392 126.346 205.76C126.346 205.128 126.482 204.568 126.754 204.08C127.034 203.592 127.414 203.212 127.894 202.94C128.382 202.66 128.93 202.52 129.538 202.52C130.154 202.52 130.698 202.656 131.17 202.928C131.642 203.2 132.01 203.584 132.274 204.08C132.546 204.568 132.682 205.14 132.682 205.796C132.682 205.844 132.678 205.9 132.67 205.964C132.67 206.028 132.666 206.088 132.658 206.144H127.246V205.316H132.058L131.59 205.604C131.598 205.196 131.514 204.832 131.338 204.512C131.162 204.192 130.918 203.944 130.606 203.768C130.302 203.584 129.946 203.492 129.538 203.492C129.138 203.492 128.782 203.584 128.47 203.768C128.158 203.944 127.914 204.196 127.738 204.524C127.562 204.844 127.474 205.212 127.474 205.628V205.82C127.474 206.244 127.57 206.624 127.762 206.96C127.962 207.288 128.238 207.544 128.59 207.728C128.942 207.912 129.346 208.004 129.802 208.004C130.178 208.004 130.518 207.94 130.822 207.812C131.134 207.684 131.406 207.492 131.638 207.236L132.274 207.98C131.986 208.316 131.626 208.572 131.194 208.748C130.77 208.924 130.294 209.012 129.766 209.012ZM137.777 202.52C138.297 202.52 138.753 202.62 139.145 202.82C139.545 203.02 139.857 203.324 140.081 203.732C140.305 204.14 140.417 204.656 140.417 205.28V208.94H139.265V205.412C139.265 204.796 139.113 204.332 138.809 204.02C138.513 203.708 138.093 203.552 137.549 203.552C137.141 203.552 136.785 203.632 136.481 203.792C136.177 203.952 135.941 204.188 135.773 204.5C135.613 204.812 135.533 205.2 135.533 205.664V208.94H134.381V202.58H135.485V204.296L135.305 203.84C135.513 203.424 135.833 203.1 136.265 202.868C136.697 202.636 137.201 202.52 137.777 202.52ZM144.833 209.012C144.193 209.012 143.697 208.84 143.345 208.496C142.993 208.152 142.817 207.66 142.817 207.02V201.188H143.969V206.972C143.969 207.316 144.053 207.58 144.221 207.764C144.397 207.948 144.645 208.04 144.965 208.04C145.325 208.04 145.625 207.94 145.865 207.74L146.225 208.568C146.049 208.72 145.837 208.832 145.589 208.904C145.349 208.976 145.097 209.012 144.833 209.012ZM141.737 203.528V202.58H145.793V203.528H141.737ZM149.542 209.012C149.014 209.012 148.51 208.94 148.03 208.796C147.558 208.652 147.186 208.476 146.914 208.268L147.394 207.356C147.666 207.54 148.002 207.696 148.402 207.824C148.802 207.952 149.21 208.016 149.626 208.016C150.162 208.016 150.546 207.94 150.778 207.788C151.018 207.636 151.138 207.424 151.138 207.152C151.138 206.952 151.066 206.796 150.922 206.684C150.778 206.572 150.586 206.488 150.346 206.432C150.114 206.376 149.854 206.328 149.566 206.288C149.278 206.24 148.99 206.184 148.702 206.12C148.414 206.048 148.15 205.952 147.91 205.832C147.67 205.704 147.478 205.532 147.334 205.316C147.19 205.092 147.118 204.796 147.118 204.428C147.118 204.044 147.226 203.708 147.442 203.42C147.658 203.132 147.962 202.912 148.354 202.76C148.754 202.6 149.226 202.52 149.77 202.52C150.186 202.52 150.606 202.572 151.03 202.676C151.462 202.772 151.814 202.912 152.086 203.096L151.594 204.008C151.306 203.816 151.006 203.684 150.694 203.612C150.382 203.54 150.07 203.504 149.758 203.504C149.254 203.504 148.878 203.588 148.63 203.756C148.382 203.916 148.258 204.124 148.258 204.38C148.258 204.596 148.33 204.764 148.474 204.884C148.626 204.996 148.818 205.084 149.05 205.148C149.29 205.212 149.554 205.268 149.842 205.316C150.13 205.356 150.418 205.412 150.706 205.484C150.994 205.548 151.254 205.64 151.486 205.76C151.726 205.88 151.918 206.048 152.062 206.264C152.214 206.48 152.29 206.768 152.29 207.128C152.29 207.512 152.178 207.844 151.954 208.124C151.73 208.404 151.414 208.624 151.006 208.784C150.598 208.936 150.11 209.012 149.542 209.012ZM158.497 208.94L156.133 202.58H157.225L159.325 208.34H158.809L160.993 202.58H161.965L164.101 208.34H163.597L165.745 202.58H166.777L164.401 208.94H163.297L161.293 203.684H161.629L159.601 208.94H158.497ZM168.046 208.94V202.58H169.198V208.94H168.046ZM168.622 201.356C168.398 201.356 168.21 201.284 168.058 201.14C167.914 200.996 167.842 200.82 167.842 200.612C167.842 200.396 167.914 200.216 168.058 200.072C168.21 199.928 168.398 199.856 168.622 199.856C168.846 199.856 169.03 199.928 169.174 200.072C169.326 200.208 169.402 200.38 169.402 200.588C169.402 200.804 169.33 200.988 169.186 201.14C169.042 201.284 168.854 201.356 168.622 201.356ZM171.497 208.94V200.036H172.649V208.94H171.497ZM174.949 208.94V200.036H176.101V208.94H174.949ZM185.095 209.012C184.551 209.012 184.059 208.892 183.619 208.652C183.187 208.404 182.843 208.04 182.587 207.56C182.339 207.08 182.215 206.48 182.215 205.76C182.215 205.04 182.343 204.44 182.599 203.96C182.863 203.48 183.211 203.12 183.643 202.88C184.083 202.64 184.567 202.52 185.095 202.52C185.719 202.52 186.271 202.656 186.751 202.928C187.231 203.2 187.611 203.58 187.891 204.068C188.171 204.548 188.311 205.112 188.311 205.76C188.311 206.408 188.171 206.976 187.891 207.464C187.611 207.952 187.231 208.332 186.751 208.604C186.271 208.876 185.719 209.012 185.095 209.012ZM181.723 208.94V200.036H182.875V204.272L182.755 205.748L182.827 207.224V208.94H181.723ZM184.999 208.004C185.407 208.004 185.771 207.912 186.091 207.728C186.419 207.544 186.675 207.284 186.859 206.948C187.051 206.604 187.147 206.208 187.147 205.76C187.147 205.304 187.051 204.912 186.859 204.584C186.675 204.248 186.419 203.988 186.091 203.804C185.771 203.62 185.407 203.528 184.999 203.528C184.599 203.528 184.235 203.62 183.907 203.804C183.587 203.988 183.331 204.248 183.139 204.584C182.955 204.912 182.863 205.304 182.863 205.76C182.863 206.208 182.955 206.604 183.139 206.948C183.331 207.284 183.587 207.544 183.907 207.728C184.235 207.912 184.599 208.004 184.999 208.004ZM192.835 209.012C192.155 209.012 191.555 208.872 191.035 208.592C190.523 208.312 190.123 207.928 189.835 207.44C189.555 206.952 189.415 206.392 189.415 205.76C189.415 205.128 189.551 204.568 189.823 204.08C190.103 203.592 190.483 203.212 190.963 202.94C191.451 202.66 191.999 202.52 192.607 202.52C193.223 202.52 193.767 202.656 194.239 202.928C194.711 203.2 195.079 203.584 195.343 204.08C195.615 204.568 195.751 205.14 195.751 205.796C195.751 205.844 195.747 205.9 195.739 205.964C195.739 206.028 195.735 206.088 195.727 206.144H190.315V205.316H195.127L194.659 205.604C194.667 205.196 194.583 204.832 194.407 204.512C194.231 204.192 193.987 203.944 193.675 203.768C193.371 203.584 193.015 203.492 192.607 203.492C192.207 203.492 191.851 203.584 191.539 203.768C191.227 203.944 190.983 204.196 190.807 204.524C190.631 204.844 190.543 205.212 190.543 205.628V205.82C190.543 206.244 190.639 206.624 190.831 206.96C191.031 207.288 191.307 207.544 191.659 207.728C192.011 207.912 192.415 208.004 192.871 208.004C193.247 208.004 193.587 207.94 193.891 207.812C194.203 207.684 194.475 207.492 194.707 207.236L195.343 207.98C195.055 208.316 194.695 208.572 194.263 208.748C193.839 208.924 193.363 209.012 192.835 209.012ZM200.773 208.94V202.58H201.877V204.308L201.769 203.876C201.945 203.436 202.241 203.1 202.657 202.868C203.073 202.636 203.585 202.52 204.193 202.52V203.636C204.145 203.628 204.097 203.624 204.049 203.624C204.009 203.624 203.969 203.624 203.929 203.624C203.313 203.624 202.825 203.808 202.465 204.176C202.105 204.544 201.925 205.076 201.925 205.772V208.94H200.773ZM208.486 209.012C207.806 209.012 207.206 208.872 206.686 208.592C206.174 208.312 205.774 207.928 205.486 207.44C205.206 206.952 205.066 206.392 205.066 205.76C205.066 205.128 205.202 204.568 205.474 204.08C205.754 203.592 206.134 203.212 206.614 202.94C207.102 202.66 207.65 202.52 208.258 202.52C208.874 202.52 209.418 202.656 209.89 202.928C210.362 203.2 210.73 203.584 210.994 204.08C211.266 204.568 211.402 205.14 211.402 205.796C211.402 205.844 211.398 205.9 211.39 205.964C211.39 206.028 211.386 206.088 211.378 206.144H205.966V205.316H210.778L210.31 205.604C210.318 205.196 210.234 204.832 210.058 204.512C209.882 204.192 209.638 203.944 209.326 203.768C209.022 203.584 208.666 203.492 208.258 203.492C207.858 203.492 207.502 203.584 207.19 203.768C206.878 203.944 206.634 204.196 206.458 204.524C206.282 204.844 206.194 205.212 206.194 205.628V205.82C206.194 206.244 206.29 206.624 206.482 206.96C206.682 207.288 206.958 207.544 207.31 207.728C207.662 207.912 208.066 208.004 208.522 208.004C208.898 208.004 209.238 207.94 209.542 207.812C209.854 207.684 210.126 207.492 210.358 207.236L210.994 207.98C210.706 208.316 210.346 208.572 209.914 208.748C209.49 208.924 209.014 209.012 208.486 209.012ZM213.102 208.94V200.036H214.254V208.94H213.102ZM219.385 209.012C218.705 209.012 218.105 208.872 217.585 208.592C217.073 208.312 216.673 207.928 216.385 207.44C216.105 206.952 215.965 206.392 215.965 205.76C215.965 205.128 216.101 204.568 216.373 204.08C216.653 203.592 217.033 203.212 217.513 202.94C218.001 202.66 218.549 202.52 219.157 202.52C219.773 202.52 220.317 202.656 220.789 202.928C221.261 203.2 221.629 203.584 221.893 204.08C222.165 204.568 222.301 205.14 222.301 205.796C222.301 205.844 222.297 205.9 222.289 205.964C222.289 206.028 222.285 206.088 222.277 206.144H216.865V205.316H221.677L221.209 205.604C221.217 205.196 221.133 204.832 220.957 204.512C220.781 204.192 220.537 203.944 220.225 203.768C219.921 203.584 219.565 203.492 219.157 203.492C218.757 203.492 218.401 203.584 218.089 203.768C217.777 203.944 217.533 204.196 217.357 204.524C217.181 204.844 217.093 205.212 217.093 205.628V205.82C217.093 206.244 217.189 206.624 217.381 206.96C217.581 207.288 217.857 207.544 218.209 207.728C218.561 207.912 218.965 208.004 219.421 208.004C219.797 208.004 220.137 207.94 220.441 207.812C220.753 207.684 221.025 207.492 221.257 207.236L221.893 207.98C221.605 208.316 221.245 208.572 220.813 208.748C220.389 208.924 219.913 209.012 219.385 209.012ZM227.773 208.94V207.596L227.713 207.344V205.052C227.713 204.564 227.569 204.188 227.281 203.924C227.001 203.652 226.577 203.516 226.009 203.516C225.633 203.516 225.265 203.58 224.905 203.708C224.545 203.828 224.241 203.992 223.993 204.2L223.513 203.336C223.841 203.072 224.233 202.872 224.689 202.736C225.153 202.592 225.637 202.52 226.141 202.52C227.013 202.52 227.685 202.732 228.157 203.156C228.629 203.58 228.865 204.228 228.865 205.1V208.94H227.773ZM225.685 209.012C225.213 209.012 224.797 208.932 224.437 208.772C224.085 208.612 223.813 208.392 223.621 208.112C223.429 207.824 223.333 207.5 223.333 207.14C223.333 206.796 223.413 206.484 223.573 206.204C223.741 205.924 224.009 205.7 224.377 205.532C224.753 205.364 225.257 205.28 225.889 205.28H227.905V206.108H225.937C225.361 206.108 224.973 206.204 224.773 206.396C224.573 206.588 224.473 206.82 224.473 207.092C224.473 207.404 224.597 207.656 224.845 207.848C225.093 208.032 225.437 208.124 225.877 208.124C226.309 208.124 226.685 208.028 227.005 207.836C227.333 207.644 227.569 207.364 227.713 206.996L227.941 207.788C227.789 208.164 227.521 208.464 227.137 208.688C226.753 208.904 226.269 209.012 225.685 209.012ZM232.921 209.012C232.393 209.012 231.889 208.94 231.409 208.796C230.937 208.652 230.565 208.476 230.293 208.268L230.773 207.356C231.045 207.54 231.381 207.696 231.781 207.824C232.181 207.952 232.589 208.016 233.005 208.016C233.541 208.016 233.925 207.94 234.157 207.788C234.397 207.636 234.517 207.424 234.517 207.152C234.517 206.952 234.445 206.796 234.301 206.684C234.157 206.572 233.965 206.488 233.725 206.432C233.493 206.376 233.233 206.328 232.945 206.288C232.657 206.24 232.369 206.184 232.081 206.12C231.793 206.048 231.529 205.952 231.289 205.832C231.049 205.704 230.857 205.532 230.713 205.316C230.569 205.092 230.497 204.796 230.497 204.428C230.497 204.044 230.605 203.708 230.821 203.42C231.037 203.132 231.341 202.912 231.733 202.76C232.133 202.6 232.605 202.52 233.149 202.52C233.565 202.52 233.985 202.572 234.409 202.676C234.841 202.772 235.193 202.912 235.465 203.096L234.973 204.008C234.685 203.816 234.385 203.684 234.073 203.612C233.761 203.54 233.449 203.504 233.137 203.504C232.633 203.504 232.257 203.588 232.009 203.756C231.761 203.916 231.637 204.124 231.637 204.38C231.637 204.596 231.709 204.764 231.853 204.884C232.005 204.996 232.197 205.084 232.429 205.148C232.669 205.212 232.933 205.268 233.221 205.316C233.509 205.356 233.797 205.412 234.085 205.484C234.373 205.548 234.633 205.64 234.865 205.76C235.105 205.88 235.297 206.048 235.441 206.264C235.593 206.48 235.669 206.768 235.669 207.128C235.669 207.512 235.557 207.844 235.333 208.124C235.109 208.404 234.793 208.624 234.385 208.784C233.977 208.936 233.489 209.012 232.921 209.012ZM240.041 209.012C239.361 209.012 238.761 208.872 238.241 208.592C237.729 208.312 237.329 207.928 237.041 207.44C236.761 206.952 236.621 206.392 236.621 205.76C236.621 205.128 236.757 204.568 237.029 204.08C237.309 203.592 237.689 203.212 238.169 202.94C238.657 202.66 239.205 202.52 239.813 202.52C240.429 202.52 240.973 202.656 241.445 202.928C241.917 203.2 242.285 203.584 242.549 204.08C242.821 204.568 242.957 205.14 242.957 205.796C242.957 205.844 242.953 205.9 242.945 205.964C242.945 206.028 242.941 206.088 242.933 206.144H237.521V205.316H242.333L241.865 205.604C241.873 205.196 241.789 204.832 241.613 204.512C241.437 204.192 241.193 203.944 240.881 203.768C240.577 203.584 240.221 203.492 239.813 203.492C239.413 203.492 239.057 203.584 238.745 203.768C238.433 203.944 238.189 204.196 238.013 204.524C237.837 204.844 237.749 205.212 237.749 205.628V205.82C237.749 206.244 237.845 206.624 238.037 206.96C238.237 207.288 238.513 207.544 238.865 207.728C239.217 207.912 239.621 208.004 240.077 208.004C240.453 208.004 240.793 207.94 241.097 207.812C241.409 207.684 241.681 207.492 241.913 207.236L242.549 207.98C242.261 208.316 241.901 208.572 241.469 208.748C241.045 208.924 240.569 209.012 240.041 209.012ZM247.284 209.012C246.668 209.012 246.116 208.876 245.628 208.604C245.148 208.332 244.768 207.952 244.488 207.464C244.208 206.976 244.068 206.408 244.068 205.76C244.068 205.112 244.208 204.548 244.488 204.068C244.768 203.58 245.148 203.2 245.628 202.928C246.116 202.656 246.668 202.52 247.284 202.52C247.82 202.52 248.304 202.64 248.736 202.88C249.168 203.12 249.512 203.48 249.768 203.96C250.032 204.44 250.164 205.04 250.164 205.76C250.164 206.48 250.036 207.08 249.78 207.56C249.532 208.04 249.192 208.404 248.76 208.652C248.328 208.892 247.836 209.012 247.284 209.012ZM247.38 208.004C247.78 208.004 248.14 207.912 248.46 207.728C248.788 207.544 249.044 207.284 249.228 206.948C249.42 206.604 249.516 206.208 249.516 205.76C249.516 205.304 249.42 204.912 249.228 204.584C249.044 204.248 248.788 203.988 248.46 203.804C248.14 203.62 247.78 203.528 247.38 203.528C246.972 203.528 246.608 203.62 246.288 203.804C245.968 203.988 245.712 204.248 245.52 204.584C245.328 204.912 245.232 205.304 245.232 205.76C245.232 206.208 245.328 206.604 245.52 206.948C245.712 207.284 245.968 207.544 246.288 207.728C246.608 207.912 246.972 208.004 247.38 208.004ZM249.552 208.94V207.224L249.624 205.748L249.504 204.272V200.036H250.656V208.94H249.552ZM23.1273 227.012C22.5993 227.012 22.0953 226.94 21.6153 226.796C21.1433 226.652 20.7713 226.476 20.4993 226.268L20.9793 225.356C21.2513 225.54 21.5873 225.696 21.9873 225.824C22.3873 225.952 22.7953 226.016 23.2113 226.016C23.7473 226.016 24.1313 225.94 24.3633 225.788C24.6033 225.636 24.7233 225.424 24.7233 225.152C24.7233 224.952 24.6513 224.796 24.5073 224.684C24.3633 224.572 24.1713 224.488 23.9313 224.432C23.6993 224.376 23.4393 224.328 23.1513 224.288C22.8633 224.24 22.5753 224.184 22.2873 224.12C21.9993 224.048 21.7353 223.952 21.4953 223.832C21.2553 223.704 21.0633 223.532 20.9193 223.316C20.7753 223.092 20.7033 222.796 20.7033 222.428C20.7033 222.044 20.8113 221.708 21.0273 221.42C21.2433 221.132 21.5473 220.912 21.9393 220.76C22.3393 220.6 22.8113 220.52 23.3553 220.52C23.7713 220.52 24.1913 220.572 24.6153 220.676C25.0473 220.772 25.3993 220.912 25.6713 221.096L25.1793 222.008C24.8913 221.816 24.5913 221.684 24.2793 221.612C23.9673 221.54 23.6553 221.504 23.3433 221.504C22.8393 221.504 22.4633 221.588 22.2153 221.756C21.9673 221.916 21.8433 222.124 21.8433 222.38C21.8433 222.596 21.9153 222.764 22.0593 222.884C22.2113 222.996 22.4033 223.084 22.6353 223.148C22.8753 223.212 23.1393 223.268 23.4273 223.316C23.7153 223.356 24.0033 223.412 24.2913 223.484C24.5793 223.548 24.8393 223.64 25.0713 223.76C25.3113 223.88 25.5033 224.048 25.6473 224.264C25.7993 224.48 25.8753 224.768 25.8753 225.128C25.8753 225.512 25.7633 225.844 25.5393 226.124C25.3153 226.404 24.9993 226.624 24.5913 226.784C24.1833 226.936 23.6953 227.012 23.1273 227.012ZM30.139 227.012C29.499 227.012 28.931 226.872 28.435 226.592C27.939 226.312 27.547 225.928 27.259 225.44C26.971 224.944 26.827 224.384 26.827 223.76C26.827 223.128 26.971 222.568 27.259 222.08C27.547 221.592 27.939 221.212 28.435 220.94C28.931 220.66 29.499 220.52 30.139 220.52C30.771 220.52 31.335 220.66 31.831 220.94C32.335 221.212 32.727 221.592 33.007 222.08C33.295 222.56 33.439 223.12 33.439 223.76C33.439 224.392 33.295 224.952 33.007 225.44C32.727 225.928 32.335 226.312 31.831 226.592C31.335 226.872 30.771 227.012 30.139 227.012ZM30.139 226.004C30.547 226.004 30.911 225.912 31.231 225.728C31.559 225.544 31.815 225.284 31.999 224.948C32.183 224.604 32.275 224.208 32.275 223.76C32.275 223.304 32.183 222.912 31.999 222.584C31.815 222.248 31.559 221.988 31.231 221.804C30.911 221.62 30.547 221.528 30.139 221.528C29.731 221.528 29.367 221.62 29.047 221.804C28.727 221.988 28.471 222.248 28.279 222.584C28.087 222.912 27.991 223.304 27.991 223.76C27.991 224.208 28.087 224.604 28.279 224.948C28.471 225.284 28.727 225.544 29.047 225.728C29.367 225.912 29.731 226.004 30.139 226.004ZM37.8562 227.012C37.2162 227.012 36.6482 226.872 36.1522 226.592C35.6562 226.312 35.2642 225.928 34.9762 225.44C34.6882 224.944 34.5442 224.384 34.5442 223.76C34.5442 223.128 34.6882 222.568 34.9762 222.08C35.2642 221.592 35.6562 221.212 36.1522 220.94C36.6482 220.66 37.2162 220.52 37.8562 220.52C38.4882 220.52 39.0522 220.66 39.5482 220.94C40.0522 221.212 40.4442 221.592 40.7242 222.08C41.0122 222.56 41.1562 223.12 41.1562 223.76C41.1562 224.392 41.0122 224.952 40.7242 225.44C40.4442 225.928 40.0522 226.312 39.5482 226.592C39.0522 226.872 38.4882 227.012 37.8562 227.012ZM37.8562 226.004C38.2642 226.004 38.6282 225.912 38.9482 225.728C39.2762 225.544 39.5322 225.284 39.7162 224.948C39.9002 224.604 39.9922 224.208 39.9922 223.76C39.9922 223.304 39.9002 222.912 39.7162 222.584C39.5322 222.248 39.2762 221.988 38.9482 221.804C38.6282 221.62 38.2642 221.528 37.8562 221.528C37.4482 221.528 37.0842 221.62 36.7642 221.804C36.4442 221.988 36.1882 222.248 35.9962 222.584C35.8042 222.912 35.7082 223.304 35.7082 223.76C35.7082 224.208 35.8042 224.604 35.9962 224.948C36.1882 225.284 36.4442 225.544 36.7642 225.728C37.0842 225.912 37.4482 226.004 37.8562 226.004ZM46.2454 220.52C46.7654 220.52 47.2214 220.62 47.6134 220.82C48.0134 221.02 48.3254 221.324 48.5494 221.732C48.7734 222.14 48.8854 222.656 48.8854 223.28V226.94H47.7334V223.412C47.7334 222.796 47.5814 222.332 47.2774 222.02C46.9814 221.708 46.5614 221.552 46.0174 221.552C45.6094 221.552 45.2534 221.632 44.9494 221.792C44.6454 221.952 44.4094 222.188 44.2414 222.5C44.0814 222.812 44.0014 223.2 44.0014 223.664V226.94H42.8494V220.58H43.9534V222.296L43.7734 221.84C43.9814 221.424 44.3014 221.1 44.7334 220.868C45.1654 220.636 45.6694 220.52 46.2454 220.52ZM51.3934 227.012C51.1694 227.012 50.9774 226.936 50.8174 226.784C50.6574 226.624 50.5774 226.424 50.5774 226.184C50.5774 225.944 50.6574 225.748 50.8174 225.596C50.9774 225.444 51.1694 225.368 51.3934 225.368C51.6094 225.368 51.7934 225.444 51.9454 225.596C52.1054 225.748 52.1854 225.944 52.1854 226.184C52.1854 226.424 52.1054 226.624 51.9454 226.784C51.7934 226.936 51.6094 227.012 51.3934 227.012ZM59.0948 226.94V219.584H56.2148V218.54H63.1628V219.584H60.2828V226.94H59.0948ZM67.7978 220.52C68.3178 220.52 68.7738 220.62 69.1658 220.82C69.5658 221.02 69.8778 221.324 70.1018 221.732C70.3258 222.14 70.4378 222.656 70.4378 223.28V226.94H69.2858V223.412C69.2858 222.796 69.1338 222.332 68.8298 222.02C68.5338 221.708 68.1138 221.552 67.5698 221.552C67.1618 221.552 66.8058 221.632 66.5018 221.792C66.1978 221.952 65.9618 222.188 65.7938 222.5C65.6338 222.812 65.5538 223.2 65.5538 223.664V226.94H64.4018V218.036H65.5538V222.296L65.3258 221.84C65.5338 221.424 65.8538 221.1 66.2858 220.868C66.7178 220.636 67.2218 220.52 67.7978 220.52ZM76.6177 226.94V225.596L76.5577 225.344V223.052C76.5577 222.564 76.4137 222.188 76.1257 221.924C75.8457 221.652 75.4217 221.516 74.8537 221.516C74.4777 221.516 74.1097 221.58 73.7497 221.708C73.3897 221.828 73.0857 221.992 72.8377 222.2L72.3577 221.336C72.6857 221.072 73.0777 220.872 73.5337 220.736C73.9977 220.592 74.4817 220.52 74.9857 220.52C75.8577 220.52 76.5297 220.732 77.0017 221.156C77.4737 221.58 77.7097 222.228 77.7097 223.1V226.94H76.6177ZM74.5297 227.012C74.0577 227.012 73.6417 226.932 73.2817 226.772C72.9297 226.612 72.6577 226.392 72.4657 226.112C72.2737 225.824 72.1777 225.5 72.1777 225.14C72.1777 224.796 72.2577 224.484 72.4177 224.204C72.5857 223.924 72.8537 223.7 73.2217 223.532C73.5977 223.364 74.1017 223.28 74.7337 223.28H76.7497V224.108H74.7817C74.2057 224.108 73.8177 224.204 73.6177 224.396C73.4177 224.588 73.3177 224.82 73.3177 225.092C73.3177 225.404 73.4417 225.656 73.6897 225.848C73.9377 226.032 74.2817 226.124 74.7217 226.124C75.1537 226.124 75.5297 226.028 75.8497 225.836C76.1777 225.644 76.4137 225.364 76.5577 224.996L76.7857 225.788C76.6337 226.164 76.3657 226.464 75.9817 226.688C75.5977 226.904 75.1137 227.012 74.5297 227.012ZM83.3376 220.52C83.8576 220.52 84.3136 220.62 84.7056 220.82C85.1056 221.02 85.4176 221.324 85.6416 221.732C85.8656 222.14 85.9776 222.656 85.9776 223.28V226.94H84.8256V223.412C84.8256 222.796 84.6736 222.332 84.3696 222.02C84.0736 221.708 83.6536 221.552 83.1096 221.552C82.7016 221.552 82.3456 221.632 82.0416 221.792C81.7376 221.952 81.5016 222.188 81.3336 222.5C81.1736 222.812 81.0936 223.2 81.0936 223.664V226.94H79.9416V220.58H81.0456V222.296L80.8656 221.84C81.0736 221.424 81.3936 221.1 81.8256 220.868C82.2576 220.636 82.7616 220.52 83.3376 220.52ZM89.1456 225.404L89.1696 223.928L92.8296 220.58H94.2216L91.4136 223.34L90.7896 223.868L89.1456 225.404ZM88.2096 226.94V218.036H89.3616V226.94H88.2096ZM93.0696 226.94L90.5736 223.844L91.3176 222.92L94.4856 226.94H93.0696ZM99.3028 229.34C98.9988 229.34 98.7028 229.288 98.4148 229.184C98.1268 229.088 97.8788 228.944 97.6708 228.752L98.1628 227.888C98.3228 228.04 98.4988 228.156 98.6908 228.236C98.8828 228.316 99.0868 228.356 99.3028 228.356C99.5828 228.356 99.8148 228.284 99.9988 228.14C100.183 227.996 100.355 227.74 100.515 227.372L100.911 226.496L101.031 226.352L103.527 220.58H104.655L101.571 227.576C101.387 228.024 101.179 228.376 100.947 228.632C100.723 228.888 100.475 229.068 100.203 229.172C99.9308 229.284 99.6308 229.34 99.3028 229.34ZM100.815 227.144L97.9108 220.58H99.1108L101.583 226.244L100.815 227.144ZM108.378 227.012C107.738 227.012 107.17 226.872 106.674 226.592C106.178 226.312 105.786 225.928 105.498 225.44C105.21 224.944 105.066 224.384 105.066 223.76C105.066 223.128 105.21 222.568 105.498 222.08C105.786 221.592 106.178 221.212 106.674 220.94C107.17 220.66 107.738 220.52 108.378 220.52C109.01 220.52 109.574 220.66 110.07 220.94C110.574 221.212 110.966 221.592 111.246 222.08C111.534 222.56 111.678 223.12 111.678 223.76C111.678 224.392 111.534 224.952 111.246 225.44C110.966 225.928 110.574 226.312 110.07 226.592C109.574 226.872 109.01 227.012 108.378 227.012ZM108.378 226.004C108.786 226.004 109.15 225.912 109.47 225.728C109.798 225.544 110.054 225.284 110.238 224.948C110.422 224.604 110.514 224.208 110.514 223.76C110.514 223.304 110.422 222.912 110.238 222.584C110.054 222.248 109.798 221.988 109.47 221.804C109.15 221.62 108.786 221.528 108.378 221.528C107.97 221.528 107.606 221.62 107.286 221.804C106.966 221.988 106.71 222.248 106.518 222.584C106.326 222.912 106.23 223.304 106.23 223.76C106.23 224.208 106.326 224.604 106.518 224.948C106.71 225.284 106.966 225.544 107.286 225.728C107.606 225.912 107.97 226.004 108.378 226.004ZM116.047 227.012C115.503 227.012 115.023 226.912 114.607 226.712C114.199 226.512 113.879 226.208 113.647 225.8C113.423 225.384 113.311 224.864 113.311 224.24V220.58H114.463V224.108C114.463 224.732 114.611 225.2 114.907 225.512C115.211 225.824 115.635 225.98 116.179 225.98C116.579 225.98 116.927 225.9 117.223 225.74C117.519 225.572 117.747 225.332 117.907 225.02C118.067 224.7 118.147 224.316 118.147 223.868V220.58H119.299V226.94H118.207V225.224L118.387 225.68C118.179 226.104 117.867 226.432 117.451 226.664C117.035 226.896 116.567 227.012 116.047 227.012ZM125.083 226.94V220.016C125.083 219.392 125.263 218.896 125.623 218.528C125.991 218.152 126.511 217.964 127.183 217.964C127.431 217.964 127.667 217.996 127.891 218.06C128.123 218.116 128.319 218.208 128.479 218.336L128.131 219.212C128.011 219.116 127.875 219.044 127.723 218.996C127.571 218.94 127.411 218.912 127.243 218.912C126.907 218.912 126.651 219.008 126.475 219.2C126.299 219.384 126.211 219.66 126.211 220.028V220.88L126.235 221.408V226.94H125.083ZM124.003 221.528V220.58H128.059V221.528H124.003ZM131.876 227.012C131.236 227.012 130.668 226.872 130.172 226.592C129.676 226.312 129.284 225.928 128.996 225.44C128.708 224.944 128.564 224.384 128.564 223.76C128.564 223.128 128.708 222.568 128.996 222.08C129.284 221.592 129.676 221.212 130.172 220.94C130.668 220.66 131.236 220.52 131.876 220.52C132.508 220.52 133.072 220.66 133.568 220.94C134.072 221.212 134.464 221.592 134.744 222.08C135.032 222.56 135.176 223.12 135.176 223.76C135.176 224.392 135.032 224.952 134.744 225.44C134.464 225.928 134.072 226.312 133.568 226.592C133.072 226.872 132.508 227.012 131.876 227.012ZM131.876 226.004C132.284 226.004 132.648 225.912 132.968 225.728C133.296 225.544 133.552 225.284 133.736 224.948C133.92 224.604 134.012 224.208 134.012 223.76C134.012 223.304 133.92 222.912 133.736 222.584C133.552 222.248 133.296 221.988 132.968 221.804C132.648 221.62 132.284 221.528 131.876 221.528C131.468 221.528 131.104 221.62 130.784 221.804C130.464 221.988 130.208 222.248 130.016 222.584C129.824 222.912 129.728 223.304 129.728 223.76C129.728 224.208 129.824 224.604 130.016 224.948C130.208 225.284 130.464 225.544 130.784 225.728C131.104 225.912 131.468 226.004 131.876 226.004ZM136.869 226.94V220.58H137.973V222.308L137.865 221.876C138.041 221.436 138.337 221.1 138.753 220.868C139.169 220.636 139.681 220.52 140.289 220.52V221.636C140.241 221.628 140.193 221.624 140.145 221.624C140.105 221.624 140.065 221.624 140.025 221.624C139.409 221.624 138.921 221.808 138.561 222.176C138.201 222.544 138.021 223.076 138.021 223.772V226.94H136.869ZM145.489 229.34C145.185 229.34 144.889 229.288 144.601 229.184C144.313 229.088 144.065 228.944 143.857 228.752L144.349 227.888C144.509 228.04 144.685 228.156 144.877 228.236C145.069 228.316 145.273 228.356 145.489 228.356C145.769 228.356 146.001 228.284 146.185 228.14C146.369 227.996 146.541 227.74 146.701 227.372L147.097 226.496L147.217 226.352L149.713 220.58H150.841L147.757 227.576C147.573 228.024 147.365 228.376 147.133 228.632C146.909 228.888 146.661 229.068 146.389 229.172C146.117 229.284 145.817 229.34 145.489 229.34ZM147.001 227.144L144.097 220.58H145.297L147.769 226.244L147.001 227.144ZM154.565 227.012C153.925 227.012 153.357 226.872 152.861 226.592C152.365 226.312 151.973 225.928 151.685 225.44C151.397 224.944 151.253 224.384 151.253 223.76C151.253 223.128 151.397 222.568 151.685 222.08C151.973 221.592 152.365 221.212 152.861 220.94C153.357 220.66 153.925 220.52 154.565 220.52C155.197 220.52 155.761 220.66 156.257 220.94C156.761 221.212 157.153 221.592 157.433 222.08C157.721 222.56 157.865 223.12 157.865 223.76C157.865 224.392 157.721 224.952 157.433 225.44C157.153 225.928 156.761 226.312 156.257 226.592C155.761 226.872 155.197 227.012 154.565 227.012ZM154.565 226.004C154.973 226.004 155.337 225.912 155.657 225.728C155.985 225.544 156.241 225.284 156.425 224.948C156.609 224.604 156.701 224.208 156.701 223.76C156.701 223.304 156.609 222.912 156.425 222.584C156.241 222.248 155.985 221.988 155.657 221.804C155.337 221.62 154.973 221.528 154.565 221.528C154.157 221.528 153.793 221.62 153.473 221.804C153.153 221.988 152.897 222.248 152.705 222.584C152.513 222.912 152.417 223.304 152.417 223.76C152.417 224.208 152.513 224.604 152.705 224.948C152.897 225.284 153.153 225.544 153.473 225.728C153.793 225.912 154.157 226.004 154.565 226.004ZM162.234 227.012C161.69 227.012 161.21 226.912 160.794 226.712C160.386 226.512 160.066 226.208 159.834 225.8C159.61 225.384 159.498 224.864 159.498 224.24V220.58H160.65V224.108C160.65 224.732 160.798 225.2 161.094 225.512C161.398 225.824 161.822 225.98 162.366 225.98C162.766 225.98 163.114 225.9 163.41 225.74C163.706 225.572 163.934 225.332 164.094 225.02C164.254 224.7 164.334 224.316 164.334 223.868V220.58H165.486V226.94H164.394V225.224L164.574 225.68C164.366 226.104 164.054 226.432 163.638 226.664C163.222 226.896 162.754 227.012 162.234 227.012ZM167.779 226.94V220.58H168.883V222.308L168.775 221.876C168.951 221.436 169.247 221.1 169.663 220.868C170.079 220.636 170.591 220.52 171.199 220.52V221.636C171.151 221.628 171.103 221.624 171.055 221.624C171.015 221.624 170.975 221.624 170.935 221.624C170.319 221.624 169.831 221.808 169.471 222.176C169.111 222.544 168.931 223.076 168.931 223.772V226.94H167.779ZM179.496 227.012C178.968 227.012 178.484 226.892 178.044 226.652C177.612 226.404 177.264 226.04 177 225.56C176.744 225.08 176.616 224.48 176.616 223.76C176.616 223.04 176.74 222.44 176.988 221.96C177.244 221.48 177.588 221.12 178.02 220.88C178.46 220.64 178.952 220.52 179.496 220.52C180.12 220.52 180.672 220.656 181.152 220.928C181.632 221.2 182.012 221.58 182.292 222.068C182.572 222.548 182.712 223.112 182.712 223.76C182.712 224.408 182.572 224.976 182.292 225.464C182.012 225.952 181.632 226.332 181.152 226.604C180.672 226.876 180.12 227.012 179.496 227.012ZM176.124 229.268V220.58H177.228V222.296L177.156 223.772L177.276 225.248V229.268H176.124ZM179.4 226.004C179.808 226.004 180.172 225.912 180.492 225.728C180.82 225.544 181.076 225.284 181.26 224.948C181.452 224.604 181.548 224.208 181.548 223.76C181.548 223.304 181.452 222.912 181.26 222.584C181.076 222.248 180.82 221.988 180.492 221.804C180.172 221.62 179.808 221.528 179.4 221.528C179 221.528 178.636 221.62 178.308 221.804C177.988 221.988 177.732 222.248 177.54 222.584C177.356 222.912 177.264 223.304 177.264 223.76C177.264 224.208 177.356 224.604 177.54 224.948C177.732 225.284 177.988 225.544 178.308 225.728C178.636 225.912 179 226.004 179.4 226.004ZM188.293 226.94V225.596L188.233 225.344V223.052C188.233 222.564 188.089 222.188 187.801 221.924C187.521 221.652 187.097 221.516 186.529 221.516C186.153 221.516 185.785 221.58 185.425 221.708C185.065 221.828 184.761 221.992 184.513 222.2L184.033 221.336C184.361 221.072 184.753 220.872 185.209 220.736C185.673 220.592 186.157 220.52 186.661 220.52C187.533 220.52 188.205 220.732 188.677 221.156C189.149 221.58 189.385 222.228 189.385 223.1V226.94H188.293ZM186.205 227.012C185.733 227.012 185.317 226.932 184.957 226.772C184.605 226.612 184.333 226.392 184.141 226.112C183.949 225.824 183.853 225.5 183.853 225.14C183.853 224.796 183.933 224.484 184.093 224.204C184.261 223.924 184.529 223.7 184.897 223.532C185.273 223.364 185.777 223.28 186.409 223.28H188.425V224.108H186.457C185.881 224.108 185.493 224.204 185.293 224.396C185.093 224.588 184.993 224.82 184.993 225.092C184.993 225.404 185.117 225.656 185.365 225.848C185.613 226.032 185.957 226.124 186.397 226.124C186.829 226.124 187.205 226.028 187.525 225.836C187.853 225.644 188.089 225.364 188.233 224.996L188.461 225.788C188.309 226.164 188.041 226.464 187.657 226.688C187.273 226.904 186.789 227.012 186.205 227.012ZM193.801 227.012C193.161 227.012 192.665 226.84 192.313 226.496C191.961 226.152 191.785 225.66 191.785 225.02V219.188H192.937V224.972C192.937 225.316 193.021 225.58 193.189 225.764C193.365 225.948 193.613 226.04 193.933 226.04C194.293 226.04 194.593 225.94 194.833 225.74L195.193 226.568C195.017 226.72 194.805 226.832 194.557 226.904C194.317 226.976 194.065 227.012 193.801 227.012ZM190.705 221.528V220.58H194.761V221.528H190.705ZM196.685 226.94V220.58H197.837V226.94H196.685ZM197.261 219.356C197.037 219.356 196.849 219.284 196.697 219.14C196.553 218.996 196.481 218.82 196.481 218.612C196.481 218.396 196.553 218.216 196.697 218.072C196.849 217.928 197.037 217.856 197.261 217.856C197.485 217.856 197.669 217.928 197.813 218.072C197.965 218.208 198.041 218.38 198.041 218.588C198.041 218.804 197.969 218.988 197.825 219.14C197.681 219.284 197.493 219.356 197.261 219.356ZM202.969 227.012C202.289 227.012 201.689 226.872 201.169 226.592C200.657 226.312 200.257 225.928 199.969 225.44C199.689 224.952 199.549 224.392 199.549 223.76C199.549 223.128 199.685 222.568 199.957 222.08C200.237 221.592 200.617 221.212 201.097 220.94C201.585 220.66 202.133 220.52 202.741 220.52C203.357 220.52 203.901 220.656 204.373 220.928C204.845 221.2 205.213 221.584 205.477 222.08C205.749 222.568 205.885 223.14 205.885 223.796C205.885 223.844 205.881 223.9 205.873 223.964C205.873 224.028 205.869 224.088 205.861 224.144H200.449V223.316H205.261L204.793 223.604C204.801 223.196 204.717 222.832 204.541 222.512C204.365 222.192 204.121 221.944 203.809 221.768C203.505 221.584 203.149 221.492 202.741 221.492C202.341 221.492 201.985 221.584 201.673 221.768C201.361 221.944 201.117 222.196 200.941 222.524C200.765 222.844 200.677 223.212 200.677 223.628V223.82C200.677 224.244 200.773 224.624 200.965 224.96C201.165 225.288 201.441 225.544 201.793 225.728C202.145 225.912 202.549 226.004 203.005 226.004C203.381 226.004 203.721 225.94 204.025 225.812C204.337 225.684 204.609 225.492 204.841 225.236L205.477 225.98C205.189 226.316 204.829 226.572 204.397 226.748C203.973 226.924 203.497 227.012 202.969 227.012ZM210.981 220.52C211.501 220.52 211.957 220.62 212.349 220.82C212.749 221.02 213.061 221.324 213.285 221.732C213.509 222.14 213.621 222.656 213.621 223.28V226.94H212.469V223.412C212.469 222.796 212.317 222.332 212.013 222.02C211.717 221.708 211.297 221.552 210.753 221.552C210.345 221.552 209.989 221.632 209.685 221.792C209.381 221.952 209.145 222.188 208.977 222.5C208.817 222.812 208.737 223.2 208.737 223.664V226.94H207.585V220.58H208.689V222.296L208.509 221.84C208.717 221.424 209.037 221.1 209.469 220.868C209.901 220.636 210.405 220.52 210.981 220.52ZM218.625 227.012C217.977 227.012 217.397 226.872 216.885 226.592C216.381 226.312 215.985 225.928 215.697 225.44C215.409 224.952 215.265 224.392 215.265 223.76C215.265 223.128 215.409 222.568 215.697 222.08C215.985 221.592 216.381 221.212 216.885 220.94C217.397 220.66 217.977 220.52 218.625 220.52C219.201 220.52 219.713 220.636 220.161 220.868C220.617 221.092 220.969 221.428 221.217 221.876L220.341 222.44C220.133 222.128 219.877 221.9 219.573 221.756C219.277 221.604 218.957 221.528 218.613 221.528C218.197 221.528 217.825 221.62 217.497 221.804C217.169 221.988 216.909 222.248 216.717 222.584C216.525 222.912 216.429 223.304 216.429 223.76C216.429 224.216 216.525 224.612 216.717 224.948C216.909 225.284 217.169 225.544 217.497 225.728C217.825 225.912 218.197 226.004 218.613 226.004C218.957 226.004 219.277 225.932 219.573 225.788C219.877 225.636 220.133 225.404 220.341 225.092L221.217 225.644C220.969 226.084 220.617 226.424 220.161 226.664C219.713 226.896 219.201 227.012 218.625 227.012ZM225.546 227.012C224.866 227.012 224.266 226.872 223.746 226.592C223.234 226.312 222.834 225.928 222.546 225.44C222.266 224.952 222.126 224.392 222.126 223.76C222.126 223.128 222.262 222.568 222.534 222.08C222.814 221.592 223.194 221.212 223.674 220.94C224.162 220.66 224.71 220.52 225.318 220.52C225.934 220.52 226.478 220.656 226.95 220.928C227.422 221.2 227.79 221.584 228.054 222.08C228.326 222.568 228.462 223.14 228.462 223.796C228.462 223.844 228.458 223.9 228.45 223.964C228.45 224.028 228.446 224.088 228.438 224.144H223.026V223.316H227.838L227.37 223.604C227.378 223.196 227.294 222.832 227.118 222.512C226.942 222.192 226.698 221.944 226.386 221.768C226.082 221.584 225.726 221.492 225.318 221.492C224.918 221.492 224.562 221.584 224.25 221.768C223.938 221.944 223.694 222.196 223.518 222.524C223.342 222.844 223.254 223.212 223.254 223.628V223.82C223.254 224.244 223.35 224.624 223.542 224.96C223.742 225.288 224.018 225.544 224.37 225.728C224.722 225.912 225.126 226.004 225.582 226.004C225.958 226.004 226.298 225.94 226.602 225.812C226.914 225.684 227.186 225.492 227.418 225.236L228.054 225.98C227.766 226.316 227.406 226.572 226.974 226.748C226.55 226.924 226.074 227.012 225.546 227.012ZM230.438 227.012C230.214 227.012 230.022 226.936 229.862 226.784C229.702 226.624 229.622 226.424 229.622 226.184C229.622 225.944 229.702 225.748 229.862 225.596C230.022 225.444 230.214 225.368 230.438 225.368C230.654 225.368 230.838 225.444 230.99 225.596C231.15 225.748 231.23 225.944 231.23 226.184C231.23 226.424 231.15 226.624 230.99 226.784C230.838 226.936 230.654 227.012 230.438 227.012Z" fill="#ABABAF"/>
<defs>
<clipPath id="clip0_749_9393">
<rect width="168.61" height="127.94" fill="white" transform="translate(41.6953)"/>
</clipPath>
</defs>
</svg>
