<svg width="264" height="232" viewBox="0 0 264 232" fill="none" xmlns="http://www.w3.org/2000/svg">
<g clip-path="url(#clip0_749_9580)">
<path d="M195.006 88.8484C194.816 88.639 194.675 88.3906 194.592 88.1207C194.509 87.8508 194.486 87.566 194.525 87.2863C194.563 87.0065 194.663 86.7388 194.817 86.5018C194.97 86.2648 195.174 86.0643 195.413 85.9145L193.882 79.2229L197.223 80.4728L198.165 86.6357C198.39 87.0546 198.454 87.5414 198.344 88.0039C198.234 88.4665 197.958 88.8726 197.568 89.1454C197.179 89.4181 196.703 89.5385 196.231 89.4838C195.758 89.4291 195.322 89.203 195.006 88.8484Z" fill="#FFB8B8"/>
<path d="M194.774 83.5375L191.837 77.8591L192.234 63.5605L192.423 63.9582C192.643 64.4215 197.796 75.3312 197.429 78.9835L198.018 82.3211L194.774 83.5375Z" fill="#3F3D56"/>
<path d="M192.859 125.503H195.214L196.334 116.419L192.858 116.419L192.859 125.503Z" fill="#FFB8B8"/>
<path d="M192.258 124.734L196.896 124.734H196.896C197.68 124.734 198.432 125.045 198.986 125.6C199.54 126.154 199.852 126.906 199.852 127.689V127.786L192.258 127.786L192.258 124.734Z" fill="#2F2E41"/>
<path d="M169.589 123.713L171.858 124.344L175.371 115.892L172.022 114.961L169.589 123.713Z" fill="#FFB8B8"/>
<path d="M169.216 122.811L173.685 124.054L173.685 124.054C174.44 124.264 175.081 124.765 175.466 125.448C175.852 126.13 175.951 126.938 175.741 127.693L175.715 127.786L168.398 125.752L169.216 122.811Z" fill="#2F2E41"/>
<path d="M190.511 121.961L185.758 87.9296L175.492 121.769L167.42 119.013L178.989 73.7007L179.065 73.6953L191.185 72.8523L199.941 119.211L190.511 121.961Z" fill="#2F2E41"/>
<path d="M189.254 57.6643C189.254 57.6643 184.836 55.3591 178.88 56.3196C178.88 56.3196 175.711 63.9665 178.88 67.0107L179.745 74.6652C179.745 74.6652 187.813 79.4677 190.502 73.8968L190.118 67.5575C190.118 67.5575 192.039 64.5171 190.502 62.2913C189.581 60.9317 189.142 59.3028 189.254 57.6643Z" fill="#76ACFF"/>
<path d="M189.814 92.4809L190.589 76.389L188.395 57.246L188.495 57.2308C191.374 56.7967 192.298 61.7566 192.336 61.9679L197.347 90.3004L189.814 92.4809Z" fill="#3F3D56"/>
<path d="M180.044 92.6486L171.185 91.6643L171.187 91.5675C171.218 90.2559 171.981 59.42 174.117 57.2361C176.267 55.0392 180.322 55.9898 180.494 56.0315L180.579 56.0521L179.85 69.1001L180.044 92.6486Z" fill="#3F3D56"/>
<path d="M181.675 74.2187C181.407 74.3067 181.123 74.3349 180.842 74.3011C180.562 74.2674 180.292 74.1726 180.053 74.0234C179.813 73.8742 179.609 73.6742 179.455 73.4376C179.3 73.201 179.2 72.9334 179.16 72.6538L172.424 71.3339L174.924 68.7891L180.938 70.4326C181.412 70.3973 181.882 70.5371 182.26 70.8256C182.638 71.1141 182.897 71.5312 182.988 71.9979C183.079 72.4646 182.996 72.9484 182.754 73.3577C182.512 73.767 182.128 74.0734 181.675 74.2187Z" fill="#FFB8B8"/>
<path d="M178.08 72.674L175.885 72.2021C172.645 73.1767 166.989 69.7457 164.703 68.2217C164.272 67.935 164.133 67.3669 164.288 66.5334C164.517 65.3675 165.159 64.3236 166.097 63.5943L174.149 57.2104L176.181 56.8706L176.784 60.2912L171.655 65.8009L179.206 69.9111L178.08 72.674Z" fill="#3F3D56"/>
<path d="M177.212 53.4237V48.9882C177.212 47.1117 177.957 45.3119 179.284 43.985C180.611 42.6581 182.411 41.9126 184.288 41.9126C186.164 41.9126 187.964 42.6581 189.291 43.985C190.618 45.3119 191.363 47.1117 191.363 48.9882V53.4237C191.363 53.6757 191.263 53.9173 191.084 54.0955C190.906 54.2736 190.665 54.3739 190.413 54.3742H178.162C177.91 54.3739 177.669 54.2736 177.491 54.0955C177.312 53.9173 177.212 53.6757 177.212 53.4237Z" fill="#2F2E41"/>
<path d="M184.003 54.3305C186.868 54.3305 189.191 52.008 189.191 49.1429C189.191 46.2779 186.868 43.9553 184.003 43.9553C181.138 43.9553 178.815 46.2779 178.815 49.1429C178.815 52.008 181.138 54.3305 184.003 54.3305Z" fill="#FFB8B8"/>
<path d="M178.674 49.1231C178.624 49.0659 178.588 48.9987 178.566 48.926C178.545 48.8534 178.54 48.777 178.55 48.7021L179.165 44.423C179.177 44.3359 179.211 44.2532 179.263 44.1825C179.315 44.1117 179.384 44.0551 179.464 44.0177C182.6 42.5497 185.781 42.5478 188.917 44.0121C189.001 44.0515 189.072 44.1119 189.125 44.1873C189.178 44.2627 189.21 44.3505 189.219 44.4421L189.629 48.7268C189.636 48.8001 189.628 48.874 189.605 48.9438C189.582 49.0137 189.544 49.0779 189.495 49.1323C189.445 49.1868 189.385 49.2303 189.317 49.2601C189.25 49.2898 189.177 49.3052 189.104 49.3052H188.063C187.963 49.3049 187.865 49.2762 187.78 49.2223C187.695 49.1683 187.628 49.0914 187.585 49.0005L187.136 48.0385C187.107 47.9762 187.058 47.9251 186.998 47.8928C186.937 47.8605 186.868 47.8488 186.8 47.8595C186.732 47.8702 186.669 47.9027 186.621 47.952C186.573 48.0014 186.543 48.065 186.535 48.1332L186.446 48.8425C186.43 48.9702 186.368 49.0876 186.271 49.1728C186.175 49.2579 186.051 49.305 185.922 49.3052H179.073C178.997 49.3052 178.922 49.289 178.854 49.2575C178.785 49.2261 178.723 49.1802 178.674 49.1231Z" fill="#2F2E41"/>
<path d="M156.888 8.52588H40.5098V80.9958H156.888V8.52588Z" fill="#E6E6E6"/>
<path d="M69.6282 22.4871H48.3135V36.3416H69.6282V22.4871Z" fill="white"/>
<path d="M96.1135 22.4871H74.7988V36.3416H96.1135V22.4871Z" fill="white"/>
<path d="M122.599 22.4871H101.284V36.3416H122.599V22.4871Z" fill="white"/>
<path d="M149.084 22.4871H127.77V36.3416H149.084V22.4871Z" fill="white"/>
<path d="M69.6282 42.0964H48.3135V55.951H69.6282V42.0964Z" fill="white"/>
<path d="M96.1135 42.0964H74.7988V55.951H96.1135V42.0964Z" fill="white"/>
<path d="M122.599 42.0964H101.284V55.951H122.599V42.0964Z" fill="white"/>
<path d="M149.084 42.0964H127.77V55.951H149.084V42.0964Z" fill="white"/>
<path d="M69.6282 61.7061H48.3135V75.5606H69.6282V61.7061Z" fill="white"/>
<path d="M96.1135 61.7061H74.7988V75.5606H96.1135V61.7061Z" fill="white"/>
<path d="M122.599 61.7061H101.284V75.5606H122.599V61.7061Z" fill="white"/>
<path d="M149.084 61.7061H127.77V75.5606H149.084V61.7061Z" fill="white"/>
<path d="M70.9902 17.0516C72.7559 17.0516 74.1874 15.6202 74.1874 13.8544C74.1874 12.0887 72.7559 10.6572 70.9902 10.6572C69.2244 10.6572 67.793 12.0887 67.793 13.8544C67.793 15.6202 69.2244 17.0516 70.9902 17.0516Z" fill="white"/>
<path d="M123.851 17.0519C125.616 17.0519 127.048 15.6204 127.048 13.8547C127.048 12.0889 125.616 10.6575 123.851 10.6575C122.085 10.6575 120.653 12.0889 120.653 13.8547C120.653 15.6204 122.085 17.0519 123.851 17.0519Z" fill="white"/>
<path d="M72.2687 0H69.7109V14.7071H72.2687V0Z" fill="#E6E6E6"/>
<path d="M125.129 0H122.571V14.7071H125.129V0Z" fill="#E6E6E6"/>
<path d="M143.247 29.4143C143.246 30.5718 142.827 31.69 142.067 32.5635C141.308 33.437 140.259 34.0071 139.113 34.169C137.966 34.3309 136.8 34.0738 135.829 33.4448C134.857 32.8159 134.145 31.8575 133.823 30.7456C133.501 29.6337 133.592 28.443 134.078 27.3924C134.563 26.3418 135.412 25.5018 136.468 25.0267C137.523 24.5517 138.715 24.4735 139.823 24.8065C140.932 25.1395 141.883 25.8614 142.502 26.8395C142.989 27.6098 143.248 28.5028 143.247 29.4143Z" fill="#76ACFF"/>
<path d="M142.502 26.8396L137.757 31.5833C137.459 31.1217 135.798 28.9762 135.798 28.9762C136.011 28.761 136.238 28.5604 136.478 28.3758L137.856 30.2127L141.946 26.1218C142.154 26.343 142.34 26.5833 142.502 26.8396Z" fill="white"/>
<path d="M90.276 49.0237C90.2749 50.1812 89.8562 51.2994 89.0967 52.1729C88.3372 53.0464 87.288 53.6164 86.1419 53.7783C84.9958 53.9402 83.8297 53.6831 82.858 53.0542C81.8863 52.4253 81.1741 51.4668 80.8524 50.3549C80.5308 49.243 80.6211 48.0524 81.1069 47.0018C81.5928 45.9512 82.4414 45.1112 83.4969 44.6361C84.5524 44.1611 85.7439 44.0829 86.8525 44.4159C87.961 44.7489 88.9122 45.4708 89.5311 46.4489C90.0185 47.2192 90.2769 48.1122 90.276 49.0237Z" fill="#76ACFF"/>
<path d="M89.5314 46.4489L84.7867 51.1927C84.4885 50.7311 82.8271 48.5855 82.8271 48.5855C83.0401 48.3703 83.2673 48.1698 83.5072 47.9852L84.8849 49.8221L88.9758 45.7312C89.1832 45.9524 89.3692 46.1927 89.5314 46.4489Z" fill="white"/>
<path d="M63.7917 49.0237C63.7906 50.1812 63.3718 51.2994 62.6123 52.1729C61.8529 53.0464 60.8037 53.6165 59.6575 53.7784C58.5114 53.9403 57.3454 53.6832 56.3736 53.0542C55.4019 52.4253 54.6898 51.4668 54.3681 50.3549C54.0464 49.243 54.1367 48.0524 54.6226 47.0018C55.1084 45.9512 55.957 45.1112 57.0125 44.6361C58.0681 44.161 59.2596 44.0829 60.3681 44.4159C61.4767 44.7489 62.4278 45.4708 63.0468 46.4489C63.5342 47.2192 63.7926 48.1122 63.7917 49.0237Z" fill="#76ACFF"/>
<path d="M63.046 46.4489L58.3014 51.1927C58.0032 50.7311 56.3418 48.5855 56.3418 48.5855C56.5547 48.3703 56.7819 48.1698 57.0219 47.9852L58.3995 49.8221L62.4904 45.7312C62.6979 45.9524 62.8839 46.1927 63.046 46.4489Z" fill="white"/>
<path d="M223.279 127.94H142.807C142.751 127.94 142.697 127.918 142.658 127.878C142.618 127.839 142.596 127.785 142.596 127.729C142.596 127.673 142.618 127.619 142.658 127.579C142.697 127.54 142.751 127.518 142.807 127.518H223.279C223.335 127.518 223.389 127.54 223.428 127.579C223.468 127.619 223.49 127.673 223.49 127.729C223.49 127.785 223.468 127.839 223.428 127.878C223.389 127.918 223.335 127.94 223.279 127.94Z" fill="#3F3D56"/>
</g>
<path d="M61.828 179.94V168.74H63.972L70.58 176.804H69.54V168.74H72.1V179.94H69.972L63.348 171.876H64.388V179.94H61.828ZM78.8699 180.068C77.9525 180.068 77.1365 179.876 76.4219 179.492C75.7179 179.108 75.1579 178.585 74.7419 177.924C74.3365 177.252 74.1339 176.489 74.1339 175.636C74.1339 174.772 74.3365 174.009 74.7419 173.348C75.1579 172.676 75.7179 172.153 76.4219 171.78C77.1365 171.396 77.9525 171.204 78.8699 171.204C79.7765 171.204 80.5872 171.396 81.3019 171.78C82.0165 172.153 82.5765 172.671 82.9819 173.332C83.3872 173.993 83.5899 174.761 83.5899 175.636C83.5899 176.489 83.3872 177.252 82.9819 177.924C82.5765 178.585 82.0165 179.108 81.3019 179.492C80.5872 179.876 79.7765 180.068 78.8699 180.068ZM78.8699 178.02C79.2859 178.02 79.6592 177.924 79.9899 177.732C80.3205 177.54 80.5819 177.268 80.7739 176.916C80.9659 176.553 81.0619 176.127 81.0619 175.636C81.0619 175.135 80.9659 174.708 80.7739 174.356C80.5819 174.004 80.3205 173.732 79.9899 173.54C79.6592 173.348 79.2859 173.252 78.8699 173.252C78.4539 173.252 78.0805 173.348 77.7499 173.54C77.4192 173.732 77.1525 174.004 76.9499 174.356C76.7579 174.708 76.6619 175.135 76.6619 175.636C76.6619 176.127 76.7579 176.553 76.9499 176.916C77.1525 177.268 77.4192 177.54 77.7499 177.732C78.0805 177.924 78.4539 178.02 78.8699 178.02ZM93.0855 180.068C92.3495 180.068 91.6402 179.983 90.9575 179.812C90.2855 179.631 89.7522 179.407 89.3575 179.14L90.1895 177.348C90.5842 177.593 91.0482 177.796 91.5815 177.956C92.1255 178.105 92.6588 178.18 93.1815 178.18C93.7575 178.18 94.1628 178.111 94.3975 177.972C94.6428 177.833 94.7655 177.641 94.7655 177.396C94.7655 177.193 94.6695 177.044 94.4775 176.948C94.2962 176.841 94.0508 176.761 93.7415 176.708C93.4322 176.655 93.0908 176.601 92.7175 176.548C92.3548 176.495 91.9868 176.425 91.6135 176.34C91.2402 176.244 90.8988 176.105 90.5895 175.924C90.2802 175.743 90.0295 175.497 89.8375 175.188C89.6562 174.879 89.5655 174.479 89.5655 173.988C89.5655 173.444 89.7202 172.964 90.0295 172.548C90.3495 172.132 90.8082 171.807 91.4055 171.572C92.0028 171.327 92.7175 171.204 93.5495 171.204C94.1362 171.204 94.7335 171.268 95.3415 171.396C95.9495 171.524 96.4562 171.711 96.8615 171.956L96.0295 173.732C95.6135 173.487 95.1922 173.321 94.7655 173.236C94.3495 173.14 93.9442 173.092 93.5495 173.092C92.9948 173.092 92.5895 173.167 92.3335 173.316C92.0775 173.465 91.9495 173.657 91.9495 173.892C91.9495 174.105 92.0402 174.265 92.2215 174.372C92.4135 174.479 92.6642 174.564 92.9735 174.628C93.2828 174.692 93.6188 174.751 93.9815 174.804C94.3548 174.847 94.7282 174.916 95.1015 175.012C95.4748 175.108 95.8108 175.247 96.1095 175.428C96.4188 175.599 96.6695 175.839 96.8615 176.148C97.0535 176.447 97.1495 176.841 97.1495 177.332C97.1495 177.865 96.9895 178.34 96.6695 178.756C96.3495 179.161 95.8855 179.481 95.2775 179.716C94.6802 179.951 93.9495 180.068 93.0855 180.068ZM103.049 180.068C102.121 180.068 101.295 179.881 100.569 179.508C99.8442 179.124 99.2735 178.596 98.8575 177.924C98.4522 177.252 98.2495 176.489 98.2495 175.636C98.2495 174.772 98.4522 174.009 98.8575 173.348C99.2735 172.676 99.8442 172.153 100.569 171.78C101.295 171.396 102.121 171.204 103.049 171.204C103.956 171.204 104.745 171.396 105.417 171.78C106.089 172.153 106.585 172.692 106.905 173.396L104.969 174.436C104.745 174.031 104.463 173.732 104.121 173.54C103.791 173.348 103.428 173.252 103.033 173.252C102.607 173.252 102.223 173.348 101.881 173.54C101.54 173.732 101.268 174.004 101.065 174.356C100.873 174.708 100.777 175.135 100.777 175.636C100.777 176.137 100.873 176.564 101.065 176.916C101.268 177.268 101.54 177.54 101.881 177.732C102.223 177.924 102.607 178.02 103.033 178.02C103.428 178.02 103.791 177.929 104.121 177.748C104.463 177.556 104.745 177.252 104.969 176.836L106.905 177.892C106.585 178.585 106.089 179.124 105.417 179.508C104.745 179.881 103.956 180.068 103.049 180.068ZM113.728 171.204C114.41 171.204 115.018 171.343 115.552 171.62C116.096 171.887 116.522 172.303 116.832 172.868C117.141 173.423 117.296 174.137 117.296 175.012V179.94H114.8V175.396C114.8 174.703 114.645 174.191 114.336 173.86C114.037 173.529 113.61 173.364 113.056 173.364C112.661 173.364 112.304 173.449 111.984 173.62C111.674 173.78 111.429 174.031 111.248 174.372C111.077 174.713 110.992 175.151 110.992 175.684V179.94H108.496V168.068H110.992V173.716L110.432 172.996C110.741 172.42 111.184 171.977 111.76 171.668C112.336 171.359 112.992 171.204 113.728 171.204ZM124.093 180.068C123.111 180.068 122.247 179.876 121.501 179.492C120.765 179.108 120.194 178.585 119.789 177.924C119.383 177.252 119.181 176.489 119.181 175.636C119.181 174.772 119.378 174.009 119.773 173.348C120.178 172.676 120.727 172.153 121.421 171.78C122.114 171.396 122.898 171.204 123.773 171.204C124.615 171.204 125.373 171.385 126.045 171.748C126.727 172.1 127.266 172.612 127.661 173.284C128.055 173.945 128.253 174.74 128.253 175.668C128.253 175.764 128.247 175.876 128.237 176.004C128.226 176.121 128.215 176.233 128.205 176.34H121.213V174.884H126.893L125.933 175.316C125.933 174.868 125.842 174.479 125.661 174.148C125.479 173.817 125.229 173.561 124.909 173.38C124.589 173.188 124.215 173.092 123.789 173.092C123.362 173.092 122.983 173.188 122.653 173.38C122.333 173.561 122.082 173.823 121.901 174.164C121.719 174.495 121.629 174.889 121.629 175.348V175.732C121.629 176.201 121.73 176.617 121.933 176.98C122.146 177.332 122.439 177.604 122.813 177.796C123.197 177.977 123.645 178.068 124.157 178.068C124.615 178.068 125.015 177.999 125.357 177.86C125.709 177.721 126.029 177.513 126.317 177.236L127.645 178.676C127.25 179.124 126.754 179.471 126.157 179.716C125.559 179.951 124.871 180.068 124.093 180.068ZM133.811 180.068C133 180.068 132.269 179.887 131.619 179.524C130.968 179.151 130.451 178.633 130.067 177.972C129.693 177.311 129.507 176.532 129.507 175.636C129.507 174.729 129.693 173.945 130.067 173.284C130.451 172.623 130.968 172.111 131.619 171.748C132.269 171.385 133 171.204 133.811 171.204C134.536 171.204 135.171 171.364 135.715 171.684C136.259 172.004 136.68 172.489 136.979 173.14C137.277 173.791 137.427 174.623 137.427 175.636C137.427 176.639 137.283 177.471 136.995 178.132C136.707 178.783 136.291 179.268 135.747 179.588C135.213 179.908 134.568 180.068 133.811 180.068ZM134.243 178.02C134.648 178.02 135.016 177.924 135.347 177.732C135.677 177.54 135.939 177.268 136.131 176.916C136.333 176.553 136.435 176.127 136.435 175.636C136.435 175.135 136.333 174.708 136.131 174.356C135.939 174.004 135.677 173.732 135.347 173.54C135.016 173.348 134.648 173.252 134.243 173.252C133.827 173.252 133.453 173.348 133.123 173.54C132.792 173.732 132.525 174.004 132.323 174.356C132.131 174.708 132.035 175.135 132.035 175.636C132.035 176.127 132.131 176.553 132.323 176.916C132.525 177.268 132.792 177.54 133.123 177.732C133.453 177.924 133.827 178.02 134.243 178.02ZM136.499 179.94V178.18L136.547 175.62L136.387 173.076V168.068H138.883V179.94H136.499ZM145.025 180.068C144.31 180.068 143.67 179.929 143.105 179.652C142.55 179.375 142.118 178.953 141.809 178.388C141.499 177.812 141.345 177.081 141.345 176.196V171.332H143.841V175.828C143.841 176.543 143.99 177.071 144.289 177.412C144.598 177.743 145.03 177.908 145.585 177.908C145.969 177.908 146.31 177.828 146.609 177.668C146.907 177.497 147.142 177.241 147.313 176.9C147.483 176.548 147.569 176.111 147.569 175.588V171.332H150.065V179.94H147.697V177.572L148.129 178.26C147.841 178.857 147.414 179.311 146.849 179.62C146.294 179.919 145.686 180.068 145.025 180.068ZM152.577 179.94V168.068H155.073V179.94H152.577ZM161.862 180.068C160.88 180.068 160.016 179.876 159.27 179.492C158.534 179.108 157.963 178.585 157.558 177.924C157.152 177.252 156.95 176.489 156.95 175.636C156.95 174.772 157.147 174.009 157.542 173.348C157.947 172.676 158.496 172.153 159.19 171.78C159.883 171.396 160.667 171.204 161.542 171.204C162.384 171.204 163.142 171.385 163.814 171.748C164.496 172.1 165.035 172.612 165.43 173.284C165.824 173.945 166.022 174.74 166.022 175.668C166.022 175.764 166.016 175.876 166.006 176.004C165.995 176.121 165.984 176.233 165.974 176.34H158.982V174.884H164.661L163.702 175.316C163.702 174.868 163.611 174.479 163.43 174.148C163.248 173.817 162.998 173.561 162.678 173.38C162.358 173.188 161.984 173.092 161.558 173.092C161.131 173.092 160.752 173.188 160.422 173.38C160.102 173.561 159.851 173.823 159.67 174.164C159.488 174.495 159.398 174.889 159.398 175.348V175.732C159.398 176.201 159.499 176.617 159.702 176.98C159.915 177.332 160.208 177.604 160.582 177.796C160.966 177.977 161.414 178.068 161.926 178.068C162.384 178.068 162.784 177.999 163.126 177.86C163.478 177.721 163.798 177.513 164.086 177.236L165.414 178.676C165.019 179.124 164.523 179.471 163.926 179.716C163.328 179.951 162.64 180.068 161.862 180.068ZM173.703 183.172C173.255 183.172 172.812 183.103 172.375 182.964C171.937 182.825 171.58 182.633 171.303 182.388L172.215 180.612C172.407 180.783 172.625 180.916 172.871 181.012C173.127 181.108 173.377 181.156 173.623 181.156C173.975 181.156 174.252 181.071 174.455 180.9C174.668 180.74 174.86 180.468 175.031 180.084L175.479 179.028L175.671 178.756L178.759 171.332H181.159L177.271 180.468C176.993 181.161 176.673 181.705 176.311 182.1C175.959 182.495 175.564 182.772 175.127 182.932C174.7 183.092 174.225 183.172 173.703 183.172ZM175.175 180.276L171.335 171.332H173.911L176.887 178.532L175.175 180.276ZM186.415 180.068C185.433 180.068 184.569 179.876 183.823 179.492C183.087 179.108 182.516 178.585 182.111 177.924C181.705 177.252 181.503 176.489 181.503 175.636C181.503 174.772 181.7 174.009 182.095 173.348C182.5 172.676 183.049 172.153 183.743 171.78C184.436 171.396 185.22 171.204 186.095 171.204C186.937 171.204 187.695 171.385 188.367 171.748C189.049 172.1 189.588 172.612 189.983 173.284C190.377 173.945 190.575 174.74 190.575 175.668C190.575 175.764 190.569 175.876 190.559 176.004C190.548 176.121 190.537 176.233 190.527 176.34H183.535V174.884H189.215L188.255 175.316C188.255 174.868 188.164 174.479 187.983 174.148C187.801 173.817 187.551 173.561 187.231 173.38C186.911 173.188 186.537 173.092 186.111 173.092C185.684 173.092 185.305 173.188 184.975 173.38C184.655 173.561 184.404 173.823 184.223 174.164C184.041 174.495 183.951 174.889 183.951 175.348V175.732C183.951 176.201 184.052 176.617 184.255 176.98C184.468 177.332 184.761 177.604 185.135 177.796C185.519 177.977 185.967 178.068 186.479 178.068C186.937 178.068 187.337 177.999 187.679 177.86C188.031 177.721 188.351 177.513 188.639 177.236L189.967 178.676C189.572 179.124 189.076 179.471 188.479 179.716C187.881 179.951 187.193 180.068 186.415 180.068ZM195.956 180.068C194.943 180.068 194.154 179.812 193.588 179.3C193.023 178.777 192.74 178.004 192.74 176.98V169.428H195.236V176.948C195.236 177.311 195.332 177.593 195.524 177.796C195.716 177.988 195.978 178.084 196.308 178.084C196.703 178.084 197.039 177.977 197.316 177.764L197.988 179.524C197.732 179.705 197.423 179.844 197.06 179.94C196.708 180.025 196.34 180.068 195.956 180.068ZM191.412 173.444V171.524H197.38V173.444H191.412ZM199.766 176.052L199.27 168.74H202.246L201.75 176.052H199.766ZM200.758 180.068C200.31 180.068 199.942 179.924 199.654 179.636C199.366 179.348 199.222 179.007 199.222 178.612C199.222 178.207 199.366 177.871 199.654 177.604C199.942 177.327 200.31 177.188 200.758 177.188C201.216 177.188 201.584 177.327 201.862 177.604C202.15 177.871 202.294 178.207 202.294 178.612C202.294 179.007 202.15 179.348 201.862 179.636C201.584 179.924 201.216 180.068 200.758 180.068Z" fill="#F2F2F2"/>
<path d="M3.79043 209.036C3.15043 209.036 2.53843 208.94 1.95443 208.748C1.37043 208.548 0.910428 208.292 0.574428 207.98L1.01843 207.044C1.33843 207.324 1.74643 207.556 2.24243 207.74C2.73843 207.924 3.25443 208.016 3.79043 208.016C4.27843 208.016 4.67443 207.96 4.97843 207.848C5.28243 207.736 5.50643 207.584 5.65043 207.392C5.79443 207.192 5.86643 206.968 5.86643 206.72C5.86643 206.432 5.77043 206.2 5.57843 206.024C5.39443 205.848 5.15043 205.708 4.84643 205.604C4.55043 205.492 4.22243 205.396 3.86243 205.316C3.50243 205.236 3.13843 205.144 2.77043 205.04C2.41043 204.928 2.07843 204.788 1.77443 204.62C1.47843 204.452 1.23843 204.228 1.05443 203.948C0.870428 203.66 0.778428 203.292 0.778428 202.844C0.778428 202.412 0.890428 202.016 1.11443 201.656C1.34643 201.288 1.69843 200.996 2.17043 200.78C2.65043 200.556 3.25843 200.444 3.99443 200.444C4.48243 200.444 4.96643 200.508 5.44643 200.636C5.92643 200.764 6.34243 200.948 6.69443 201.188L6.29843 202.148C5.93843 201.908 5.55843 201.736 5.15843 201.632C4.75843 201.52 4.37043 201.464 3.99443 201.464C3.52243 201.464 3.13443 201.524 2.83043 201.644C2.52643 201.764 2.30243 201.924 2.15843 202.124C2.02243 202.324 1.95443 202.548 1.95443 202.796C1.95443 203.092 2.04643 203.328 2.23043 203.504C2.42243 203.68 2.66643 203.82 2.96243 203.924C3.26643 204.028 3.59843 204.124 3.95843 204.212C4.31843 204.292 4.67843 204.384 5.03843 204.488C5.40643 204.592 5.73843 204.728 6.03443 204.896C6.33843 205.064 6.58243 205.288 6.76643 205.568C6.95043 205.848 7.04243 206.208 7.04243 206.648C7.04243 207.072 6.92643 207.468 6.69443 207.836C6.46243 208.196 6.10243 208.488 5.61443 208.712C5.13443 208.928 4.52643 209.036 3.79043 209.036ZM11.4996 209.012C10.8516 209.012 10.2716 208.872 9.75955 208.592C9.25555 208.312 8.85955 207.928 8.57155 207.44C8.28355 206.952 8.13955 206.392 8.13955 205.76C8.13955 205.128 8.28355 204.568 8.57155 204.08C8.85955 203.592 9.25555 203.212 9.75955 202.94C10.2716 202.66 10.8516 202.52 11.4996 202.52C12.0756 202.52 12.5876 202.636 13.0356 202.868C13.4916 203.092 13.8436 203.428 14.0916 203.876L13.2156 204.44C13.0076 204.128 12.7516 203.9 12.4476 203.756C12.1516 203.604 11.8316 203.528 11.4876 203.528C11.0716 203.528 10.6996 203.62 10.3716 203.804C10.0436 203.988 9.78355 204.248 9.59155 204.584C9.39955 204.912 9.30355 205.304 9.30355 205.76C9.30355 206.216 9.39955 206.612 9.59155 206.948C9.78355 207.284 10.0436 207.544 10.3716 207.728C10.6996 207.912 11.0716 208.004 11.4876 208.004C11.8316 208.004 12.1516 207.932 12.4476 207.788C12.7516 207.636 13.0076 207.404 13.2156 207.092L14.0916 207.644C13.8436 208.084 13.4916 208.424 13.0356 208.664C12.5876 208.896 12.0756 209.012 11.4996 209.012ZM18.997 202.52C19.517 202.52 19.973 202.62 20.365 202.82C20.765 203.02 21.077 203.324 21.301 203.732C21.525 204.14 21.637 204.656 21.637 205.28V208.94H20.485V205.412C20.485 204.796 20.333 204.332 20.029 204.02C19.733 203.708 19.313 203.552 18.769 203.552C18.361 203.552 18.005 203.632 17.701 203.792C17.397 203.952 17.161 204.188 16.993 204.5C16.833 204.812 16.753 205.2 16.753 205.664V208.94H15.601V200.036H16.753V204.296L16.525 203.84C16.733 203.424 17.053 203.1 17.485 202.868C17.917 202.636 18.421 202.52 18.997 202.52ZM26.701 209.012C26.021 209.012 25.421 208.872 24.901 208.592C24.389 208.312 23.989 207.928 23.701 207.44C23.421 206.952 23.281 206.392 23.281 205.76C23.281 205.128 23.417 204.568 23.689 204.08C23.969 203.592 24.349 203.212 24.829 202.94C25.317 202.66 25.865 202.52 26.473 202.52C27.089 202.52 27.633 202.656 28.105 202.928C28.577 203.2 28.945 203.584 29.209 204.08C29.481 204.568 29.617 205.14 29.617 205.796C29.617 205.844 29.613 205.9 29.605 205.964C29.605 206.028 29.601 206.088 29.593 206.144H24.181V205.316H28.993L28.525 205.604C28.533 205.196 28.449 204.832 28.273 204.512C28.097 204.192 27.853 203.944 27.541 203.768C27.237 203.584 26.881 203.492 26.473 203.492C26.073 203.492 25.717 203.584 25.405 203.768C25.093 203.944 24.849 204.196 24.673 204.524C24.497 204.844 24.409 205.212 24.409 205.628V205.82C24.409 206.244 24.505 206.624 24.697 206.96C24.897 207.288 25.173 207.544 25.525 207.728C25.877 207.912 26.281 208.004 26.737 208.004C27.113 208.004 27.453 207.94 27.757 207.812C28.069 207.684 28.341 207.492 28.573 207.236L29.209 207.98C28.921 208.316 28.561 208.572 28.129 208.748C27.705 208.924 27.229 209.012 26.701 209.012ZM33.9446 209.012C33.3286 209.012 32.7766 208.876 32.2886 208.604C31.8086 208.332 31.4286 207.952 31.1486 207.464C30.8686 206.976 30.7286 206.408 30.7286 205.76C30.7286 205.112 30.8686 204.548 31.1486 204.068C31.4286 203.58 31.8086 203.2 32.2886 202.928C32.7766 202.656 33.3286 202.52 33.9446 202.52C34.4806 202.52 34.9646 202.64 35.3966 202.88C35.8286 203.12 36.1726 203.48 36.4286 203.96C36.6926 204.44 36.8246 205.04 36.8246 205.76C36.8246 206.48 36.6966 207.08 36.4406 207.56C36.1926 208.04 35.8526 208.404 35.4206 208.652C34.9886 208.892 34.4966 209.012 33.9446 209.012ZM34.0406 208.004C34.4406 208.004 34.8006 207.912 35.1206 207.728C35.4486 207.544 35.7046 207.284 35.8886 206.948C36.0806 206.604 36.1766 206.208 36.1766 205.76C36.1766 205.304 36.0806 204.912 35.8886 204.584C35.7046 204.248 35.4486 203.988 35.1206 203.804C34.8006 203.62 34.4406 203.528 34.0406 203.528C33.6326 203.528 33.2686 203.62 32.9486 203.804C32.6286 203.988 32.3726 204.248 32.1806 204.584C31.9886 204.912 31.8926 205.304 31.8926 205.76C31.8926 206.208 31.9886 206.604 32.1806 206.948C32.3726 207.284 32.6286 207.544 32.9486 207.728C33.2686 207.912 33.6326 208.004 34.0406 208.004ZM36.2126 208.94V207.224L36.2846 205.748L36.1646 204.272V200.036H37.3166V208.94H36.2126ZM42.2723 209.012C41.7283 209.012 41.2483 208.912 40.8323 208.712C40.4243 208.512 40.1043 208.208 39.8723 207.8C39.6483 207.384 39.5363 206.864 39.5363 206.24V202.58H40.6883V206.108C40.6883 206.732 40.8363 207.2 41.1323 207.512C41.4363 207.824 41.8603 207.98 42.4043 207.98C42.8043 207.98 43.1523 207.9 43.4483 207.74C43.7443 207.572 43.9723 207.332 44.1323 207.02C44.2923 206.7 44.3723 206.316 44.3723 205.868V202.58H45.5243V208.94H44.4323V207.224L44.6123 207.68C44.4043 208.104 44.0923 208.432 43.6763 208.664C43.2603 208.896 42.7923 209.012 42.2723 209.012ZM47.8174 208.94V200.036H48.9694V208.94H47.8174ZM54.101 209.012C53.421 209.012 52.821 208.872 52.301 208.592C51.789 208.312 51.389 207.928 51.101 207.44C50.821 206.952 50.681 206.392 50.681 205.76C50.681 205.128 50.817 204.568 51.089 204.08C51.369 203.592 51.749 203.212 52.229 202.94C52.717 202.66 53.265 202.52 53.873 202.52C54.489 202.52 55.033 202.656 55.505 202.928C55.977 203.2 56.345 203.584 56.609 204.08C56.881 204.568 57.017 205.14 57.017 205.796C57.017 205.844 57.013 205.9 57.005 205.964C57.005 206.028 57.001 206.088 56.993 206.144H51.581V205.316H56.393L55.925 205.604C55.933 205.196 55.849 204.832 55.673 204.512C55.497 204.192 55.253 203.944 54.941 203.768C54.637 203.584 54.281 203.492 53.873 203.492C53.473 203.492 53.117 203.584 52.805 203.768C52.493 203.944 52.249 204.196 52.073 204.524C51.897 204.844 51.809 205.212 51.809 205.628V205.82C51.809 206.244 51.905 206.624 52.097 206.96C52.297 207.288 52.573 207.544 52.925 207.728C53.277 207.912 53.681 208.004 54.137 208.004C54.513 208.004 54.853 207.94 55.157 207.812C55.469 207.684 55.741 207.492 55.973 207.236L56.609 207.98C56.321 208.316 55.961 208.572 55.529 208.748C55.105 208.924 54.629 209.012 54.101 209.012ZM64.7633 209.012C64.1233 209.012 63.5553 208.872 63.0593 208.592C62.5633 208.312 62.1713 207.928 61.8833 207.44C61.5953 206.944 61.4513 206.384 61.4513 205.76C61.4513 205.128 61.5953 204.568 61.8833 204.08C62.1713 203.592 62.5633 203.212 63.0593 202.94C63.5553 202.66 64.1233 202.52 64.7633 202.52C65.3953 202.52 65.9593 202.66 66.4553 202.94C66.9593 203.212 67.3513 203.592 67.6313 204.08C67.9193 204.56 68.0633 205.12 68.0633 205.76C68.0633 206.392 67.9193 206.952 67.6313 207.44C67.3513 207.928 66.9593 208.312 66.4553 208.592C65.9593 208.872 65.3953 209.012 64.7633 209.012ZM64.7633 208.004C65.1713 208.004 65.5353 207.912 65.8553 207.728C66.1833 207.544 66.4393 207.284 66.6233 206.948C66.8073 206.604 66.8993 206.208 66.8993 205.76C66.8993 205.304 66.8073 204.912 66.6233 204.584C66.4393 204.248 66.1833 203.988 65.8553 203.804C65.5353 203.62 65.1713 203.528 64.7633 203.528C64.3553 203.528 63.9913 203.62 63.6713 203.804C63.3513 203.988 63.0953 204.248 62.9033 204.584C62.7113 204.912 62.6153 205.304 62.6153 205.76C62.6153 206.208 62.7113 206.604 62.9033 206.948C63.0953 207.284 63.3513 207.544 63.6713 207.728C63.9913 207.912 64.3553 208.004 64.7633 208.004ZM69.9245 208.94V202.016C69.9245 201.392 70.1045 200.896 70.4645 200.528C70.8325 200.152 71.3525 199.964 72.0245 199.964C72.2725 199.964 72.5085 199.996 72.7325 200.06C72.9645 200.116 73.1605 200.208 73.3205 200.336L72.9725 201.212C72.8525 201.116 72.7165 201.044 72.5645 200.996C72.4125 200.94 72.2525 200.912 72.0845 200.912C71.7485 200.912 71.4925 201.008 71.3165 201.2C71.1405 201.384 71.0525 201.66 71.0525 202.028V202.88L71.0765 203.408V208.94H69.9245ZM68.8445 203.528V202.58H72.9005V203.528H68.8445ZM79.0776 208.94L76.2936 202.58H77.4936L79.9656 208.34H79.3896L81.9096 202.58H83.0376L80.2536 208.94H79.0776ZM87.9615 208.94V207.596L87.9015 207.344V205.052C87.9015 204.564 87.7575 204.188 87.4695 203.924C87.1895 203.652 86.7655 203.516 86.1975 203.516C85.8215 203.516 85.4535 203.58 85.0935 203.708C84.7335 203.828 84.4295 203.992 84.1815 204.2L83.7015 203.336C84.0295 203.072 84.4215 202.872 84.8775 202.736C85.3415 202.592 85.8255 202.52 86.3295 202.52C87.2015 202.52 87.8735 202.732 88.3455 203.156C88.8175 203.58 89.0535 204.228 89.0535 205.1V208.94H87.9615ZM85.8735 209.012C85.4015 209.012 84.9855 208.932 84.6255 208.772C84.2735 208.612 84.0015 208.392 83.8095 208.112C83.6175 207.824 83.5215 207.5 83.5215 207.14C83.5215 206.796 83.6015 206.484 83.7615 206.204C83.9295 205.924 84.1975 205.7 84.5655 205.532C84.9415 205.364 85.4455 205.28 86.0775 205.28H88.0935V206.108H86.1255C85.5495 206.108 85.1615 206.204 84.9615 206.396C84.7615 206.588 84.6615 206.82 84.6615 207.092C84.6615 207.404 84.7855 207.656 85.0335 207.848C85.2815 208.032 85.6255 208.124 86.0655 208.124C86.4975 208.124 86.8735 208.028 87.1935 207.836C87.5215 207.644 87.7575 207.364 87.9015 206.996L88.1295 207.788C87.9775 208.164 87.7095 208.464 87.3255 208.688C86.9415 208.904 86.4575 209.012 85.8735 209.012ZM91.2854 208.94V202.58H92.3894V204.308L92.2814 203.876C92.4574 203.436 92.7534 203.1 93.1694 202.868C93.5854 202.636 94.0974 202.52 94.7054 202.52V203.636C94.6574 203.628 94.6094 203.624 94.5614 203.624C94.5214 203.624 94.4814 203.624 94.4414 203.624C93.8254 203.624 93.3374 203.808 92.9774 204.176C92.6174 204.544 92.4374 205.076 92.4374 205.772V208.94H91.2854ZM96.2252 208.94V202.58H97.3772V208.94H96.2252ZM96.8012 201.356C96.5772 201.356 96.3892 201.284 96.2372 201.14C96.0932 200.996 96.0212 200.82 96.0212 200.612C96.0212 200.396 96.0932 200.216 96.2372 200.072C96.3892 199.928 96.5772 199.856 96.8012 199.856C97.0252 199.856 97.2092 199.928 97.3532 200.072C97.5052 200.208 97.5812 200.38 97.5812 200.588C97.5812 200.804 97.5092 200.988 97.3652 201.14C97.2212 201.284 97.0332 201.356 96.8012 201.356ZM102.401 209.012C101.761 209.012 101.193 208.872 100.697 208.592C100.201 208.312 99.8088 207.928 99.5208 207.44C99.2328 206.944 99.0888 206.384 99.0888 205.76C99.0888 205.128 99.2328 204.568 99.5208 204.08C99.8088 203.592 100.201 203.212 100.697 202.94C101.193 202.66 101.761 202.52 102.401 202.52C103.033 202.52 103.597 202.66 104.093 202.94C104.597 203.212 104.989 203.592 105.269 204.08C105.557 204.56 105.701 205.12 105.701 205.76C105.701 206.392 105.557 206.952 105.269 207.44C104.989 207.928 104.597 208.312 104.093 208.592C103.597 208.872 103.033 209.012 102.401 209.012ZM102.401 208.004C102.809 208.004 103.173 207.912 103.493 207.728C103.821 207.544 104.077 207.284 104.261 206.948C104.445 206.604 104.537 206.208 104.537 205.76C104.537 205.304 104.445 204.912 104.261 204.584C104.077 204.248 103.821 203.988 103.493 203.804C103.173 203.62 102.809 203.528 102.401 203.528C101.993 203.528 101.629 203.62 101.309 203.804C100.989 203.988 100.733 204.248 100.541 204.584C100.349 204.912 100.253 205.304 100.253 205.76C100.253 206.208 100.349 206.604 100.541 206.948C100.733 207.284 100.989 207.544 101.309 207.728C101.629 207.912 101.993 208.004 102.401 208.004ZM110.07 209.012C109.526 209.012 109.046 208.912 108.63 208.712C108.222 208.512 107.902 208.208 107.67 207.8C107.446 207.384 107.334 206.864 107.334 206.24V202.58H108.486V206.108C108.486 206.732 108.634 207.2 108.93 207.512C109.234 207.824 109.658 207.98 110.202 207.98C110.602 207.98 110.95 207.9 111.246 207.74C111.542 207.572 111.77 207.332 111.93 207.02C112.09 206.7 112.17 206.316 112.17 205.868V202.58H113.322V208.94H112.23V207.224L112.41 207.68C112.202 208.104 111.89 208.432 111.474 208.664C111.058 208.896 110.59 209.012 110.07 209.012ZM117.439 209.012C116.911 209.012 116.407 208.94 115.927 208.796C115.455 208.652 115.083 208.476 114.811 208.268L115.291 207.356C115.563 207.54 115.899 207.696 116.299 207.824C116.699 207.952 117.107 208.016 117.523 208.016C118.059 208.016 118.443 207.94 118.675 207.788C118.915 207.636 119.035 207.424 119.035 207.152C119.035 206.952 118.963 206.796 118.819 206.684C118.675 206.572 118.483 206.488 118.243 206.432C118.011 206.376 117.751 206.328 117.463 206.288C117.175 206.24 116.887 206.184 116.599 206.12C116.311 206.048 116.047 205.952 115.807 205.832C115.567 205.704 115.375 205.532 115.231 205.316C115.087 205.092 115.015 204.796 115.015 204.428C115.015 204.044 115.123 203.708 115.339 203.42C115.555 203.132 115.859 202.912 116.251 202.76C116.651 202.6 117.123 202.52 117.667 202.52C118.083 202.52 118.503 202.572 118.927 202.676C119.359 202.772 119.711 202.912 119.983 203.096L119.491 204.008C119.203 203.816 118.903 203.684 118.591 203.612C118.279 203.54 117.967 203.504 117.655 203.504C117.151 203.504 116.775 203.588 116.527 203.756C116.279 203.916 116.155 204.124 116.155 204.38C116.155 204.596 116.227 204.764 116.371 204.884C116.523 204.996 116.715 205.084 116.947 205.148C117.187 205.212 117.451 205.268 117.739 205.316C118.027 205.356 118.315 205.412 118.603 205.484C118.891 205.548 119.151 205.64 119.383 205.76C119.623 205.88 119.815 206.048 119.959 206.264C120.111 206.48 120.187 206.768 120.187 207.128C120.187 207.512 120.075 207.844 119.851 208.124C119.627 208.404 119.311 208.624 118.903 208.784C118.495 208.936 118.007 209.012 117.439 209.012ZM127.881 209.012C127.201 209.012 126.601 208.872 126.081 208.592C125.569 208.312 125.169 207.928 124.881 207.44C124.601 206.952 124.461 206.392 124.461 205.76C124.461 205.128 124.597 204.568 124.869 204.08C125.149 203.592 125.529 203.212 126.009 202.94C126.497 202.66 127.045 202.52 127.653 202.52C128.269 202.52 128.813 202.656 129.285 202.928C129.757 203.2 130.125 203.584 130.389 204.08C130.661 204.568 130.797 205.14 130.797 205.796C130.797 205.844 130.793 205.9 130.785 205.964C130.785 206.028 130.781 206.088 130.773 206.144H125.361V205.316H130.173L129.705 205.604C129.713 205.196 129.629 204.832 129.453 204.512C129.277 204.192 129.033 203.944 128.721 203.768C128.417 203.584 128.061 203.492 127.653 203.492C127.253 203.492 126.897 203.584 126.585 203.768C126.273 203.944 126.029 204.196 125.853 204.524C125.677 204.844 125.589 205.212 125.589 205.628V205.82C125.589 206.244 125.685 206.624 125.877 206.96C126.077 207.288 126.353 207.544 126.705 207.728C127.057 207.912 127.461 208.004 127.917 208.004C128.293 208.004 128.633 207.94 128.937 207.812C129.249 207.684 129.521 207.492 129.753 207.236L130.389 207.98C130.101 208.316 129.741 208.572 129.309 208.748C128.885 208.924 128.409 209.012 127.881 209.012ZM134.048 208.94L131.264 202.58H132.464L134.936 208.34H134.36L136.88 202.58H138.008L135.224 208.94H134.048ZM141.839 209.012C141.159 209.012 140.559 208.872 140.039 208.592C139.527 208.312 139.127 207.928 138.839 207.44C138.559 206.952 138.419 206.392 138.419 205.76C138.419 205.128 138.555 204.568 138.827 204.08C139.107 203.592 139.487 203.212 139.967 202.94C140.455 202.66 141.003 202.52 141.611 202.52C142.227 202.52 142.771 202.656 143.243 202.928C143.715 203.2 144.083 203.584 144.347 204.08C144.619 204.568 144.755 205.14 144.755 205.796C144.755 205.844 144.751 205.9 144.743 205.964C144.743 206.028 144.739 206.088 144.731 206.144H139.319V205.316H144.131L143.663 205.604C143.671 205.196 143.587 204.832 143.411 204.512C143.235 204.192 142.991 203.944 142.679 203.768C142.375 203.584 142.019 203.492 141.611 203.492C141.211 203.492 140.855 203.584 140.543 203.768C140.231 203.944 139.987 204.196 139.811 204.524C139.635 204.844 139.547 205.212 139.547 205.628V205.82C139.547 206.244 139.643 206.624 139.835 206.96C140.035 207.288 140.311 207.544 140.663 207.728C141.015 207.912 141.419 208.004 141.875 208.004C142.251 208.004 142.591 207.94 142.895 207.812C143.207 207.684 143.479 207.492 143.711 207.236L144.347 207.98C144.059 208.316 143.699 208.572 143.267 208.748C142.843 208.924 142.367 209.012 141.839 209.012ZM149.851 202.52C150.371 202.52 150.827 202.62 151.219 202.82C151.619 203.02 151.931 203.324 152.155 203.732C152.379 204.14 152.491 204.656 152.491 205.28V208.94H151.339V205.412C151.339 204.796 151.187 204.332 150.883 204.02C150.587 203.708 150.167 203.552 149.623 203.552C149.215 203.552 148.859 203.632 148.555 203.792C148.251 203.952 148.015 204.188 147.847 204.5C147.687 204.812 147.607 205.2 147.607 205.664V208.94H146.455V202.58H147.559V204.296L147.379 203.84C147.587 203.424 147.907 203.1 148.339 202.868C148.771 202.636 149.275 202.52 149.851 202.52ZM156.907 209.012C156.267 209.012 155.771 208.84 155.419 208.496C155.067 208.152 154.891 207.66 154.891 207.02V201.188H156.043V206.972C156.043 207.316 156.127 207.58 156.295 207.764C156.471 207.948 156.719 208.04 157.039 208.04C157.399 208.04 157.699 207.94 157.939 207.74L158.299 208.568C158.123 208.72 157.911 208.832 157.663 208.904C157.423 208.976 157.171 209.012 156.907 209.012ZM153.811 203.528V202.58H157.867V203.528H153.811ZM161.616 209.012C161.088 209.012 160.584 208.94 160.104 208.796C159.632 208.652 159.26 208.476 158.988 208.268L159.468 207.356C159.74 207.54 160.076 207.696 160.476 207.824C160.876 207.952 161.284 208.016 161.7 208.016C162.236 208.016 162.62 207.94 162.852 207.788C163.092 207.636 163.212 207.424 163.212 207.152C163.212 206.952 163.14 206.796 162.996 206.684C162.852 206.572 162.66 206.488 162.42 206.432C162.188 206.376 161.928 206.328 161.64 206.288C161.352 206.24 161.064 206.184 160.776 206.12C160.488 206.048 160.224 205.952 159.984 205.832C159.744 205.704 159.552 205.532 159.408 205.316C159.264 205.092 159.192 204.796 159.192 204.428C159.192 204.044 159.3 203.708 159.516 203.42C159.732 203.132 160.036 202.912 160.428 202.76C160.828 202.6 161.3 202.52 161.844 202.52C162.26 202.52 162.68 202.572 163.104 202.676C163.536 202.772 163.888 202.912 164.16 203.096L163.668 204.008C163.38 203.816 163.08 203.684 162.768 203.612C162.456 203.54 162.144 203.504 161.832 203.504C161.328 203.504 160.952 203.588 160.704 203.756C160.456 203.916 160.332 204.124 160.332 204.38C160.332 204.596 160.404 204.764 160.548 204.884C160.7 204.996 160.892 205.084 161.124 205.148C161.364 205.212 161.628 205.268 161.916 205.316C162.204 205.356 162.492 205.412 162.78 205.484C163.068 205.548 163.328 205.64 163.56 205.76C163.8 205.88 163.992 206.048 164.136 206.264C164.288 206.48 164.364 206.768 164.364 207.128C164.364 207.512 164.252 207.844 164.028 208.124C163.804 208.404 163.488 208.624 163.08 208.784C162.672 208.936 162.184 209.012 161.616 209.012ZM170.57 208.94L168.206 202.58H169.298L171.398 208.34H170.882L173.066 202.58H174.038L176.174 208.34H175.67L177.818 202.58H178.85L176.474 208.94H175.37L173.366 203.684H173.702L171.674 208.94H170.57ZM180.119 208.94V202.58H181.271V208.94H180.119ZM180.695 201.356C180.471 201.356 180.283 201.284 180.131 201.14C179.987 200.996 179.915 200.82 179.915 200.612C179.915 200.396 179.987 200.216 180.131 200.072C180.283 199.928 180.471 199.856 180.695 199.856C180.919 199.856 181.103 199.928 181.247 200.072C181.399 200.208 181.475 200.38 181.475 200.588C181.475 200.804 181.403 200.988 181.259 201.14C181.115 201.284 180.927 201.356 180.695 201.356ZM183.571 208.94V200.036H184.723V208.94H183.571ZM187.022 208.94V200.036H188.174V208.94H187.022ZM197.168 209.012C196.624 209.012 196.132 208.892 195.692 208.652C195.26 208.404 194.916 208.04 194.66 207.56C194.412 207.08 194.288 206.48 194.288 205.76C194.288 205.04 194.416 204.44 194.672 203.96C194.936 203.48 195.284 203.12 195.716 202.88C196.156 202.64 196.64 202.52 197.168 202.52C197.792 202.52 198.344 202.656 198.824 202.928C199.304 203.2 199.684 203.58 199.964 204.068C200.244 204.548 200.384 205.112 200.384 205.76C200.384 206.408 200.244 206.976 199.964 207.464C199.684 207.952 199.304 208.332 198.824 208.604C198.344 208.876 197.792 209.012 197.168 209.012ZM193.796 208.94V200.036H194.948V204.272L194.828 205.748L194.9 207.224V208.94H193.796ZM197.072 208.004C197.48 208.004 197.844 207.912 198.164 207.728C198.492 207.544 198.748 207.284 198.932 206.948C199.124 206.604 199.22 206.208 199.22 205.76C199.22 205.304 199.124 204.912 198.932 204.584C198.748 204.248 198.492 203.988 198.164 203.804C197.844 203.62 197.48 203.528 197.072 203.528C196.672 203.528 196.308 203.62 195.98 203.804C195.66 203.988 195.404 204.248 195.212 204.584C195.028 204.912 194.936 205.304 194.936 205.76C194.936 206.208 195.028 206.604 195.212 206.948C195.404 207.284 195.66 207.544 195.98 207.728C196.308 207.912 196.672 208.004 197.072 208.004ZM204.908 209.012C204.228 209.012 203.628 208.872 203.108 208.592C202.596 208.312 202.196 207.928 201.908 207.44C201.628 206.952 201.488 206.392 201.488 205.76C201.488 205.128 201.624 204.568 201.896 204.08C202.176 203.592 202.556 203.212 203.036 202.94C203.524 202.66 204.072 202.52 204.68 202.52C205.296 202.52 205.84 202.656 206.312 202.928C206.784 203.2 207.152 203.584 207.416 204.08C207.688 204.568 207.824 205.14 207.824 205.796C207.824 205.844 207.82 205.9 207.812 205.964C207.812 206.028 207.808 206.088 207.8 206.144H202.388V205.316H207.2L206.732 205.604C206.74 205.196 206.656 204.832 206.48 204.512C206.304 204.192 206.06 203.944 205.748 203.768C205.444 203.584 205.088 203.492 204.68 203.492C204.28 203.492 203.924 203.584 203.612 203.768C203.3 203.944 203.056 204.196 202.88 204.524C202.704 204.844 202.616 205.212 202.616 205.628V205.82C202.616 206.244 202.712 206.624 202.904 206.96C203.104 207.288 203.38 207.544 203.732 207.728C204.084 207.912 204.488 208.004 204.944 208.004C205.32 208.004 205.66 207.94 205.964 207.812C206.276 207.684 206.548 207.492 206.78 207.236L207.416 207.98C207.128 208.316 206.768 208.572 206.336 208.748C205.912 208.924 205.436 209.012 204.908 209.012ZM212.846 208.94V202.58H213.95V204.308L213.842 203.876C214.018 203.436 214.314 203.1 214.73 202.868C215.146 202.636 215.658 202.52 216.266 202.52V203.636C216.218 203.628 216.17 203.624 216.122 203.624C216.082 203.624 216.042 203.624 216.002 203.624C215.386 203.624 214.898 203.808 214.538 204.176C214.178 204.544 213.998 205.076 213.998 205.772V208.94H212.846ZM220.56 209.012C219.88 209.012 219.28 208.872 218.76 208.592C218.248 208.312 217.848 207.928 217.56 207.44C217.28 206.952 217.14 206.392 217.14 205.76C217.14 205.128 217.276 204.568 217.548 204.08C217.828 203.592 218.208 203.212 218.688 202.94C219.176 202.66 219.724 202.52 220.332 202.52C220.948 202.52 221.492 202.656 221.964 202.928C222.436 203.2 222.804 203.584 223.068 204.08C223.34 204.568 223.476 205.14 223.476 205.796C223.476 205.844 223.472 205.9 223.464 205.964C223.464 206.028 223.46 206.088 223.452 206.144H218.04V205.316H222.852L222.384 205.604C222.392 205.196 222.308 204.832 222.132 204.512C221.956 204.192 221.712 203.944 221.4 203.768C221.096 203.584 220.74 203.492 220.332 203.492C219.932 203.492 219.576 203.584 219.264 203.768C218.952 203.944 218.708 204.196 218.532 204.524C218.356 204.844 218.268 205.212 218.268 205.628V205.82C218.268 206.244 218.364 206.624 218.556 206.96C218.756 207.288 219.032 207.544 219.384 207.728C219.736 207.912 220.14 208.004 220.596 208.004C220.972 208.004 221.312 207.94 221.616 207.812C221.928 207.684 222.2 207.492 222.432 207.236L223.068 207.98C222.78 208.316 222.42 208.572 221.988 208.748C221.564 208.924 221.088 209.012 220.56 209.012ZM225.175 208.94V200.036H226.327V208.94H225.175ZM231.459 209.012C230.779 209.012 230.179 208.872 229.659 208.592C229.147 208.312 228.747 207.928 228.459 207.44C228.179 206.952 228.039 206.392 228.039 205.76C228.039 205.128 228.175 204.568 228.447 204.08C228.727 203.592 229.107 203.212 229.587 202.94C230.075 202.66 230.623 202.52 231.231 202.52C231.847 202.52 232.391 202.656 232.863 202.928C233.335 203.2 233.703 203.584 233.967 204.08C234.239 204.568 234.375 205.14 234.375 205.796C234.375 205.844 234.371 205.9 234.363 205.964C234.363 206.028 234.359 206.088 234.351 206.144H228.939V205.316H233.751L233.283 205.604C233.291 205.196 233.207 204.832 233.031 204.512C232.855 204.192 232.611 203.944 232.299 203.768C231.995 203.584 231.639 203.492 231.231 203.492C230.831 203.492 230.475 203.584 230.163 203.768C229.851 203.944 229.607 204.196 229.431 204.524C229.255 204.844 229.167 205.212 229.167 205.628V205.82C229.167 206.244 229.263 206.624 229.455 206.96C229.655 207.288 229.931 207.544 230.283 207.728C230.635 207.912 231.039 208.004 231.495 208.004C231.871 208.004 232.211 207.94 232.515 207.812C232.827 207.684 233.099 207.492 233.331 207.236L233.967 207.98C233.679 208.316 233.319 208.572 232.887 208.748C232.463 208.924 231.987 209.012 231.459 209.012ZM239.847 208.94V207.596L239.787 207.344V205.052C239.787 204.564 239.643 204.188 239.355 203.924C239.075 203.652 238.651 203.516 238.083 203.516C237.707 203.516 237.339 203.58 236.979 203.708C236.619 203.828 236.315 203.992 236.067 204.2L235.587 203.336C235.915 203.072 236.307 202.872 236.763 202.736C237.227 202.592 237.711 202.52 238.215 202.52C239.087 202.52 239.759 202.732 240.231 203.156C240.703 203.58 240.939 204.228 240.939 205.1V208.94H239.847ZM237.759 209.012C237.287 209.012 236.871 208.932 236.511 208.772C236.159 208.612 235.887 208.392 235.695 208.112C235.503 207.824 235.407 207.5 235.407 207.14C235.407 206.796 235.487 206.484 235.647 206.204C235.815 205.924 236.083 205.7 236.451 205.532C236.827 205.364 237.331 205.28 237.963 205.28H239.979V206.108H238.011C237.435 206.108 237.047 206.204 236.847 206.396C236.647 206.588 236.547 206.82 236.547 207.092C236.547 207.404 236.671 207.656 236.919 207.848C237.167 208.032 237.511 208.124 237.951 208.124C238.383 208.124 238.759 208.028 239.079 207.836C239.407 207.644 239.643 207.364 239.787 206.996L240.015 207.788C239.863 208.164 239.595 208.464 239.211 208.688C238.827 208.904 238.343 209.012 237.759 209.012ZM244.995 209.012C244.467 209.012 243.963 208.94 243.483 208.796C243.011 208.652 242.639 208.476 242.367 208.268L242.847 207.356C243.119 207.54 243.455 207.696 243.855 207.824C244.255 207.952 244.663 208.016 245.079 208.016C245.615 208.016 245.999 207.94 246.231 207.788C246.471 207.636 246.591 207.424 246.591 207.152C246.591 206.952 246.519 206.796 246.375 206.684C246.231 206.572 246.039 206.488 245.799 206.432C245.567 206.376 245.307 206.328 245.019 206.288C244.731 206.24 244.443 206.184 244.155 206.12C243.867 206.048 243.603 205.952 243.363 205.832C243.123 205.704 242.931 205.532 242.787 205.316C242.643 205.092 242.571 204.796 242.571 204.428C242.571 204.044 242.679 203.708 242.895 203.42C243.111 203.132 243.415 202.912 243.807 202.76C244.207 202.6 244.679 202.52 245.223 202.52C245.639 202.52 246.059 202.572 246.483 202.676C246.915 202.772 247.267 202.912 247.539 203.096L247.047 204.008C246.759 203.816 246.459 203.684 246.147 203.612C245.835 203.54 245.523 203.504 245.211 203.504C244.707 203.504 244.331 203.588 244.083 203.756C243.835 203.916 243.711 204.124 243.711 204.38C243.711 204.596 243.783 204.764 243.927 204.884C244.079 204.996 244.271 205.084 244.503 205.148C244.743 205.212 245.007 205.268 245.295 205.316C245.583 205.356 245.871 205.412 246.159 205.484C246.447 205.548 246.707 205.64 246.939 205.76C247.179 205.88 247.371 206.048 247.515 206.264C247.667 206.48 247.743 206.768 247.743 207.128C247.743 207.512 247.631 207.844 247.407 208.124C247.183 208.404 246.867 208.624 246.459 208.784C246.051 208.936 245.563 209.012 244.995 209.012ZM252.114 209.012C251.434 209.012 250.834 208.872 250.314 208.592C249.802 208.312 249.402 207.928 249.114 207.44C248.834 206.952 248.694 206.392 248.694 205.76C248.694 205.128 248.83 204.568 249.102 204.08C249.382 203.592 249.762 203.212 250.242 202.94C250.73 202.66 251.278 202.52 251.886 202.52C252.502 202.52 253.046 202.656 253.518 202.928C253.99 203.2 254.358 203.584 254.622 204.08C254.894 204.568 255.03 205.14 255.03 205.796C255.03 205.844 255.026 205.9 255.018 205.964C255.018 206.028 255.014 206.088 255.006 206.144H249.594V205.316H254.406L253.938 205.604C253.946 205.196 253.862 204.832 253.686 204.512C253.51 204.192 253.266 203.944 252.954 203.768C252.65 203.584 252.294 203.492 251.886 203.492C251.486 203.492 251.13 203.584 250.818 203.768C250.506 203.944 250.262 204.196 250.086 204.524C249.91 204.844 249.822 205.212 249.822 205.628V205.82C249.822 206.244 249.918 206.624 250.11 206.96C250.31 207.288 250.586 207.544 250.938 207.728C251.29 207.912 251.694 208.004 252.15 208.004C252.526 208.004 252.866 207.94 253.17 207.812C253.482 207.684 253.754 207.492 253.986 207.236L254.622 207.98C254.334 208.316 253.974 208.572 253.542 208.748C253.118 208.924 252.642 209.012 252.114 209.012ZM259.358 209.012C258.742 209.012 258.19 208.876 257.702 208.604C257.222 208.332 256.842 207.952 256.562 207.464C256.282 206.976 256.142 206.408 256.142 205.76C256.142 205.112 256.282 204.548 256.562 204.068C256.842 203.58 257.222 203.2 257.702 202.928C258.19 202.656 258.742 202.52 259.358 202.52C259.894 202.52 260.378 202.64 260.81 202.88C261.242 203.12 261.586 203.48 261.842 203.96C262.106 204.44 262.238 205.04 262.238 205.76C262.238 206.48 262.11 207.08 261.854 207.56C261.606 208.04 261.266 208.404 260.834 208.652C260.402 208.892 259.91 209.012 259.358 209.012ZM259.454 208.004C259.854 208.004 260.214 207.912 260.534 207.728C260.862 207.544 261.118 207.284 261.302 206.948C261.494 206.604 261.59 206.208 261.59 205.76C261.59 205.304 261.494 204.912 261.302 204.584C261.118 204.248 260.862 203.988 260.534 203.804C260.214 203.62 259.854 203.528 259.454 203.528C259.046 203.528 258.682 203.62 258.362 203.804C258.042 203.988 257.786 204.248 257.594 204.584C257.402 204.912 257.306 205.304 257.306 205.76C257.306 206.208 257.402 206.604 257.594 206.948C257.786 207.284 258.042 207.544 258.362 207.728C258.682 207.912 259.046 208.004 259.454 208.004ZM261.626 208.94V207.224L261.698 205.748L261.578 204.272V200.036H262.73V208.94H261.626ZM29.1273 227.012C28.5993 227.012 28.0953 226.94 27.6153 226.796C27.1433 226.652 26.7713 226.476 26.4993 226.268L26.9793 225.356C27.2513 225.54 27.5873 225.696 27.9873 225.824C28.3873 225.952 28.7953 226.016 29.2113 226.016C29.7473 226.016 30.1313 225.94 30.3633 225.788C30.6033 225.636 30.7233 225.424 30.7233 225.152C30.7233 224.952 30.6513 224.796 30.5073 224.684C30.3633 224.572 30.1713 224.488 29.9313 224.432C29.6993 224.376 29.4393 224.328 29.1513 224.288C28.8633 224.24 28.5753 224.184 28.2873 224.12C27.9993 224.048 27.7353 223.952 27.4953 223.832C27.2553 223.704 27.0633 223.532 26.9193 223.316C26.7753 223.092 26.7033 222.796 26.7033 222.428C26.7033 222.044 26.8113 221.708 27.0273 221.42C27.2433 221.132 27.5473 220.912 27.9393 220.76C28.3393 220.6 28.8113 220.52 29.3553 220.52C29.7713 220.52 30.1913 220.572 30.6153 220.676C31.0473 220.772 31.3993 220.912 31.6713 221.096L31.1793 222.008C30.8913 221.816 30.5913 221.684 30.2793 221.612C29.9673 221.54 29.6553 221.504 29.3433 221.504C28.8393 221.504 28.4633 221.588 28.2153 221.756C27.9673 221.916 27.8433 222.124 27.8433 222.38C27.8433 222.596 27.9153 222.764 28.0593 222.884C28.2113 222.996 28.4033 223.084 28.6353 223.148C28.8753 223.212 29.1393 223.268 29.4273 223.316C29.7153 223.356 30.0033 223.412 30.2913 223.484C30.5793 223.548 30.8393 223.64 31.0713 223.76C31.3113 223.88 31.5033 224.048 31.6473 224.264C31.7993 224.48 31.8753 224.768 31.8753 225.128C31.8753 225.512 31.7633 225.844 31.5393 226.124C31.3153 226.404 30.9993 226.624 30.5913 226.784C30.1833 226.936 29.6953 227.012 29.1273 227.012ZM36.139 227.012C35.499 227.012 34.931 226.872 34.435 226.592C33.939 226.312 33.547 225.928 33.259 225.44C32.971 224.944 32.827 224.384 32.827 223.76C32.827 223.128 32.971 222.568 33.259 222.08C33.547 221.592 33.939 221.212 34.435 220.94C34.931 220.66 35.499 220.52 36.139 220.52C36.771 220.52 37.335 220.66 37.831 220.94C38.335 221.212 38.727 221.592 39.007 222.08C39.295 222.56 39.439 223.12 39.439 223.76C39.439 224.392 39.295 224.952 39.007 225.44C38.727 225.928 38.335 226.312 37.831 226.592C37.335 226.872 36.771 227.012 36.139 227.012ZM36.139 226.004C36.547 226.004 36.911 225.912 37.231 225.728C37.559 225.544 37.815 225.284 37.999 224.948C38.183 224.604 38.275 224.208 38.275 223.76C38.275 223.304 38.183 222.912 37.999 222.584C37.815 222.248 37.559 221.988 37.231 221.804C36.911 221.62 36.547 221.528 36.139 221.528C35.731 221.528 35.367 221.62 35.047 221.804C34.727 221.988 34.471 222.248 34.279 222.584C34.087 222.912 33.991 223.304 33.991 223.76C33.991 224.208 34.087 224.604 34.279 224.948C34.471 225.284 34.727 225.544 35.047 225.728C35.367 225.912 35.731 226.004 36.139 226.004ZM43.8562 227.012C43.2162 227.012 42.6482 226.872 42.1522 226.592C41.6562 226.312 41.2642 225.928 40.9762 225.44C40.6882 224.944 40.5442 224.384 40.5442 223.76C40.5442 223.128 40.6882 222.568 40.9762 222.08C41.2642 221.592 41.6562 221.212 42.1522 220.94C42.6482 220.66 43.2162 220.52 43.8562 220.52C44.4882 220.52 45.0522 220.66 45.5482 220.94C46.0522 221.212 46.4442 221.592 46.7242 222.08C47.0122 222.56 47.1562 223.12 47.1562 223.76C47.1562 224.392 47.0122 224.952 46.7242 225.44C46.4442 225.928 46.0522 226.312 45.5482 226.592C45.0522 226.872 44.4882 227.012 43.8562 227.012ZM43.8562 226.004C44.2642 226.004 44.6282 225.912 44.9482 225.728C45.2762 225.544 45.5322 225.284 45.7162 224.948C45.9002 224.604 45.9922 224.208 45.9922 223.76C45.9922 223.304 45.9002 222.912 45.7162 222.584C45.5322 222.248 45.2762 221.988 44.9482 221.804C44.6282 221.62 44.2642 221.528 43.8562 221.528C43.4482 221.528 43.0842 221.62 42.7642 221.804C42.4442 221.988 42.1882 222.248 41.9962 222.584C41.8042 222.912 41.7082 223.304 41.7082 223.76C41.7082 224.208 41.8042 224.604 41.9962 224.948C42.1882 225.284 42.4442 225.544 42.7642 225.728C43.0842 225.912 43.4482 226.004 43.8562 226.004ZM52.2454 220.52C52.7654 220.52 53.2214 220.62 53.6134 220.82C54.0134 221.02 54.3254 221.324 54.5494 221.732C54.7734 222.14 54.8854 222.656 54.8854 223.28V226.94H53.7334V223.412C53.7334 222.796 53.5814 222.332 53.2774 222.02C52.9814 221.708 52.5614 221.552 52.0174 221.552C51.6094 221.552 51.2534 221.632 50.9494 221.792C50.6454 221.952 50.4094 222.188 50.2414 222.5C50.0814 222.812 50.0014 223.2 50.0014 223.664V226.94H48.8494V220.58H49.9534V222.296L49.7734 221.84C49.9814 221.424 50.3014 221.1 50.7334 220.868C51.1654 220.636 51.6694 220.52 52.2454 220.52ZM57.3934 227.012C57.1694 227.012 56.9774 226.936 56.8174 226.784C56.6574 226.624 56.5774 226.424 56.5774 226.184C56.5774 225.944 56.6574 225.748 56.8174 225.596C56.9774 225.444 57.1694 225.368 57.3934 225.368C57.6094 225.368 57.7934 225.444 57.9454 225.596C58.1054 225.748 58.1854 225.944 58.1854 226.184C58.1854 226.424 58.1054 226.624 57.9454 226.784C57.7934 226.936 57.6094 227.012 57.3934 227.012ZM65.0948 226.94V219.584H62.2148V218.54H69.1628V219.584H66.2828V226.94H65.0948ZM73.7978 220.52C74.3178 220.52 74.7738 220.62 75.1658 220.82C75.5658 221.02 75.8778 221.324 76.1018 221.732C76.3258 222.14 76.4378 222.656 76.4378 223.28V226.94H75.2858V223.412C75.2858 222.796 75.1338 222.332 74.8298 222.02C74.5338 221.708 74.1138 221.552 73.5698 221.552C73.1618 221.552 72.8058 221.632 72.5018 221.792C72.1978 221.952 71.9618 222.188 71.7938 222.5C71.6338 222.812 71.5538 223.2 71.5538 223.664V226.94H70.4018V218.036H71.5538V222.296L71.3258 221.84C71.5338 221.424 71.8538 221.1 72.2858 220.868C72.7178 220.636 73.2218 220.52 73.7978 220.52ZM82.6177 226.94V225.596L82.5577 225.344V223.052C82.5577 222.564 82.4137 222.188 82.1257 221.924C81.8457 221.652 81.4217 221.516 80.8537 221.516C80.4777 221.516 80.1097 221.58 79.7497 221.708C79.3897 221.828 79.0857 221.992 78.8377 222.2L78.3577 221.336C78.6857 221.072 79.0777 220.872 79.5337 220.736C79.9977 220.592 80.4817 220.52 80.9857 220.52C81.8577 220.52 82.5297 220.732 83.0017 221.156C83.4737 221.58 83.7097 222.228 83.7097 223.1V226.94H82.6177ZM80.5297 227.012C80.0577 227.012 79.6417 226.932 79.2817 226.772C78.9297 226.612 78.6577 226.392 78.4657 226.112C78.2737 225.824 78.1777 225.5 78.1777 225.14C78.1777 224.796 78.2577 224.484 78.4177 224.204C78.5857 223.924 78.8537 223.7 79.2217 223.532C79.5977 223.364 80.1017 223.28 80.7337 223.28H82.7497V224.108H80.7817C80.2057 224.108 79.8177 224.204 79.6177 224.396C79.4177 224.588 79.3177 224.82 79.3177 225.092C79.3177 225.404 79.4417 225.656 79.6897 225.848C79.9377 226.032 80.2817 226.124 80.7217 226.124C81.1537 226.124 81.5297 226.028 81.8497 225.836C82.1777 225.644 82.4137 225.364 82.5577 224.996L82.7857 225.788C82.6337 226.164 82.3657 226.464 81.9817 226.688C81.5977 226.904 81.1137 227.012 80.5297 227.012ZM89.3376 220.52C89.8576 220.52 90.3136 220.62 90.7056 220.82C91.1056 221.02 91.4176 221.324 91.6416 221.732C91.8656 222.14 91.9776 222.656 91.9776 223.28V226.94H90.8256V223.412C90.8256 222.796 90.6736 222.332 90.3696 222.02C90.0736 221.708 89.6536 221.552 89.1096 221.552C88.7016 221.552 88.3456 221.632 88.0416 221.792C87.7376 221.952 87.5016 222.188 87.3336 222.5C87.1736 222.812 87.0936 223.2 87.0936 223.664V226.94H85.9416V220.58H87.0456V222.296L86.8656 221.84C87.0736 221.424 87.3936 221.1 87.8256 220.868C88.2576 220.636 88.7616 220.52 89.3376 220.52ZM95.1456 225.404L95.1696 223.928L98.8296 220.58H100.222L97.4136 223.34L96.7896 223.868L95.1456 225.404ZM94.2096 226.94V218.036H95.3616V226.94H94.2096ZM99.0696 226.94L96.5736 223.844L97.3176 222.92L100.486 226.94H99.0696ZM105.303 229.34C104.999 229.34 104.703 229.288 104.415 229.184C104.127 229.088 103.879 228.944 103.671 228.752L104.163 227.888C104.323 228.04 104.499 228.156 104.691 228.236C104.883 228.316 105.087 228.356 105.303 228.356C105.583 228.356 105.815 228.284 105.999 228.14C106.183 227.996 106.355 227.74 106.515 227.372L106.911 226.496L107.031 226.352L109.527 220.58H110.655L107.571 227.576C107.387 228.024 107.179 228.376 106.947 228.632C106.723 228.888 106.475 229.068 106.203 229.172C105.931 229.284 105.631 229.34 105.303 229.34ZM106.815 227.144L103.911 220.58H105.111L107.583 226.244L106.815 227.144ZM114.378 227.012C113.738 227.012 113.17 226.872 112.674 226.592C112.178 226.312 111.786 225.928 111.498 225.44C111.21 224.944 111.066 224.384 111.066 223.76C111.066 223.128 111.21 222.568 111.498 222.08C111.786 221.592 112.178 221.212 112.674 220.94C113.17 220.66 113.738 220.52 114.378 220.52C115.01 220.52 115.574 220.66 116.07 220.94C116.574 221.212 116.966 221.592 117.246 222.08C117.534 222.56 117.678 223.12 117.678 223.76C117.678 224.392 117.534 224.952 117.246 225.44C116.966 225.928 116.574 226.312 116.07 226.592C115.574 226.872 115.01 227.012 114.378 227.012ZM114.378 226.004C114.786 226.004 115.15 225.912 115.47 225.728C115.798 225.544 116.054 225.284 116.238 224.948C116.422 224.604 116.514 224.208 116.514 223.76C116.514 223.304 116.422 222.912 116.238 222.584C116.054 222.248 115.798 221.988 115.47 221.804C115.15 221.62 114.786 221.528 114.378 221.528C113.97 221.528 113.606 221.62 113.286 221.804C112.966 221.988 112.71 222.248 112.518 222.584C112.326 222.912 112.23 223.304 112.23 223.76C112.23 224.208 112.326 224.604 112.518 224.948C112.71 225.284 112.966 225.544 113.286 225.728C113.606 225.912 113.97 226.004 114.378 226.004ZM122.047 227.012C121.503 227.012 121.023 226.912 120.607 226.712C120.199 226.512 119.879 226.208 119.647 225.8C119.423 225.384 119.311 224.864 119.311 224.24V220.58H120.463V224.108C120.463 224.732 120.611 225.2 120.907 225.512C121.211 225.824 121.635 225.98 122.179 225.98C122.579 225.98 122.927 225.9 123.223 225.74C123.519 225.572 123.747 225.332 123.907 225.02C124.067 224.7 124.147 224.316 124.147 223.868V220.58H125.299V226.94H124.207V225.224L124.387 225.68C124.179 226.104 123.867 226.432 123.451 226.664C123.035 226.896 122.567 227.012 122.047 227.012ZM131.083 226.94V220.016C131.083 219.392 131.263 218.896 131.623 218.528C131.991 218.152 132.511 217.964 133.183 217.964C133.431 217.964 133.667 217.996 133.891 218.06C134.123 218.116 134.319 218.208 134.479 218.336L134.131 219.212C134.011 219.116 133.875 219.044 133.723 218.996C133.571 218.94 133.411 218.912 133.243 218.912C132.907 218.912 132.651 219.008 132.475 219.2C132.299 219.384 132.211 219.66 132.211 220.028V220.88L132.235 221.408V226.94H131.083ZM130.003 221.528V220.58H134.059V221.528H130.003ZM137.876 227.012C137.236 227.012 136.668 226.872 136.172 226.592C135.676 226.312 135.284 225.928 134.996 225.44C134.708 224.944 134.564 224.384 134.564 223.76C134.564 223.128 134.708 222.568 134.996 222.08C135.284 221.592 135.676 221.212 136.172 220.94C136.668 220.66 137.236 220.52 137.876 220.52C138.508 220.52 139.072 220.66 139.568 220.94C140.072 221.212 140.464 221.592 140.744 222.08C141.032 222.56 141.176 223.12 141.176 223.76C141.176 224.392 141.032 224.952 140.744 225.44C140.464 225.928 140.072 226.312 139.568 226.592C139.072 226.872 138.508 227.012 137.876 227.012ZM137.876 226.004C138.284 226.004 138.648 225.912 138.968 225.728C139.296 225.544 139.552 225.284 139.736 224.948C139.92 224.604 140.012 224.208 140.012 223.76C140.012 223.304 139.92 222.912 139.736 222.584C139.552 222.248 139.296 221.988 138.968 221.804C138.648 221.62 138.284 221.528 137.876 221.528C137.468 221.528 137.104 221.62 136.784 221.804C136.464 221.988 136.208 222.248 136.016 222.584C135.824 222.912 135.728 223.304 135.728 223.76C135.728 224.208 135.824 224.604 136.016 224.948C136.208 225.284 136.464 225.544 136.784 225.728C137.104 225.912 137.468 226.004 137.876 226.004ZM142.869 226.94V220.58H143.973V222.308L143.865 221.876C144.041 221.436 144.337 221.1 144.753 220.868C145.169 220.636 145.681 220.52 146.289 220.52V221.636C146.241 221.628 146.193 221.624 146.145 221.624C146.105 221.624 146.065 221.624 146.025 221.624C145.409 221.624 144.921 221.808 144.561 222.176C144.201 222.544 144.021 223.076 144.021 223.772V226.94H142.869ZM151.489 229.34C151.185 229.34 150.889 229.288 150.601 229.184C150.313 229.088 150.065 228.944 149.857 228.752L150.349 227.888C150.509 228.04 150.685 228.156 150.877 228.236C151.069 228.316 151.273 228.356 151.489 228.356C151.769 228.356 152.001 228.284 152.185 228.14C152.369 227.996 152.541 227.74 152.701 227.372L153.097 226.496L153.217 226.352L155.713 220.58H156.841L153.757 227.576C153.573 228.024 153.365 228.376 153.133 228.632C152.909 228.888 152.661 229.068 152.389 229.172C152.117 229.284 151.817 229.34 151.489 229.34ZM153.001 227.144L150.097 220.58H151.297L153.769 226.244L153.001 227.144ZM160.565 227.012C159.925 227.012 159.357 226.872 158.861 226.592C158.365 226.312 157.973 225.928 157.685 225.44C157.397 224.944 157.253 224.384 157.253 223.76C157.253 223.128 157.397 222.568 157.685 222.08C157.973 221.592 158.365 221.212 158.861 220.94C159.357 220.66 159.925 220.52 160.565 220.52C161.197 220.52 161.761 220.66 162.257 220.94C162.761 221.212 163.153 221.592 163.433 222.08C163.721 222.56 163.865 223.12 163.865 223.76C163.865 224.392 163.721 224.952 163.433 225.44C163.153 225.928 162.761 226.312 162.257 226.592C161.761 226.872 161.197 227.012 160.565 227.012ZM160.565 226.004C160.973 226.004 161.337 225.912 161.657 225.728C161.985 225.544 162.241 225.284 162.425 224.948C162.609 224.604 162.701 224.208 162.701 223.76C162.701 223.304 162.609 222.912 162.425 222.584C162.241 222.248 161.985 221.988 161.657 221.804C161.337 221.62 160.973 221.528 160.565 221.528C160.157 221.528 159.793 221.62 159.473 221.804C159.153 221.988 158.897 222.248 158.705 222.584C158.513 222.912 158.417 223.304 158.417 223.76C158.417 224.208 158.513 224.604 158.705 224.948C158.897 225.284 159.153 225.544 159.473 225.728C159.793 225.912 160.157 226.004 160.565 226.004ZM168.234 227.012C167.69 227.012 167.21 226.912 166.794 226.712C166.386 226.512 166.066 226.208 165.834 225.8C165.61 225.384 165.498 224.864 165.498 224.24V220.58H166.65V224.108C166.65 224.732 166.798 225.2 167.094 225.512C167.398 225.824 167.822 225.98 168.366 225.98C168.766 225.98 169.114 225.9 169.41 225.74C169.706 225.572 169.934 225.332 170.094 225.02C170.254 224.7 170.334 224.316 170.334 223.868V220.58H171.486V226.94H170.394V225.224L170.574 225.68C170.366 226.104 170.054 226.432 169.638 226.664C169.222 226.896 168.754 227.012 168.234 227.012ZM173.779 226.94V220.58H174.883V222.308L174.775 221.876C174.951 221.436 175.247 221.1 175.663 220.868C176.079 220.636 176.591 220.52 177.199 220.52V221.636C177.151 221.628 177.103 221.624 177.055 221.624C177.015 221.624 176.975 221.624 176.935 221.624C176.319 221.624 175.831 221.808 175.471 222.176C175.111 222.544 174.931 223.076 174.931 223.772V226.94H173.779ZM185.496 227.012C184.968 227.012 184.484 226.892 184.044 226.652C183.612 226.404 183.264 226.04 183 225.56C182.744 225.08 182.616 224.48 182.616 223.76C182.616 223.04 182.74 222.44 182.988 221.96C183.244 221.48 183.588 221.12 184.02 220.88C184.46 220.64 184.952 220.52 185.496 220.52C186.12 220.52 186.672 220.656 187.152 220.928C187.632 221.2 188.012 221.58 188.292 222.068C188.572 222.548 188.712 223.112 188.712 223.76C188.712 224.408 188.572 224.976 188.292 225.464C188.012 225.952 187.632 226.332 187.152 226.604C186.672 226.876 186.12 227.012 185.496 227.012ZM182.124 229.268V220.58H183.228V222.296L183.156 223.772L183.276 225.248V229.268H182.124ZM185.4 226.004C185.808 226.004 186.172 225.912 186.492 225.728C186.82 225.544 187.076 225.284 187.26 224.948C187.452 224.604 187.548 224.208 187.548 223.76C187.548 223.304 187.452 222.912 187.26 222.584C187.076 222.248 186.82 221.988 186.492 221.804C186.172 221.62 185.808 221.528 185.4 221.528C185 221.528 184.636 221.62 184.308 221.804C183.988 221.988 183.732 222.248 183.54 222.584C183.356 222.912 183.264 223.304 183.264 223.76C183.264 224.208 183.356 224.604 183.54 224.948C183.732 225.284 183.988 225.544 184.308 225.728C184.636 225.912 185 226.004 185.4 226.004ZM194.293 226.94V225.596L194.233 225.344V223.052C194.233 222.564 194.089 222.188 193.801 221.924C193.521 221.652 193.097 221.516 192.529 221.516C192.153 221.516 191.785 221.58 191.425 221.708C191.065 221.828 190.761 221.992 190.513 222.2L190.033 221.336C190.361 221.072 190.753 220.872 191.209 220.736C191.673 220.592 192.157 220.52 192.661 220.52C193.533 220.52 194.205 220.732 194.677 221.156C195.149 221.58 195.385 222.228 195.385 223.1V226.94H194.293ZM192.205 227.012C191.733 227.012 191.317 226.932 190.957 226.772C190.605 226.612 190.333 226.392 190.141 226.112C189.949 225.824 189.853 225.5 189.853 225.14C189.853 224.796 189.933 224.484 190.093 224.204C190.261 223.924 190.529 223.7 190.897 223.532C191.273 223.364 191.777 223.28 192.409 223.28H194.425V224.108H192.457C191.881 224.108 191.493 224.204 191.293 224.396C191.093 224.588 190.993 224.82 190.993 225.092C190.993 225.404 191.117 225.656 191.365 225.848C191.613 226.032 191.957 226.124 192.397 226.124C192.829 226.124 193.205 226.028 193.525 225.836C193.853 225.644 194.089 225.364 194.233 224.996L194.461 225.788C194.309 226.164 194.041 226.464 193.657 226.688C193.273 226.904 192.789 227.012 192.205 227.012ZM199.801 227.012C199.161 227.012 198.665 226.84 198.313 226.496C197.961 226.152 197.785 225.66 197.785 225.02V219.188H198.937V224.972C198.937 225.316 199.021 225.58 199.189 225.764C199.365 225.948 199.613 226.04 199.933 226.04C200.293 226.04 200.593 225.94 200.833 225.74L201.193 226.568C201.017 226.72 200.805 226.832 200.557 226.904C200.317 226.976 200.065 227.012 199.801 227.012ZM196.705 221.528V220.58H200.761V221.528H196.705ZM202.685 226.94V220.58H203.837V226.94H202.685ZM203.261 219.356C203.037 219.356 202.849 219.284 202.697 219.14C202.553 218.996 202.481 218.82 202.481 218.612C202.481 218.396 202.553 218.216 202.697 218.072C202.849 217.928 203.037 217.856 203.261 217.856C203.485 217.856 203.669 217.928 203.813 218.072C203.965 218.208 204.041 218.38 204.041 218.588C204.041 218.804 203.969 218.988 203.825 219.14C203.681 219.284 203.493 219.356 203.261 219.356ZM208.969 227.012C208.289 227.012 207.689 226.872 207.169 226.592C206.657 226.312 206.257 225.928 205.969 225.44C205.689 224.952 205.549 224.392 205.549 223.76C205.549 223.128 205.685 222.568 205.957 222.08C206.237 221.592 206.617 221.212 207.097 220.94C207.585 220.66 208.133 220.52 208.741 220.52C209.357 220.52 209.901 220.656 210.373 220.928C210.845 221.2 211.213 221.584 211.477 222.08C211.749 222.568 211.885 223.14 211.885 223.796C211.885 223.844 211.881 223.9 211.873 223.964C211.873 224.028 211.869 224.088 211.861 224.144H206.449V223.316H211.261L210.793 223.604C210.801 223.196 210.717 222.832 210.541 222.512C210.365 222.192 210.121 221.944 209.809 221.768C209.505 221.584 209.149 221.492 208.741 221.492C208.341 221.492 207.985 221.584 207.673 221.768C207.361 221.944 207.117 222.196 206.941 222.524C206.765 222.844 206.677 223.212 206.677 223.628V223.82C206.677 224.244 206.773 224.624 206.965 224.96C207.165 225.288 207.441 225.544 207.793 225.728C208.145 225.912 208.549 226.004 209.005 226.004C209.381 226.004 209.721 225.94 210.025 225.812C210.337 225.684 210.609 225.492 210.841 225.236L211.477 225.98C211.189 226.316 210.829 226.572 210.397 226.748C209.973 226.924 209.497 227.012 208.969 227.012ZM216.981 220.52C217.501 220.52 217.957 220.62 218.349 220.82C218.749 221.02 219.061 221.324 219.285 221.732C219.509 222.14 219.621 222.656 219.621 223.28V226.94H218.469V223.412C218.469 222.796 218.317 222.332 218.013 222.02C217.717 221.708 217.297 221.552 216.753 221.552C216.345 221.552 215.989 221.632 215.685 221.792C215.381 221.952 215.145 222.188 214.977 222.5C214.817 222.812 214.737 223.2 214.737 223.664V226.94H213.585V220.58H214.689V222.296L214.509 221.84C214.717 221.424 215.037 221.1 215.469 220.868C215.901 220.636 216.405 220.52 216.981 220.52ZM224.625 227.012C223.977 227.012 223.397 226.872 222.885 226.592C222.381 226.312 221.985 225.928 221.697 225.44C221.409 224.952 221.265 224.392 221.265 223.76C221.265 223.128 221.409 222.568 221.697 222.08C221.985 221.592 222.381 221.212 222.885 220.94C223.397 220.66 223.977 220.52 224.625 220.52C225.201 220.52 225.713 220.636 226.161 220.868C226.617 221.092 226.969 221.428 227.217 221.876L226.341 222.44C226.133 222.128 225.877 221.9 225.573 221.756C225.277 221.604 224.957 221.528 224.613 221.528C224.197 221.528 223.825 221.62 223.497 221.804C223.169 221.988 222.909 222.248 222.717 222.584C222.525 222.912 222.429 223.304 222.429 223.76C222.429 224.216 222.525 224.612 222.717 224.948C222.909 225.284 223.169 225.544 223.497 225.728C223.825 225.912 224.197 226.004 224.613 226.004C224.957 226.004 225.277 225.932 225.573 225.788C225.877 225.636 226.133 225.404 226.341 225.092L227.217 225.644C226.969 226.084 226.617 226.424 226.161 226.664C225.713 226.896 225.201 227.012 224.625 227.012ZM231.546 227.012C230.866 227.012 230.266 226.872 229.746 226.592C229.234 226.312 228.834 225.928 228.546 225.44C228.266 224.952 228.126 224.392 228.126 223.76C228.126 223.128 228.262 222.568 228.534 222.08C228.814 221.592 229.194 221.212 229.674 220.94C230.162 220.66 230.71 220.52 231.318 220.52C231.934 220.52 232.478 220.656 232.95 220.928C233.422 221.2 233.79 221.584 234.054 222.08C234.326 222.568 234.462 223.14 234.462 223.796C234.462 223.844 234.458 223.9 234.45 223.964C234.45 224.028 234.446 224.088 234.438 224.144H229.026V223.316H233.838L233.37 223.604C233.378 223.196 233.294 222.832 233.118 222.512C232.942 222.192 232.698 221.944 232.386 221.768C232.082 221.584 231.726 221.492 231.318 221.492C230.918 221.492 230.562 221.584 230.25 221.768C229.938 221.944 229.694 222.196 229.518 222.524C229.342 222.844 229.254 223.212 229.254 223.628V223.82C229.254 224.244 229.35 224.624 229.542 224.96C229.742 225.288 230.018 225.544 230.37 225.728C230.722 225.912 231.126 226.004 231.582 226.004C231.958 226.004 232.298 225.94 232.602 225.812C232.914 225.684 233.186 225.492 233.418 225.236L234.054 225.98C233.766 226.316 233.406 226.572 232.974 226.748C232.55 226.924 232.074 227.012 231.546 227.012ZM236.438 227.012C236.214 227.012 236.022 226.936 235.862 226.784C235.702 226.624 235.622 226.424 235.622 226.184C235.622 225.944 235.702 225.748 235.862 225.596C236.022 225.444 236.214 225.368 236.438 225.368C236.654 225.368 236.838 225.444 236.99 225.596C237.15 225.748 237.23 225.944 237.23 226.184C237.23 226.424 237.15 226.624 236.99 226.784C236.838 226.936 236.654 227.012 236.438 227.012Z" fill="#ABABAF"/>
<defs>
<clipPath id="clip0_749_9580">
<rect width="182.98" height="127.94" fill="white" transform="translate(40.5098)"/>
</clipPath>
</defs>
</svg>
