<svg width="144" height="128" viewBox="0 0 144 128" fill="none" xmlns="http://www.w3.org/2000/svg">
<g clip-path="url(#clip0_1069_9651)">
<path d="M1.30007 28.7083C1.02005 28.7871 0.7827 28.9737 0.640092 29.2272C0.497484 29.4807 0.461259 29.7805 0.539365 30.0607L18.8814 95.5659C18.9601 95.8459 19.1467 96.0833 19.4003 96.2259C19.6538 96.3685 19.9535 96.4047 20.2337 96.3266L87.8517 77.393C88.1317 77.3142 88.3691 77.1276 88.5117 76.8741C88.6543 76.6206 88.6905 76.3208 88.6124 76.0406L70.2704 10.5354C70.1916 10.2554 70.005 10.0181 69.7515 9.87545C69.498 9.73284 69.1982 9.69661 68.918 9.77471L1.30007 28.7083Z" fill="#E6E6E6"/>
<path d="M21.0838 93.2334L85.5194 75.1909L68.0685 12.8679L3.63281 30.9104L21.0838 93.2334Z" fill="white"/>
<path d="M12.1517 39.2324C11.7218 39.3528 11.5445 40.0669 11.7566 40.8242C11.9687 41.5815 12.491 42.0997 12.9209 41.9794L42.309 33.7504C42.7389 33.6301 42.9162 32.9159 42.7041 32.1586C42.4921 31.4013 41.9697 30.8831 41.5398 31.0035L12.1517 39.2324Z" fill="#E6E6E6"/>
<path d="M14.5189 47.6848C14.089 47.8051 13.9117 48.5193 14.1238 49.2766C14.3358 50.0339 14.8582 50.5521 15.2881 50.4318L44.6762 42.2028C45.1061 42.0825 45.2834 41.3683 45.0713 40.611C44.8592 39.8537 44.3369 39.3355 43.907 39.4558L14.5189 47.6848Z" fill="#E6E6E6"/>
<path d="M16.8578 56.0395C16.4278 56.1599 16.2506 56.874 16.4627 57.6313C16.6747 58.3886 17.197 58.9069 17.6269 58.7865L47.0151 50.5576C47.445 50.4372 47.6222 49.7231 47.4102 48.9658C47.1981 48.2084 46.6758 47.6902 46.2459 47.8106L16.8578 56.0395Z" fill="#E6E6E6"/>
<path d="M19.2249 64.4917C18.795 64.612 18.6178 65.3261 18.8298 66.0835C19.0419 66.8408 19.5642 67.359 19.9941 67.2386L49.3823 59.0097C49.8122 58.8893 49.9894 58.1752 49.7774 57.4179C49.5653 56.6606 49.043 56.1424 48.6131 56.2627L19.2249 64.4917Z" fill="#E6E6E6"/>
<path d="M56.4544 26.9249C56.2739 26.9753 56.105 27.0607 55.9575 27.1763C55.81 27.292 55.6867 27.4356 55.5947 27.5989C55.5027 27.7622 55.4438 27.9421 55.4214 28.1282C55.399 28.3143 55.4134 28.5029 55.464 28.6835C55.5145 28.864 55.6001 29.0327 55.7159 29.1801C55.8318 29.3275 55.9755 29.4506 56.1389 29.5424C56.3023 29.6342 56.4823 29.6929 56.6684 29.7151C56.8545 29.7373 57.0432 29.7227 57.2236 29.6719L62.7176 28.1336C63.0818 28.0316 63.3907 27.789 63.5761 27.4593C63.7616 27.1296 63.8085 26.7397 63.7065 26.3755C63.6045 26.0112 63.362 25.7024 63.0323 25.5169C62.7026 25.3315 62.3127 25.2846 61.9484 25.3866L56.4544 26.9249Z" fill="#E6E6E6"/>
<path d="M58.7748 35.2133C58.5942 35.2636 58.4253 35.349 58.2778 35.4647C58.1303 35.5803 58.007 35.7239 57.915 35.8872C57.823 36.0505 57.7641 36.2304 57.7417 36.4165C57.7193 36.6026 57.7337 36.7913 57.7843 36.9718C57.8348 37.1523 57.9204 37.3211 58.0363 37.4684C58.1521 37.6158 58.2958 37.7389 58.4592 37.8307C58.6227 37.9225 58.8026 37.9812 58.9887 38.0035C59.1748 38.0257 59.3635 38.011 59.5439 37.9602L65.0379 36.4219C65.4022 36.3199 65.711 36.0774 65.8965 35.7477C66.0819 35.4179 66.1288 35.0281 66.0268 34.6638C65.9248 34.2995 65.6823 33.9907 65.3526 33.8052C65.0229 33.6198 64.633 33.5729 64.2687 33.6749L58.7748 35.2133Z" fill="#E6E6E6"/>
<path d="M61.0964 43.5018C60.916 43.5523 60.7474 43.6379 60.6001 43.7536C60.4528 43.8692 60.3297 44.0128 60.2378 44.1761C60.146 44.3393 60.0873 44.5191 60.0649 44.705C60.0425 44.891 60.057 45.0795 60.1075 45.2599C60.158 45.4403 60.2436 45.6089 60.3592 45.7562C60.4749 45.9036 60.6185 46.0266 60.7817 46.1185C60.945 46.2103 61.1247 46.2691 61.3107 46.2914C61.4967 46.3138 61.6852 46.2993 61.8656 46.2488L67.3595 44.7105C67.7238 44.6085 68.0327 44.3659 68.2181 44.0362C68.4036 43.7065 68.4505 43.3167 68.3485 42.9524C68.2465 42.5881 68.0039 42.2793 67.6742 42.0938C67.3445 41.9084 66.9546 41.8615 66.5904 41.9635L61.0964 43.5018Z" fill="#E6E6E6"/>
<path d="M63.4171 51.7902C63.0532 51.8926 62.7449 52.1352 62.5597 52.4647C62.3746 52.7943 62.3279 53.1839 62.4298 53.5478C62.5317 53.9118 62.7739 54.2205 63.1033 54.406C63.4326 54.5915 63.8222 54.6387 64.1863 54.5372L69.6802 52.9988C70.0441 52.8965 70.3525 52.6539 70.5376 52.3243C70.7228 51.9948 70.7695 51.6052 70.6676 51.2412C70.5656 50.8772 70.3234 50.5685 69.9941 50.383C69.6647 50.1975 69.2752 50.1503 68.9111 50.2519L63.4171 51.7902Z" fill="#E6E6E6"/>
<path d="M65.6341 66.1569C65.404 66.221 65.1888 66.3299 65.0009 66.4773C64.8129 66.6246 64.6558 66.8076 64.5386 67.0157C64.4214 67.2238 64.3463 67.453 64.3177 67.6901C64.2892 67.9272 64.3076 68.1676 64.372 68.3976C64.4364 68.6276 64.5455 68.8427 64.6931 69.0305C64.8406 69.2183 65.0238 69.3752 65.232 69.4921C65.4403 69.6091 65.6695 69.6839 65.9067 69.7122C66.1438 69.7405 66.3842 69.7218 66.6142 69.6572L73.6146 67.697C74.0788 67.567 74.4723 67.258 74.7086 66.8378C74.945 66.4177 75.0047 65.921 74.8747 65.4568C74.7448 64.9926 74.4357 64.5991 74.0156 64.3628C73.5955 64.1265 73.0987 64.0667 72.6345 64.1967L65.6341 66.1569Z" fill="#76ACFF"/>
<path d="M72.8387 59.0879L21.0361 73.593L21.1651 74.0535L72.9676 59.5483L72.8387 59.0879Z" fill="#E6E6E6"/>
<path d="M124.874 120.996L120.719 122.001L114.868 106.454L121 104.971L124.874 120.996Z" fill="#A0616A"/>
<path d="M113.552 127.94L113.523 127.824C113.194 126.455 113.421 125.012 114.155 123.81C114.889 122.609 116.069 121.747 117.437 121.415L125.566 119.45L126.841 124.727L113.552 127.94Z" fill="#2F2E41"/>
<path d="M106.481 123.827L102.207 123.826L100.174 107.34L106.482 107.34L106.481 123.827Z" fill="#A0616A"/>
<path d="M107.516 127.915L93.8438 127.915V127.795C93.8438 126.387 94.4032 125.036 95.399 124.041C96.3948 123.045 97.7453 122.486 99.1535 122.486H99.1537L107.517 122.486L107.516 127.915Z" fill="#2F2E41"/>
<path d="M100.171 117.39L96.0205 67.9297L113.201 64.763L113.268 64.7507L118.297 67.9832L116.547 86.186L124.605 114.566L117.647 116.397L109.576 90.0762L107.729 82.0723L106.782 92.4728L107.485 118.122L100.171 117.39Z" fill="#2F2E41"/>
<path d="M95.4878 69.0517L95.4424 68.9942L101.379 24.2947L101.387 24.2361L101.429 24.1942C101.516 24.1067 103.596 22.0513 105.736 22.0513C106.045 22.0513 106.339 22.0435 106.621 22.0363C108.258 21.9938 109.552 21.9597 111.089 23.497C112.655 25.0628 117.764 30.7807 117.764 38.612C117.764 46.1919 118.454 69.748 118.461 69.985L118.471 70.3176L118.192 70.1361C118.123 70.0919 111.251 65.7161 105.487 69.7837C103.686 71.0551 102.068 71.5007 100.685 71.5007C97.4648 71.5007 95.5153 69.0868 95.4878 69.0517Z" fill="#76ACFF"/>
<path d="M108.935 18.3629C113.084 16.0945 114.609 10.8916 112.341 6.74185C110.072 2.59213 104.869 1.06706 100.72 3.3355C96.5701 5.60394 95.045 10.8069 97.3134 14.9566C99.5819 19.1063 104.785 20.6314 108.935 18.3629Z" fill="#A0616A"/>
<path d="M91.7187 78.658C92.1238 78.344 92.4552 77.9451 92.6894 77.4892C92.9237 77.0333 93.0552 76.5316 93.0746 76.0195C93.094 75.5073 93.0008 74.9971 92.8017 74.5248C92.6026 74.0525 92.3023 73.6297 91.9221 73.286L96.785 61.8154L90.4178 62.9873L86.776 73.7003C86.2409 74.3773 85.9728 75.2271 86.0224 76.0886C86.0721 76.9501 86.436 77.7634 87.0452 78.3745C87.6545 78.9857 88.4667 79.3521 89.3281 79.4043C90.1894 79.4565 91.04 79.191 91.7187 78.658H91.7187Z" fill="#A0616A"/>
<path d="M87.0205 69.7354L88.5864 66.4294C88.4897 66.3712 88.4099 66.2885 88.3552 66.1897C86.8922 63.6542 95.7293 42.5982 96.3184 41.2016C96.2285 40.442 95.3008 32.3925 95.9792 29.6793C96.7777 26.4853 98.4172 24.9968 101.461 24.7019C104.819 24.3866 105.724 28.9456 105.733 28.9919L105.736 40.712L101.883 54.2033L93.0962 72.1286L87.0205 69.7354Z" fill="#76ACFF"/>
<path d="M105.922 14.0754C104.896 14.209 104.122 13.1587 103.762 12.1878C103.403 11.217 103.13 10.0867 102.237 9.56227C101.018 8.84578 99.4578 9.70753 98.0635 9.47113C96.4889 9.20417 95.4651 7.53536 95.3848 5.94026C95.3046 4.34516 95.9394 2.81103 96.5622 1.34037L96.7796 3.16807C96.7505 2.54862 96.8809 1.93206 97.1582 1.37739C97.4355 0.822708 97.8505 0.348458 98.3635 0L98.0832 2.68187C98.2589 1.17942 99.8776 0.015223 101.358 0.326577L101.314 1.92453C103.132 1.70826 104.967 1.4917 106.791 1.65646C108.615 1.82122 110.452 2.39835 111.835 3.59966C113.903 5.39662 114.658 8.35554 114.404 11.0835C114.151 13.8114 113.025 16.374 111.851 18.8496C111.556 19.4725 111.147 20.1753 110.463 20.2546C109.847 20.3259 109.284 19.8116 109.093 19.2226C108.902 18.6335 108.995 17.9935 109.11 17.3849C109.283 16.4654 109.501 15.5255 109.338 14.6042C109.176 13.6828 108.513 12.7723 107.584 12.6594C106.655 12.5465 105.705 13.6081 106.151 14.4303L105.922 14.0754Z" fill="#2F2E41"/>
<path d="M143.409 127.935H81.7871V127.431H143.501L143.409 127.935Z" fill="#3F3D56"/>
</g>
<defs>
<clipPath id="clip0_1069_9651">
<rect width="143.002" height="127.94" fill="white" transform="translate(0.499023)"/>
</clipPath>
</defs>
</svg>
