<svg width="1397" height="1091" viewBox="0 0 1397 1091" fill="none" xmlns="http://www.w3.org/2000/svg">
<path fill-rule="evenodd" clip-rule="evenodd" d="M585.491 323.306C600.085 345.347 619.167 383.433 626.342 404.848L631.085 418.998L595.658 453.275C546.005 501.313 510.397 546.327 497.501 577.357C494.639 584.244 491.447 589.881 490.409 589.881C486.437 589.881 439.391 542.529 426.417 525.473C389.34 476.731 357.031 412.262 333.174 339.407L324.19 311.975L324.007 325.095C323.907 332.311 324.939 353.243 326.302 371.611C342.205 586.24 425.525 733.275 573.593 808.014C599.723 821.203 654.059 840.64 673.873 843.884C684.6 845.64 685.845 847.055 681.029 852.009C678.605 854.502 681.172 854.927 694.745 854.275L711.444 853.474L712.111 883.889L712.779 914.303H722.178H731.577L732.245 883.889L732.913 853.474L749.611 854.275C763.184 854.927 765.751 854.502 763.327 852.009C758.511 847.055 759.756 845.64 770.484 843.884C804.317 838.345 878.223 807.413 911.822 784.732C1042.39 696.597 1110.34 551.153 1119.32 340.6L1120.65 309.589L1113.71 331.058C1092.92 395.439 1065.32 454.916 1034.97 500.753C1015.47 530.208 985.659 564.101 964.529 580.852L952.828 590.126L944.195 572.708C925.97 535.95 895.694 498.265 847.276 452.082L815.173 421.46L821.191 403.693C829.295 379.777 846.165 346.173 861.797 322.819C868.862 312.263 874.122 303.625 873.485 303.625C870.058 303.625 842.281 319.203 829.161 328.482C790.884 355.557 760.448 392.307 735.174 441.97C729.163 453.785 723.767 463.451 723.18 463.451C722.596 463.451 719.471 457.466 716.236 450.152C695.179 402.536 653.558 351.788 613.964 325.45C603.523 318.506 575.892 303.625 573.438 303.625C572.898 303.625 578.323 312.48 585.491 323.306ZM636.118 439C642.182 461.739 643.956 485.471 642.766 527.847C641.507 572.727 638.112 594.759 627.149 629.241C616.879 661.535 599.298 701.997 595.534 701.997C594.532 701.997 590.322 693.212 586.181 682.475C558.674 611.147 569.824 532 619.131 448.542C625.14 438.373 630.882 430.055 631.893 430.055C632.905 430.055 634.806 434.081 636.118 439ZM826.831 451.283C873.261 529.438 884.843 611.817 859.037 680.375C855.797 688.985 852.209 696.964 851.064 698.109C846.921 702.253 828.758 660.369 817.735 621.252C806.552 581.563 802.661 554.464 802.618 515.931C802.582 485.056 807.523 441.476 811.852 434.47C813.973 431.04 816.468 433.843 826.831 451.283ZM735.298 602.431C752.633 629.191 795.254 686.148 813.818 707.362C828.574 724.227 831.64 729.034 829.784 732.409C824.116 742.729 788.856 773.008 748.945 801.829L722.04 821.261L695.272 801.853C648.968 768.284 614.832 738.008 614.832 730.511C614.832 728.407 617.645 724.082 621.082 720.9C632.678 710.17 673.114 657.976 697.131 622.738C710.251 603.487 722.059 587.729 723.371 587.719C724.683 587.71 730.05 594.33 735.298 602.431Z" fill="#0B2945"/>
<path d="M477.671 527.859C503.361 527.859 524.187 502.761 524.187 471.801C524.187 440.84 503.361 415.742 477.671 415.742C451.98 415.742 431.154 440.84 431.154 471.801C431.154 502.761 451.98 527.859 477.671 527.859Z" fill="#FCB213"/>
<path d="M723.376 387.117C749.066 387.117 769.892 362.018 769.892 331.058C769.892 300.098 749.066 275 723.376 275C697.686 275 676.859 300.098 676.859 331.058C676.859 362.018 697.686 387.117 723.376 387.117Z" fill="#FCB213"/>
<path d="M966.689 527.859C992.38 527.859 1013.21 502.761 1013.21 471.801C1013.21 440.84 992.38 415.742 966.689 415.742C940.999 415.742 920.173 440.84 920.173 471.801C920.173 502.761 940.999 527.859 966.689 527.859Z" fill="#FCB213"/>
</svg>
