<svg version="1.1" id="Layer_1" xmlns="http://www.w3.org/2000/svg" xmlns:xlink="http://www.w3.org/1999/xlink" x="0px" y="0px"
	 width="100%" viewBox="0 0 96 96" enable-background="new 0 0 96 96" xml:space="preserve">
<path fill="#000000" opacity="0.000000" stroke="none"
	d="
M63.000000,97.000000 
	C42.000000,97.000000 21.500000,97.000000 1.000000,97.000000 
	C1.000000,65.000000 1.000000,33.000000 1.000000,1.000000 
	C33.000000,1.000000 65.000000,1.000000 97.000000,1.000000 
	C97.000000,33.000000 97.000000,65.000000 97.000000,97.000000 
	C85.833336,97.000000 74.666664,97.000000 63.000000,97.000000 
M68.686943,28.017370 
	C69.157318,27.709427 69.627701,27.401484 70.673576,27.201239 
	C71.170494,26.803026 71.667412,26.404814 72.817314,25.984230 
	C73.883385,26.364359 74.949455,26.744488 76.794205,27.402271 
	C77.454544,25.506248 77.929588,23.104385 79.109535,21.122103 
	C79.885689,19.818184 81.678238,19.119276 83.859749,17.537336 
	C83.859383,14.073933 83.850594,14.221815 79.082428,13.938470 
	C76.690979,13.796362 74.138992,13.419788 72.014488,12.405757 
	C68.782188,10.862973 65.858284,8.674058 62.847317,6.787078 
	C61.450020,10.566475 60.230057,13.866225 58.368328,16.851452 
	C55.698395,15.343785 53.028461,13.836119 50.358528,12.328452 
	C50.080967,12.815781 49.803406,13.303109 49.525841,13.790439 
	C50.196911,14.399635 50.867977,15.008832 51.057182,15.180593 
	C49.637646,16.799976 48.229122,18.406796 46.090809,19.999676 
	C42.092140,22.110210 38.092655,24.219212 34.103836,26.348204 
	C34.052334,26.375692 34.136703,26.657742 33.939865,27.465660 
	C33.351475,28.137438 32.763084,28.809217 32.174694,29.480995 
	C32.305290,29.658514 32.435886,29.836033 32.566483,30.013550 
	C33.362919,29.618643 34.159355,29.223736 35.573517,29.091139 
	C38.347763,28.269360 41.362556,27.875648 43.821964,26.493601 
	C45.877941,25.338259 47.284122,23.026590 49.814648,21.056299 
	C52.874672,20.316784 55.934700,19.577269 59.560020,19.217363 
	C58.266220,22.458380 60.238525,22.231487 62.848511,21.968348 
	C63.185566,21.988426 63.522625,22.008503 63.969212,22.607882 
	C64.007645,22.800220 64.046082,22.992558 63.288727,23.098286 
	C61.238148,23.606876 59.187572,24.115467 56.504932,24.780825 
	C58.020313,25.792362 59.075630,26.496803 60.042000,27.822256 
	C61.284622,27.956060 62.527241,28.089865 63.836620,29.072346 
	C63.948944,30.669516 64.061264,32.266685 64.252769,34.989864 
	C65.975853,32.539326 70.714211,33.481369 67.931732,28.576807 
	C67.979897,28.408878 68.028069,28.240948 68.686943,28.017370 
M54.436829,35.033886 
	C54.593624,35.493374 54.750423,35.952858 54.265495,36.729431 
	C53.326900,36.116840 52.388309,35.504250 51.162231,34.390678 
	C50.674839,34.575893 50.187443,34.761112 48.949440,34.955986 
	C47.291367,35.344627 45.633297,35.733265 43.354919,36.042595 
	C42.872879,36.346714 42.390839,36.650833 41.950466,36.907005 
	C41.950466,36.907005 41.889500,36.889172 41.121643,36.966946 
	C37.287109,39.346569 38.193638,43.036697 37.419441,47.423519 
	C39.722332,43.821651 41.321392,41.320618 43.624847,39.030090 
	C44.664230,42.697060 51.596233,42.561165 49.531559,48.499386 
	C45.981842,49.075459 42.788979,49.654999 43.054420,54.955639 
	C43.202599,57.914673 40.788502,61.002014 39.529034,64.031532 
	C40.027588,64.364784 40.526138,64.698036 41.024693,65.031288 
	C45.195633,62.847515 49.366573,60.663742 53.537514,58.479969 
	C53.799522,58.911350 54.061531,59.342731 54.323536,59.774113 
	C53.869198,60.801388 53.414860,61.828667 52.388065,63.317055 
	C49.358807,65.904320 45.739174,68.090309 45.254463,73.218346 
	C43.493565,73.990501 41.782391,75.216156 39.958748,75.416115 
	C37.840748,75.648361 34.379665,75.718834 33.692722,74.560280 
	C31.910482,71.554482 30.815105,67.891289 30.439331,64.384003 
	C30.159016,61.767685 31.428637,58.985306 32.167645,55.530697 
	C26.432320,59.824104 25.103804,73.060791 28.896000,77.447906 
	C33.056778,82.261421 39.902531,82.623413 45.815453,79.974052 
	C61.850307,72.789421 71.492302,59.804905 76.622215,43.419445 
	C77.607964,40.270847 78.387222,36.089298 74.781174,32.423134 
	C74.265961,34.184166 73.929688,35.333580 73.643524,36.311718 
	C72.172401,36.209522 70.777496,36.112621 70.137718,36.068180 
	C68.875153,40.614357 68.140709,44.933468 66.432983,48.825531 
	C65.273888,51.467220 62.749077,53.509670 60.154961,55.825588 
	C58.133530,53.573639 56.112103,51.321690 54.713093,49.281376 
	C59.853123,49.297222 59.267563,44.551231 61.380226,41.732918 
	C58.512398,42.813026 55.909927,44.908627 54.045925,39.964561 
	C54.343037,38.790356 54.640148,37.616154 55.342388,36.772205 
	C55.590801,36.191040 55.839214,35.609875 56.695660,34.720760 
	C56.762478,33.829323 56.829296,32.937881 56.814926,31.347960 
	C55.156582,30.174938 53.498241,29.001917 50.981792,27.221918 
	C52.674824,30.524466 53.586414,32.302681 54.804985,34.376755 
	C54.804985,34.376755 54.993778,34.759022 54.436829,35.033886 
M38.517872,64.167961 
	C38.400829,64.272324 38.197811,64.371399 38.190983,64.482529 
	C38.184177,64.593254 38.374199,64.716064 38.477924,64.833580 
	C38.595154,64.729332 38.712383,64.625076 38.517872,64.167961 
z"/>
<path fill="#FA830B" opacity="1.000000" stroke="none" 
	d="
M60.835033,55.820107 
	C62.749077,53.509670 65.273888,51.467220 66.432983,48.825531 
	C68.140709,44.933468 68.875153,40.614357 70.137718,36.068180 
	C70.777496,36.112621 72.172401,36.209522 73.643524,36.311718 
	C73.929688,35.333580 74.265961,34.184166 74.781174,32.423134 
	C78.387222,36.089298 77.607964,40.270847 76.622215,43.419445 
	C71.492302,59.804905 61.850307,72.789421 45.815453,79.974052 
	C39.902531,82.623413 33.056778,82.261421 28.896000,77.447906 
	C25.103804,73.060791 26.432320,59.824104 32.167645,55.530697 
	C31.428637,58.985306 30.159016,61.767685 30.439331,64.384003 
	C30.815105,67.891289 31.910482,71.554482 33.692722,74.560280 
	C34.379665,75.718834 37.840748,75.648361 39.958748,75.416115 
	C41.782391,75.216156 43.493565,73.990501 45.921383,73.008827 
	C50.039219,70.150902 53.490135,67.502495 57.236992,64.708176 
	C58.522018,63.409142 59.511101,62.256027 60.480606,61.075123 
	C60.461029,61.047333 60.523144,61.063889 60.844505,60.977875 
	C61.055588,59.201275 60.945309,57.510689 60.835033,55.820107 
z"/>
<path fill="#4B6E0B" opacity="1.000000" stroke="none" 
	d="
M60.500183,61.102913 
	C59.511101,62.256027 58.522018,63.409142 57.068291,64.534256 
	C55.389263,63.956146 54.174892,63.406044 52.960522,62.855942 
	C53.414860,61.828667 53.869198,60.801388 54.323536,59.774113 
	C54.061531,59.342731 53.799522,58.911350 53.537514,58.479969 
	C49.366573,60.663742 45.195633,62.847515 41.024693,65.031288 
	C40.526138,64.698036 40.027588,64.364784 39.529034,64.031532 
	C40.788502,61.002014 43.202599,57.914673 43.054420,54.955639 
	C42.788979,49.654999 45.981842,49.075459 49.531559,48.499386 
	C51.596233,42.561165 44.664230,42.697060 43.146233,38.682846 
	C42.408249,37.853455 42.148876,37.371315 41.889500,36.889172 
	C41.889500,36.889172 41.950466,36.907005 42.212364,36.898090 
	C42.974579,36.633419 43.474903,36.377659 43.975224,36.121902 
	C45.633297,35.733265 47.291367,35.344627 49.762997,34.957611 
	C50.867607,34.936714 51.158661,34.914185 51.449715,34.891659 
	C52.388309,35.504250 53.326900,36.116840 54.561577,36.607910 
	C54.857655,36.486389 54.937263,36.441948 54.937263,36.441948 
	C54.640148,37.616154 54.343037,38.790356 54.026833,40.838253 
	C54.035381,44.164543 54.063030,46.617138 54.090675,49.069736 
	C56.112103,51.321690 58.133530,53.573639 60.494995,55.822845 
	C60.945309,57.510689 61.055588,59.201275 60.619728,60.775246 
	C59.420963,60.376514 58.768341,60.094395 58.115719,59.812279 
	C58.051197,60.060913 57.986679,60.309551 57.922161,60.558186 
	C58.781498,60.739761 59.640839,60.921333 60.500183,61.102913 
z"/>
<path fill="#F21D17" opacity="1.000000" stroke="none" 
	d="
M59.010094,17.165976 
	C60.230057,13.866225 61.450020,10.566475 62.847317,6.787078 
	C65.858284,8.674058 68.782188,10.862973 72.014488,12.405757 
	C74.138992,13.419788 76.690979,13.796362 79.082428,13.938470 
	C83.850594,14.221815 83.859383,14.073933 83.859749,17.537336 
	C81.678238,19.119276 79.885689,19.818184 79.109535,21.122103 
	C77.929588,23.104385 77.454544,25.506248 76.794205,27.402271 
	C74.949455,26.744488 73.883385,26.364359 72.376114,25.671402 
	C70.625229,24.564035 69.315544,23.769501 68.000793,22.989872 
	C67.995720,23.004780 68.024590,22.992182 67.998665,22.636461 
	C66.781937,19.257097 65.397110,19.398260 63.859680,22.028580 
	C63.522625,22.008503 63.185566,21.988426 62.535625,21.552090 
	C61.174625,20.066818 60.126511,18.997807 59.060341,17.738178 
	C59.042282,17.547562 59.010094,17.165976 59.010094,17.165976 
z"/>
<path fill="#EC2B2D" opacity="1.000000" stroke="none" 
	d="
M34.157658,26.820972 
	C34.136703,26.657742 34.052334,26.375692 34.103836,26.348204 
	C38.092655,24.219212 42.092140,22.110210 46.717171,20.174229 
	C47.888374,20.641516 48.433216,20.934248 48.978058,21.226982 
	C47.284122,23.026590 45.877941,25.338259 43.821964,26.493601 
	C41.362556,27.875648 38.347763,28.269360 35.341324,28.746222 
	C34.791973,27.874527 34.474815,27.347750 34.157658,26.820972 
z"/>
<path fill="#F35C21" opacity="1.000000" stroke="none" 
	d="
M49.396355,21.141640 
	C48.433216,20.934248 47.888374,20.641516 47.082066,20.181198 
	C48.229122,18.406796 49.637646,16.799976 51.057182,15.180593 
	C50.867977,15.008832 50.196911,14.399635 49.525841,13.790439 
	C49.803406,13.303109 50.080967,12.815781 50.358528,12.328452 
	C53.028461,13.836119 55.698395,15.343785 58.689209,17.008713 
	C59.010094,17.165976 59.042282,17.547562 59.035233,17.965303 
	C59.028179,18.383045 58.994724,18.837753 58.994724,18.837753 
	C55.934700,19.577269 52.874672,20.316784 49.396355,21.141640 
z"/>
<path fill="#5E7C24" opacity="1.000000" stroke="none" 
	d="
M52.674294,63.086498 
	C54.174892,63.406044 55.389263,63.956146 56.772343,64.680176 
	C53.490135,67.502495 50.039219,70.150902 46.248047,72.825226 
	C45.739174,68.090309 49.358807,65.904320 52.674294,63.086498 
z"/>
<path fill="#54751A" opacity="1.000000" stroke="none" 
	d="
M54.401886,49.175556 
	C54.063030,46.617138 54.035381,44.164543 54.020630,41.306225 
	C55.909927,44.908627 58.512398,42.813026 61.380226,41.732918 
	C59.267563,44.551231 59.853123,49.297222 54.401886,49.175556 
z"/>
<path fill="#557114" opacity="1.000000" stroke="none" 
	d="
M67.775948,29.077219 
	C70.714211,33.481369 65.975853,32.539326 64.252769,34.989864 
	C64.061264,32.266685 63.948944,30.669516 64.062065,28.641468 
	C64.619156,28.128561 64.950813,28.046532 65.506752,28.023666 
	C65.731041,28.082827 66.193146,28.148455 66.193146,28.148455 
	C66.193146,28.148455 66.659790,28.138775 66.801834,28.341778 
	C67.189529,28.771809 67.466888,28.949289 67.775948,29.077219 
z"/>
<path fill="#58781D" opacity="1.000000" stroke="none" 
	d="
M41.505569,36.928059 
	C42.148876,37.371315 42.408249,37.853455 42.794037,38.577591 
	C41.321392,41.320618 39.722332,43.821651 37.419441,47.423519 
	C38.193638,43.036697 37.287109,39.346569 41.505569,36.928059 
z"/>
<path fill="#EF2B2D" opacity="1.000000" stroke="none" 
	d="
M65.282463,27.964504 
	C64.950813,28.046532 64.619156,28.128561 64.028687,28.217129 
	C62.527241,28.089865 61.284622,27.956060 60.398697,27.342945 
	C61.984653,25.771280 63.213905,24.678923 64.723526,23.486681 
	C66.010788,23.255257 67.017693,23.123720 68.024590,22.992184 
	C68.024590,22.992182 67.995720,23.004780 67.896538,23.297676 
	C67.461441,24.383055 67.125526,25.175535 66.517784,26.050232 
	C65.924789,26.743134 65.603630,27.353819 65.282463,27.964504 
z"/>
<path fill="#748C47" opacity="1.000000" stroke="none" 
	d="
M54.498005,34.080894 
	C53.586414,32.302681 52.674824,30.524466 50.981792,27.221918 
	C53.498241,29.001917 55.156582,30.174938 56.576485,31.865231 
	C55.724701,32.948631 55.111355,33.514763 54.498005,34.080894 
z"/>
<path fill="#F15633" opacity="1.000000" stroke="none" 
	d="
M64.443161,23.586567 
	C63.213905,24.678923 61.984653,25.771280 60.443176,27.032440 
	C59.075630,26.496803 58.020313,25.792362 56.504932,24.780825 
	C59.187572,24.115467 61.238148,23.606876 63.767239,23.237251 
	C64.245750,23.376219 64.443161,23.586567 64.443161,23.586567 
z"/>
<path fill="#F6641C" opacity="1.000000" stroke="none" 
	d="
M64.723526,23.486681 
	C64.443161,23.586567 64.245750,23.376219 64.165131,23.280556 
	C64.046082,22.992558 64.007645,22.800220 63.914444,22.318230 
	C65.397110,19.398260 66.781937,19.257097 67.998665,22.636463 
	C67.017693,23.123720 66.010788,23.255257 64.723526,23.486681 
z"/>
<path fill="#F6641C" opacity="1.000000" stroke="none" 
	d="
M66.789612,25.968018 
	C67.125526,25.175535 67.461441,24.383055 67.901611,23.282770 
	C69.315544,23.769501 70.625229,24.564035 72.049622,25.682587 
	C71.667412,26.404814 71.170494,26.803026 70.300987,27.061613 
	C69.928398,26.921988 69.761528,26.747711 69.747238,26.556101 
	C69.184883,26.256723 68.636810,26.148958 67.763977,26.022583 
	C67.222687,25.991987 67.006149,25.980001 66.789612,25.968018 
z"/>
<path fill="#F1421F" opacity="1.000000" stroke="none" 
	d="
M59.277374,19.027557 
	C58.994724,18.837753 59.028179,18.383045 59.053291,18.155922 
	C60.126511,18.997807 61.174625,20.066818 62.289322,21.493191 
	C60.238525,22.231487 58.266220,22.458380 59.277374,19.027557 
z"/>
<path fill="#F57A28" opacity="1.000000" stroke="none" 
	d="
M34.048759,27.143316 
	C34.474815,27.347750 34.791973,27.874527 35.032463,28.615067 
	C34.159355,29.223736 33.362919,29.618643 32.566483,30.013550 
	C32.435886,29.836033 32.305290,29.658514 32.174694,29.480995 
	C32.763084,28.809217 33.351475,28.137438 34.048759,27.143316 
z"/>
<path fill="#A4BE89" opacity="1.000000" stroke="none" 
	d="
M54.651497,34.228825 
	C55.111355,33.514763 55.724701,32.948631 56.617081,32.214470 
	C56.829296,32.937881 56.762478,33.829323 56.123077,34.787491 
	C55.364918,34.822487 55.179348,34.790752 54.993778,34.759022 
	C54.993778,34.759022 54.804985,34.376755 54.651497,34.228825 
z"/>
<path fill="#FFFFD5" opacity="1.000000" stroke="none" 
	d="
M54.715302,34.896454 
	C55.179348,34.790752 55.364918,34.822487 55.819061,34.941467 
	C55.839214,35.609875 55.590801,36.191040 55.139824,36.607079 
	C54.937263,36.441948 54.857655,36.486389 54.882439,36.449368 
	C54.750423,35.952858 54.593624,35.493374 54.715302,34.896454 
z"/>
<path fill="#58781D" opacity="1.000000" stroke="none" 
	d="
M51.305973,34.641167 
	C51.158661,34.914185 50.867607,34.936714 50.138302,34.952785 
	C50.187443,34.761112 50.674839,34.575893 51.305973,34.641167 
z"/>
<path fill="#58781D" opacity="1.000000" stroke="none" 
	d="
M43.665070,36.082249 
	C43.474903,36.377659 42.974579,36.633419 42.191528,36.922066 
	C42.390839,36.650833 42.872879,36.346714 43.665070,36.082249 
z"/>
<path fill="#F66915" opacity="1.000000" stroke="none" 
	d="
M70.013237,27.007763 
	C69.627701,27.401484 69.157318,27.709427 68.339081,28.006451 
	C67.991226,27.995531 67.906082,27.918207 67.911026,27.692751 
	C67.915977,27.467295 67.957649,27.018204 68.262840,27.005497 
	C68.965866,26.911098 69.363693,26.829405 69.761528,26.747711 
	C69.761528,26.747711 69.928398,26.921988 70.013237,27.007763 
z"/>
<path fill="#F66915" opacity="1.000000" stroke="none" 
	d="
M67.853836,28.827013 
	C67.466888,28.949289 67.189529,28.771809 67.113327,28.285133 
	C67.490532,27.989727 67.698303,27.953968 67.906082,27.918207 
	C67.906082,27.918207 67.991226,27.995531 68.033730,28.034275 
	C68.028069,28.240948 67.979897,28.408878 67.853836,28.827013 
z"/>
<path fill="#4B6E0B" opacity="1.000000" stroke="none" 
	d="
M38.673740,64.344391 
	C38.712383,64.625076 38.595154,64.729332 38.477924,64.833580 
	C38.374199,64.716064 38.184177,64.593254 38.190983,64.482529 
	C38.197811,64.371399 38.400829,64.272324 38.673740,64.344391 
z"/>
<path fill="#5E7C24" opacity="1.000000" stroke="none" 
	d="
M60.480606,61.075119 
	C59.640839,60.921333 58.781498,60.739761 57.922161,60.558186 
	C57.986679,60.309551 58.051197,60.060913 58.115719,59.812279 
	C58.768341,60.094395 59.420963,60.376514 60.298367,60.861259 
	C60.523144,61.063889 60.461029,61.047333 60.480606,61.075119 
z"/>
<path fill="#F35325" opacity="1.000000" stroke="none" 
	d="
M67.911026,27.692751 
	C67.698303,27.953968 67.490532,27.989727 66.971283,28.082130 
	C66.659790,28.138775 66.193146,28.148455 66.193146,28.148455 
	C66.193146,28.148455 65.731041,28.082827 65.506752,28.023666 
	C65.603630,27.353819 65.924789,26.743134 66.517784,26.050232 
	C67.006149,25.980001 67.222687,25.991987 67.726562,26.266083 
	C68.013908,26.528194 67.957649,27.018204 67.957649,27.018204 
	C67.957649,27.018204 67.915977,27.467295 67.911026,27.692751 
z"/>
<path fill="#F68C49" opacity="1.000000" stroke="none" 
	d="
M68.262840,27.005497 
	C67.957649,27.018204 68.013908,26.528194 68.051331,26.284695 
	C68.636810,26.148958 69.184883,26.256723 69.747238,26.556103 
	C69.363693,26.829405 68.965866,26.911098 68.262840,27.005497 
z"/>
</svg>